  0
SECTION
  2
HEADER
  9
$ACADVER
  1
AC1014
  9
$HANDSEED
  5
FFFF
  9
$MEASUREMENT
 70
     1
  0
ENDSEC
  0
SECTION
  2
TABLES
  0
TABLE
  2
VPORT
  5
8
330
0
100
AcDbSymbolTable
 70
     4
  0
VPORT
  5
2E
330
8
100
AcDbSymbolTableRecord
100
AcDbViewportTableRecord
  2
*ACTIVE
 70
     0
 10
0.0
 20
0.0
 11
1.0
 21
1.0
 12
210.0
 22
148.5
 13
0.0
 23
0.0
 14
10.0
 24
10.0
 15
10.0
 25
10.0
 16
0.0
 26
0.0
 36
1.0
 17
0.0
 27
0.0
 37
0.0
 40
341.0
 41
1.24
 42
50.0
 43
0.0
 44
0.0
 50
0.0
 51
0.0
 71
     0
 72
   100
 73
     1
 74
     3
 75
     0
 76
     0
 77
     0
 78
     0
  0
ENDTAB
  0
TABLE
  2
LTYPE
  5
5
330
0
100
AcDbSymbolTable
 70
     1
  0
LTYPE
  5
14
330
5
100
AcDbSymbolTableRecord
100
AcDbLinetypeTableRecord
  2
BYBLOCK
 70
     0
  3

 72
    65
 73
     0
 40
0.0
  0
LTYPE
  5
15
330
5
100
AcDbSymbolTableRecord
100
AcDbLinetypeTableRecord
  2
BYLAYER
 70
     0
  3

 72
    65
 73
     0
 40
0.0
  0
LTYPE
  5
16
330
5
100
AcDbSymbolTableRecord
100
AcDbLinetypeTableRecord
  2
CONTINUOUS
 70
     0
  3
Solid line
 72
    65
 73
     0
 40
0.0
  0
ENDTAB
  0
TABLE
  2
LAYER
  5
2
100
AcDbSymbolTable
 70
4
  0
LAYER
  5
50
100
AcDbSymbolTableRecord
100
AcDbLayerTableRecord
  2
0
 70
0
  6
CONTINUOUS
  0
LAYER
  5
51
100
AcDbSymbolTableRecord
100
AcDbLayerTableRecord
  2
Layer_1
 70
0
  6
CONTINUOUS
  0
LAYER
  5
52
100
AcDbSymbolTableRecord
100
AcDbLayerTableRecord
  2
text_and_logo
 70
0
  6
CONTINUOUS
  0
LAYER
  5
53
100
AcDbSymbolTableRecord
100
AcDbLayerTableRecord
  2
waveforms
 70
0
  6
CONTINUOUS
  0
ENDTAB
  0
TABLE
  2
STYLE
  5
3
330
0
100
AcDbSymbolTable
 70
     1
  0
STYLE
  5
11
330
3
100
AcDbSymbolTableRecord
100
AcDbTextStyleTableRecord
  2
STANDARD
 70
     0
 40
0.0
 41
1.0
 50
0.0
 71
     0
 42
2.5
  3
txt
  4

  0
ENDTAB
  0
TABLE
  2
VIEW
  5
6
330
0
100
AcDbSymbolTable
 70
     0
  0
ENDTAB
  0
TABLE
  2
UCS
  5
7
330
0
100
AcDbSymbolTable
 70
     0
  0
ENDTAB
  0
TABLE
  2
APPID
  5
9
330
0
100
AcDbSymbolTable
 70
     2
  0
APPID
  5
12
330
9
100
AcDbSymbolTableRecord
100
AcDbRegAppTableRecord
  2
ACAD
 70
     0
  0
ENDTAB
  0
TABLE
  2
DIMSTYLE
  5
A
330
0
100
AcDbSymbolTable
 70
     1
  0
DIMSTYLE
105
27
330
A
100
AcDbSymbolTableRecord
100
AcDbDimStyleTableRecord
  2
ISO-25
 70
     0
  3

  4

  5

  6

  7

 40
1.0
 41
2.5
 42
0.625
 43
3.75
 44
1.25
 45
0.0
 46
0.0
 47
0.0
 48
0.0
140
2.5
141
2.5
142
0.0
143
0.03937007874016
144
1.0
145
0.0
146
1.0
147
0.625
 71
     0
 72
     0
 73
     0
 74
     0
 75
     0
 76
     0
 77
     1
 78
     8
170
     0
171
     3
172
     1
173
     0
174
     0
175
     0
176
     0
177
     0
178
     0
270
     2
271
     2
272
     2
273
     2
274
     3
340
11
275
     0
280
     0
281
     0
282
     0
283
     0
284
     8
285
     0
286
     0
287
     3
288
     0
  0
ENDTAB
  0
TABLE
  2
BLOCK_RECORD
  5
1
330
0
100
AcDbSymbolTable
 70
     1
  0
BLOCK_RECORD
  5
1F
330
1
100
AcDbSymbolTableRecord
100
AcDbBlockTableRecord
  2
*MODEL_SPACE
  0
BLOCK_RECORD
  5
1B
330
1
100
AcDbSymbolTableRecord
100
AcDbBlockTableRecord
  2
*PAPER_SPACE
  0
ENDTAB
  0
ENDSEC
  0
SECTION
  2
BLOCKS
  0
BLOCK
  5
20
330
1F
100
AcDbEntity
  8
0
100
AcDbBlockBegin
  2
*MODEL_SPACE
 70
     0
 10
0.0
 20
0.0
 30
0.0
  3
*MODEL_SPACE
  1

  0
ENDBLK
  5
21
330
1F
100
AcDbEntity
  8
0
100
AcDbBlockEnd
  0
BLOCK
  5
1C
330
1B
100
AcDbEntity
 67
     1
  8
0
100
AcDbBlockBegin
  2
*PAPER_SPACE
  1

  0
ENDBLK
  5
1D
330
1B
100
AcDbEntity
 67
     1
  8
0
100
AcDbBlockEnd
  0
ENDSEC
  0
SECTION
  2
ENTITIES
  0
LINE
  5
100
100
AcDbEntity
  8
Layer_1
 62
7
100
AcDbLine
 10
-0.000165
 20
0.000322
 30
0.0
 11
34.999790
 21
0.000322
 31
0.0
  0
LINE
  5
101
100
AcDbEntity
  8
Layer_1
 62
7
100
AcDbLine
 10
-0.000165
 20
128.500160
 30
0.0
 11
-0.000165
 21
0.000322
 31
0.0
  0
LINE
  5
102
100
AcDbEntity
  8
Layer_1
 62
7
100
AcDbLine
 10
34.999790
 20
0.000322
 30
0.0
 11
34.999790
 21
128.500160
 31
0.0
  0
LINE
  5
103
100
AcDbEntity
  8
Layer_1
 62
7
100
AcDbLine
 10
34.999790
 20
128.500160
 30
0.0
 11
-0.000165
 21
128.500160
 31
0.0
  0
SPLINE
  5
104
100
AcDbEntity
  8
Layer_1
 62
7
100
AcDbSpline
 70
8
 71
3
 72
8
 73
4
 74
0
 40
0
 40
0
 40
0
 40
0
 40
1
 40
1
 40
1
 40
1
 10
2.999830
 20
127.050163
 30
0.0
 10
2.446069
 20
127.050163
 30
0.0
 10
1.934373
 20
126.754735
 30
0.0
 10
1.657492
 20
126.275164
 30
0.0
  0
SPLINE
  5
105
100
AcDbEntity
  8
Layer_1
 62
7
100
AcDbSpline
 70
8
 71
3
 72
8
 73
4
 74
0
 40
0
 40
0
 40
0
 40
0
 40
1
 40
1
 40
1
 40
1
 10
1.657492
 20
126.275164
 30
0.0
 10
1.380612
 20
125.795592
 30
0.0
 10
1.380612
 20
125.204736
 30
0.0
 10
1.657492
 20
124.725165
 30
0.0
  0
SPLINE
  5
106
100
AcDbEntity
  8
Layer_1
 62
7
100
AcDbSpline
 70
8
 71
3
 72
8
 73
4
 74
0
 40
0
 40
0
 40
0
 40
0
 40
1
 40
1
 40
1
 40
1
 10
1.657492
 20
124.725165
 30
0.0
 10
1.934373
 20
124.245594
 30
0.0
 10
2.446069
 20
123.950166
 30
0.0
 10
2.999830
 20
123.950166
 30
0.0
  0
LINE
  5
107
100
AcDbEntity
  8
Layer_1
 62
7
100
AcDbLine
 10
2.999830
 20
123.950166
 30
0.0
 11
6.099828
 21
123.950166
 31
0.0
  0
SPLINE
  5
108
100
AcDbEntity
  8
Layer_1
 62
7
100
AcDbSpline
 70
8
 71
3
 72
8
 73
4
 74
0
 40
0
 40
0
 40
0
 40
0
 40
1
 40
1
 40
1
 40
1
 10
6.099828
 20
123.950166
 30
0.0
 10
6.653589
 20
123.950166
 30
0.0
 10
7.165285
 20
124.245594
 30
0.0
 10
7.442166
 20
124.725165
 30
0.0
  0
SPLINE
  5
109
100
AcDbEntity
  8
Layer_1
 62
7
100
AcDbSpline
 70
8
 71
3
 72
8
 73
4
 74
0
 40
0
 40
0
 40
0
 40
0
 40
1
 40
1
 40
1
 40
1
 10
7.442166
 20
124.725165
 30
0.0
 10
7.719047
 20
125.204736
 30
0.0
 10
7.719047
 20
125.795592
 30
0.0
 10
7.442166
 20
126.275164
 30
0.0
  0
SPLINE
  5
10a
100
AcDbEntity
  8
Layer_1
 62
7
100
AcDbSpline
 70
8
 71
3
 72
8
 73
4
 74
0
 40
0
 40
0
 40
0
 40
0
 40
1
 40
1
 40
1
 40
1
 10
7.442166
 20
126.275164
 30
0.0
 10
7.165285
 20
126.754735
 30
0.0
 10
6.653589
 20
127.050163
 30
0.0
 10
6.099828
 20
127.050163
 30
0.0
  0
LINE
  5
10b
100
AcDbEntity
  8
Layer_1
 62
7
100
AcDbLine
 10
2.999830
 20
127.050163
 30
0.0
 11
6.099828
 21
127.050163
 31
0.0
  0
SPLINE
  5
10c
100
AcDbEntity
  8
Layer_1
 62
7
100
AcDbSpline
 70
8
 71
3
 72
8
 73
4
 74
0
 40
0
 40
0
 40
0
 40
0
 40
1
 40
1
 40
1
 40
1
 10
11.849820
 20
104.250191
 30
0.0
 10
11.849820
 20
105.357713
 30
0.0
 10
11.258964
 20
106.381106
 30
0.0
 10
10.299822
 20
106.934866
 30
0.0
  0
SPLINE
  5
10d
100
AcDbEntity
  8
Layer_1
 62
7
100
AcDbSpline
 70
8
 71
3
 72
8
 73
4
 74
0
 40
0
 40
0
 40
0
 40
0
 40
1
 40
1
 40
1
 40
1
 10
10.299822
 20
106.934866
 30
0.0
 10
9.340679
 20
107.488627
 30
0.0
 10
8.158968
 20
107.488627
 30
0.0
 10
7.199826
 20
106.934866
 30
0.0
  0
SPLINE
  5
10e
100
AcDbEntity
  8
Layer_1
 62
7
100
AcDbSpline
 70
8
 71
3
 72
8
 73
4
 74
0
 40
0
 40
0
 40
0
 40
0
 40
1
 40
1
 40
1
 40
1
 10
7.199826
 20
106.934866
 30
0.0
 10
6.240683
 20
106.381106
 30
0.0
 10
5.649828
 20
105.357713
 30
0.0
 10
5.649828
 20
104.250191
 30
0.0
  0
SPLINE
  5
10f
100
AcDbEntity
  8
Layer_1
 62
7
100
AcDbSpline
 70
8
 71
3
 72
8
 73
4
 74
0
 40
0
 40
0
 40
0
 40
0
 40
1
 40
1
 40
1
 40
1
 10
5.649828
 20
104.250191
 30
0.0
 10
5.649370
 20
103.142364
 30
0.0
 10
6.240126
 20
102.118494
 30
0.0
 10
7.199456
 20
101.564448
 30
0.0
  0
SPLINE
  5
110
100
AcDbEntity
  8
Layer_1
 62
7
100
AcDbSpline
 70
8
 71
3
 72
8
 73
4
 74
0
 40
0
 40
0
 40
0
 40
0
 40
1
 40
1
 40
1
 40
1
 10
7.199456
 20
101.564448
 30
0.0
 10
8.158786
 20
101.010403
 30
0.0
 10
9.340861
 20
101.010403
 30
0.0
 10
10.300191
 20
101.564448
 30
0.0
  0
SPLINE
  5
111
100
AcDbEntity
  8
Layer_1
 62
7
100
AcDbSpline
 70
8
 71
3
 72
8
 73
4
 74
0
 40
0
 40
0
 40
0
 40
0
 40
1
 40
1
 40
1
 40
1
 10
10.300191
 20
101.564448
 30
0.0
 10
11.259521
 20
102.118494
 30
0.0
 10
11.850277
 20
103.142364
 30
0.0
 10
11.849820
 20
104.250191
 30
0.0
  0
LINE
  5
112
100
AcDbEntity
  8
Layer_1
 62
7
100
AcDbLine
 10
11.849820
 20
104.250191
 30
0.0
 11
11.849820
 21
104.250191
 31
0.0
  0
SPLINE
  5
113
100
AcDbEntity
  8
Layer_1
 62
7
100
AcDbSpline
 70
8
 71
3
 72
8
 73
4
 74
0
 40
0
 40
0
 40
0
 40
0
 40
1
 40
1
 40
1
 40
1
 10
21.249808
 20
79.250222
 30
0.0
 10
21.249808
 20
80.589967
 30
0.0
 10
20.535063
 20
81.827942
 30
0.0
 10
19.374810
 20
82.497814
 30
0.0
  0
SPLINE
  5
114
100
AcDbEntity
  8
Layer_1
 62
7
100
AcDbSpline
 70
8
 71
3
 72
8
 73
4
 74
0
 40
0
 40
0
 40
0
 40
0
 40
1
 40
1
 40
1
 40
1
 10
19.374810
 20
82.497814
 30
0.0
 10
18.214557
 20
83.167687
 30
0.0
 10
16.785067
 20
83.167687
 30
0.0
 10
15.624814
 20
82.497814
 30
0.0
  0
SPLINE
  5
115
100
AcDbEntity
  8
Layer_1
 62
7
100
AcDbSpline
 70
8
 71
3
 72
8
 73
4
 74
0
 40
0
 40
0
 40
0
 40
0
 40
1
 40
1
 40
1
 40
1
 10
15.624814
 20
82.497814
 30
0.0
 10
14.464562
 20
81.827942
 30
0.0
 10
13.749816
 20
80.589967
 30
0.0
 10
13.749817
 20
79.250222
 30
0.0
  0
SPLINE
  5
116
100
AcDbEntity
  8
Layer_1
 62
7
100
AcDbSpline
 70
8
 71
3
 72
8
 73
4
 74
0
 40
0
 40
0
 40
0
 40
0
 40
1
 40
1
 40
1
 40
1
 10
13.749817
 20
79.250222
 30
0.0
 10
13.749816
 20
77.910478
 30
0.0
 10
14.464562
 20
76.672503
 30
0.0
 10
15.624814
 20
76.002631
 30
0.0
  0
SPLINE
  5
117
100
AcDbEntity
  8
Layer_1
 62
7
100
AcDbSpline
 70
8
 71
3
 72
8
 73
4
 74
0
 40
0
 40
0
 40
0
 40
0
 40
1
 40
1
 40
1
 40
1
 10
15.624814
 20
76.002631
 30
0.0
 10
16.785067
 20
75.332758
 30
0.0
 10
18.214557
 20
75.332758
 30
0.0
 10
19.374810
 20
76.002631
 30
0.0
  0
SPLINE
  5
118
100
AcDbEntity
  8
Layer_1
 62
7
100
AcDbSpline
 70
8
 71
3
 72
8
 73
4
 74
0
 40
0
 40
0
 40
0
 40
0
 40
1
 40
1
 40
1
 40
1
 10
19.374810
 20
76.002631
 30
0.0
 10
20.535063
 20
76.672503
 30
0.0
 10
21.249808
 20
77.910478
 30
0.0
 10
21.249808
 20
79.250222
 30
0.0
  0
LINE
  5
119
100
AcDbEntity
  8
Layer_1
 62
7
100
AcDbLine
 10
21.249808
 20
79.250222
 30
0.0
 11
21.249808
 21
79.250222
 31
0.0
  0
SPLINE
  5
11a
100
AcDbEntity
  8
Layer_1
 62
7
100
AcDbSpline
 70
8
 71
3
 72
8
 73
4
 74
0
 40
0
 40
0
 40
0
 40
0
 40
1
 40
1
 40
1
 40
1
 10
11.399819
 20
35.250279
 30
0.0
 10
11.400692
 20
36.590604
 30
0.0
 10
10.686137
 20
37.829488
 30
0.0
 10
9.525527
 20
38.499903
 30
0.0
  0
SPLINE
  5
11b
100
AcDbEntity
  8
Layer_1
 62
7
100
AcDbSpline
 70
8
 71
3
 72
8
 73
4
 74
0
 40
0
 40
0
 40
0
 40
0
 40
1
 40
1
 40
1
 40
1
 10
9.525527
 20
38.499903
 30
0.0
 10
8.364916
 20
39.170317
 30
0.0
 10
6.934734
 20
39.170317
 30
0.0
 10
5.774123
 20
38.499903
 30
0.0
  0
SPLINE
  5
11c
100
AcDbEntity
  8
Layer_1
 62
7
100
AcDbSpline
 70
8
 71
3
 72
8
 73
4
 74
0
 40
0
 40
0
 40
0
 40
0
 40
1
 40
1
 40
1
 40
1
 10
5.774123
 20
38.499903
 30
0.0
 10
4.613513
 20
37.829488
 30
0.0
 10
3.898959
 20
36.590604
 30
0.0
 10
3.899831
 20
35.250279
 30
0.0
  0
SPLINE
  5
11d
100
AcDbEntity
  8
Layer_1
 62
7
100
AcDbSpline
 70
8
 71
3
 72
8
 73
4
 74
0
 40
0
 40
0
 40
0
 40
0
 40
1
 40
1
 40
1
 40
1
 10
3.899831
 20
35.250279
 30
0.0
 10
3.898959
 20
33.909953
 30
0.0
 10
4.613513
 20
32.671069
 30
0.0
 10
5.774123
 20
32.000654
 30
0.0
  0
SPLINE
  5
11e
100
AcDbEntity
  8
Layer_1
 62
7
100
AcDbSpline
 70
8
 71
3
 72
8
 73
4
 74
0
 40
0
 40
0
 40
0
 40
0
 40
1
 40
1
 40
1
 40
1
 10
5.774123
 20
32.000654
 30
0.0
 10
6.934734
 20
31.330240
 30
0.0
 10
8.364916
 20
31.330240
 30
0.0
 10
9.525527
 20
32.000654
 30
0.0
  0
SPLINE
  5
11f
100
AcDbEntity
  8
Layer_1
 62
7
100
AcDbSpline
 70
8
 71
3
 72
8
 73
4
 74
0
 40
0
 40
0
 40
0
 40
0
 40
1
 40
1
 40
1
 40
1
 10
9.525527
 20
32.000654
 30
0.0
 10
10.686137
 20
32.671069
 30
0.0
 10
11.400692
 20
33.909953
 30
0.0
 10
11.399819
 20
35.250279
 30
0.0
  0
LINE
  5
120
100
AcDbEntity
  8
Layer_1
 62
7
100
AcDbLine
 10
11.399819
 20
35.250279
 30
0.0
 11
11.399819
 21
35.250279
 31
0.0
  0
SPLINE
  5
121
100
AcDbEntity
  8
Layer_1
 62
7
100
AcDbSpline
 70
8
 71
3
 72
8
 73
4
 74
0
 40
0
 40
0
 40
0
 40
0
 40
1
 40
1
 40
1
 40
1
 10
2.999830
 20
4.550316
 30
0.0
 10
2.144403
 20
4.549450
 30
0.0
 10
1.451401
 20
3.855747
 30
0.0
 10
1.451401
 20
3.000319
 30
0.0
  0
SPLINE
  5
122
100
AcDbEntity
  8
Layer_1
 62
7
100
AcDbSpline
 70
8
 71
3
 72
8
 73
4
 74
0
 40
0
 40
0
 40
0
 40
0
 40
1
 40
1
 40
1
 40
1
 10
1.451401
 20
3.000319
 30
0.0
 10
1.451401
 20
2.144891
 30
0.0
 10
2.144403
 20
1.451187
 30
0.0
 10
2.999830
 20
1.450322
 30
0.0
  0
LINE
  5
123
100
AcDbEntity
  8
Layer_1
 62
7
100
AcDbLine
 10
2.999830
 20
1.450322
 30
0.0
 11
6.099828
 21
1.450322
 31
0.0
  0
SPLINE
  5
124
100
AcDbEntity
  8
Layer_1
 62
7
100
AcDbSpline
 70
8
 71
3
 72
8
 73
4
 74
0
 40
0
 40
0
 40
0
 40
0
 40
1
 40
1
 40
1
 40
1
 10
6.099828
 20
1.450322
 30
0.0
 10
6.955255
 20
1.451187
 30
0.0
 10
7.648257
 20
2.144891
 30
0.0
 10
7.648257
 20
3.000319
 30
0.0
  0
SPLINE
  5
125
100
AcDbEntity
  8
Layer_1
 62
7
100
AcDbSpline
 70
8
 71
3
 72
8
 73
4
 74
0
 40
0
 40
0
 40
0
 40
0
 40
1
 40
1
 40
1
 40
1
 10
7.648257
 20
3.000319
 30
0.0
 10
7.648257
 20
3.855747
 30
0.0
 10
6.955255
 20
4.549450
 30
0.0
 10
6.099828
 20
4.550316
 30
0.0
  0
LINE
  5
126
100
AcDbEntity
  8
Layer_1
 62
7
100
AcDbLine
 10
2.999830
 20
4.550316
 30
0.0
 11
6.099828
 21
4.550316
 31
0.0
  0
SPLINE
  5
127
100
AcDbEntity
  8
Layer_1
 62
7
100
AcDbSpline
 70
8
 71
3
 72
8
 73
4
 74
0
 40
0
 40
0
 40
0
 40
0
 40
1
 40
1
 40
1
 40
1
 10
10.789821
 20
22.067296
 30
0.0
 10
10.790278
 20
23.175123
 30
0.0
 10
10.199523
 20
24.198993
 30
0.0
 10
9.240193
 20
24.753038
 30
0.0
  0
SPLINE
  5
128
100
AcDbEntity
  8
Layer_1
 62
7
100
AcDbSpline
 70
8
 71
3
 72
8
 73
4
 74
0
 40
0
 40
0
 40
0
 40
0
 40
1
 40
1
 40
1
 40
1
 10
9.240193
 20
24.753038
 30
0.0
 10
8.280862
 20
25.307084
 30
0.0
 10
7.098787
 20
25.307084
 30
0.0
 10
6.139457
 20
24.753038
 30
0.0
  0
SPLINE
  5
129
100
AcDbEntity
  8
Layer_1
 62
7
100
AcDbSpline
 70
8
 71
3
 72
8
 73
4
 74
0
 40
0
 40
0
 40
0
 40
0
 40
1
 40
1
 40
1
 40
1
 10
6.139457
 20
24.753038
 30
0.0
 10
5.180127
 20
24.198993
 30
0.0
 10
4.589371
 20
23.175123
 30
0.0
 10
4.589829
 20
22.067296
 30
0.0
  0
SPLINE
  5
12a
100
AcDbEntity
  8
Layer_1
 62
7
100
AcDbSpline
 70
8
 71
3
 72
8
 73
4
 74
0
 40
0
 40
0
 40
0
 40
0
 40
1
 40
1
 40
1
 40
1
 10
4.589829
 20
22.067296
 30
0.0
 10
4.589829
 20
20.959774
 30
0.0
 10
5.180685
 20
19.936381
 30
0.0
 10
6.139827
 20
19.382620
 30
0.0
  0
SPLINE
  5
12b
100
AcDbEntity
  8
Layer_1
 62
7
100
AcDbSpline
 70
8
 71
3
 72
8
 73
4
 74
0
 40
0
 40
0
 40
0
 40
0
 40
1
 40
1
 40
1
 40
1
 10
6.139827
 20
19.382620
 30
0.0
 10
7.098969
 20
18.828859
 30
0.0
 10
8.280681
 20
18.828859
 30
0.0
 10
9.239823
 20
19.382620
 30
0.0
  0
SPLINE
  5
12c
100
AcDbEntity
  8
Layer_1
 62
7
100
AcDbSpline
 70
8
 71
3
 72
8
 73
4
 74
0
 40
0
 40
0
 40
0
 40
0
 40
1
 40
1
 40
1
 40
1
 10
9.239823
 20
19.382620
 30
0.0
 10
10.198965
 20
19.936381
 30
0.0
 10
10.789821
 20
20.959774
 30
0.0
 10
10.789821
 20
22.067296
 30
0.0
  0
LINE
  5
12d
100
AcDbEntity
  8
Layer_1
 62
7
100
AcDbLine
 10
10.789821
 20
22.067296
 30
0.0
 11
10.789821
 21
22.067296
 31
0.0
  0
SPLINE
  5
12e
100
AcDbEntity
  8
Layer_1
 62
7
100
AcDbSpline
 70
8
 71
3
 72
8
 73
4
 74
0
 40
0
 40
0
 40
0
 40
0
 40
1
 40
1
 40
1
 40
1
 10
21.249808
 20
54.250254
 30
0.0
 10
21.249808
 20
55.589998
 30
0.0
 10
20.535063
 20
56.827973
 30
0.0
 10
19.374810
 20
57.497845
 30
0.0
  0
SPLINE
  5
12f
100
AcDbEntity
  8
Layer_1
 62
7
100
AcDbSpline
 70
8
 71
3
 72
8
 73
4
 74
0
 40
0
 40
0
 40
0
 40
0
 40
1
 40
1
 40
1
 40
1
 10
19.374810
 20
57.497845
 30
0.0
 10
18.214557
 20
58.167718
 30
0.0
 10
16.785067
 20
58.167718
 30
0.0
 10
15.624814
 20
57.497845
 30
0.0
  0
SPLINE
  5
130
100
AcDbEntity
  8
Layer_1
 62
7
100
AcDbSpline
 70
8
 71
3
 72
8
 73
4
 74
0
 40
0
 40
0
 40
0
 40
0
 40
1
 40
1
 40
1
 40
1
 10
15.624814
 20
57.497845
 30
0.0
 10
14.464562
 20
56.827973
 30
0.0
 10
13.749816
 20
55.589998
 30
0.0
 10
13.749817
 20
54.250254
 30
0.0
  0
SPLINE
  5
131
100
AcDbEntity
  8
Layer_1
 62
7
100
AcDbSpline
 70
8
 71
3
 72
8
 73
4
 74
0
 40
0
 40
0
 40
0
 40
0
 40
1
 40
1
 40
1
 40
1
 10
13.749817
 20
54.250254
 30
0.0
 10
13.749816
 20
52.910509
 30
0.0
 10
14.464562
 20
51.672534
 30
0.0
 10
15.624814
 20
51.002662
 30
0.0
  0
SPLINE
  5
132
100
AcDbEntity
  8
Layer_1
 62
7
100
AcDbSpline
 70
8
 71
3
 72
8
 73
4
 74
0
 40
0
 40
0
 40
0
 40
0
 40
1
 40
1
 40
1
 40
1
 10
15.624814
 20
51.002662
 30
0.0
 10
16.785067
 20
50.332790
 30
0.0
 10
18.214557
 20
50.332790
 30
0.0
 10
19.374810
 20
51.002662
 30
0.0
  0
SPLINE
  5
133
100
AcDbEntity
  8
Layer_1
 62
7
100
AcDbSpline
 70
8
 71
3
 72
8
 73
4
 74
0
 40
0
 40
0
 40
0
 40
0
 40
1
 40
1
 40
1
 40
1
 10
19.374810
 20
51.002662
 30
0.0
 10
20.535063
 20
51.672534
 30
0.0
 10
21.249808
 20
52.910509
 30
0.0
 10
21.249808
 20
54.250254
 30
0.0
  0
LINE
  5
134
100
AcDbEntity
  8
Layer_1
 62
7
100
AcDbLine
 10
21.249808
 20
54.250254
 30
0.0
 11
21.249808
 21
54.250254
 31
0.0
  0
SPLINE
  5
135
100
AcDbEntity
  8
Layer_1
 62
7
100
AcDbSpline
 70
8
 71
3
 72
8
 73
4
 74
0
 40
0
 40
0
 40
0
 40
0
 40
1
 40
1
 40
1
 40
1
 10
19.049811
 20
22.250294
 30
0.0
 10
19.049811
 20
22.804056
 30
0.0
 10
18.754383
 20
23.315752
 30
0.0
 10
18.274812
 20
23.592633
 30
0.0
  0
SPLINE
  5
136
100
AcDbEntity
  8
Layer_1
 62
7
100
AcDbSpline
 70
8
 71
3
 72
8
 73
4
 74
0
 40
0
 40
0
 40
0
 40
0
 40
1
 40
1
 40
1
 40
1
 10
18.274812
 20
23.592633
 30
0.0
 10
17.795240
 20
23.869513
 30
0.0
 10
17.204384
 20
23.869513
 30
0.0
 10
16.724813
 20
23.592633
 30
0.0
  0
SPLINE
  5
137
100
AcDbEntity
  8
Layer_1
 62
7
100
AcDbSpline
 70
8
 71
3
 72
8
 73
4
 74
0
 40
0
 40
0
 40
0
 40
0
 40
1
 40
1
 40
1
 40
1
 10
16.724813
 20
23.592633
 30
0.0
 10
16.245242
 20
23.315752
 30
0.0
 10
15.949814
 20
22.804056
 30
0.0
 10
15.949814
 20
22.250294
 30
0.0
  0
SPLINE
  5
138
100
AcDbEntity
  8
Layer_1
 62
7
100
AcDbSpline
 70
8
 71
3
 72
8
 73
4
 74
0
 40
0
 40
0
 40
0
 40
0
 40
1
 40
1
 40
1
 40
1
 10
15.949814
 20
22.250294
 30
0.0
 10
15.949814
 20
21.696533
 30
0.0
 10
16.245242
 20
21.184837
 30
0.0
 10
16.724813
 20
20.907956
 30
0.0
  0
SPLINE
  5
139
100
AcDbEntity
  8
Layer_1
 62
7
100
AcDbSpline
 70
8
 71
3
 72
8
 73
4
 74
0
 40
0
 40
0
 40
0
 40
0
 40
1
 40
1
 40
1
 40
1
 10
16.724813
 20
20.907956
 30
0.0
 10
17.204384
 20
20.631075
 30
0.0
 10
17.795240
 20
20.631075
 30
0.0
 10
18.274812
 20
20.907956
 30
0.0
  0
SPLINE
  5
13a
100
AcDbEntity
  8
Layer_1
 62
7
100
AcDbSpline
 70
8
 71
3
 72
8
 73
4
 74
0
 40
0
 40
0
 40
0
 40
0
 40
1
 40
1
 40
1
 40
1
 10
18.274812
 20
20.907956
 30
0.0
 10
18.754383
 20
21.184837
 30
0.0
 10
19.049811
 20
21.696533
 30
0.0
 10
19.049811
 20
22.250294
 30
0.0
  0
LINE
  5
13b
100
AcDbEntity
  8
Layer_1
 62
7
100
AcDbLine
 10
19.049811
 20
22.250294
 30
0.0
 11
19.049811
 21
22.250294
 31
0.0
  0
SPLINE
  5
13c
100
AcDbEntity
  8
Layer_1
 62
7
100
AcDbSpline
 70
8
 71
3
 72
8
 73
4
 74
0
 40
0
 40
0
 40
0
 40
0
 40
1
 40
1
 40
1
 40
1
 10
32.249793
 20
104.250191
 30
0.0
 10
32.250280
 20
105.500943
 30
0.0
 10
31.583291
 20
106.656894
 30
0.0
 10
30.500189
 20
107.282410
 30
0.0
  0
SPLINE
  5
13d
100
AcDbEntity
  8
Layer_1
 62
7
100
AcDbSpline
 70
8
 71
3
 72
8
 73
4
 74
0
 40
0
 40
0
 40
0
 40
0
 40
1
 40
1
 40
1
 40
1
 10
30.500189
 20
107.282410
 30
0.0
 10
29.417087
 20
107.907927
 30
0.0
 10
28.082510
 20
107.907927
 30
0.0
 10
26.999407
 20
107.282410
 30
0.0
  0
SPLINE
  5
13e
100
AcDbEntity
  8
Layer_1
 62
7
100
AcDbSpline
 70
8
 71
3
 72
8
 73
4
 74
0
 40
0
 40
0
 40
0
 40
0
 40
1
 40
1
 40
1
 40
1
 10
26.999407
 20
107.282410
 30
0.0
 10
25.916305
 20
106.656894
 30
0.0
 10
25.249317
 20
105.500943
 30
0.0
 10
25.249803
 20
104.250191
 30
0.0
  0
SPLINE
  5
13f
100
AcDbEntity
  8
Layer_1
 62
7
100
AcDbSpline
 70
8
 71
3
 72
8
 73
4
 74
0
 40
0
 40
0
 40
0
 40
0
 40
1
 40
1
 40
1
 40
1
 10
25.249803
 20
104.250191
 30
0.0
 10
25.249115
 20
102.999305
 30
0.0
 10
25.916060
 20
101.843144
 30
0.0
 10
26.999245
 20
101.217502
 30
0.0
  0
SPLINE
  5
140
100
AcDbEntity
  8
Layer_1
 62
7
100
AcDbSpline
 70
8
 71
3
 72
8
 73
4
 74
0
 40
0
 40
0
 40
0
 40
0
 40
1
 40
1
 40
1
 40
1
 10
26.999245
 20
101.217502
 30
0.0
 10
28.082429
 20
100.591860
 30
0.0
 10
29.417167
 20
100.591860
 30
0.0
 10
30.500351
 20
101.217502
 30
0.0
  0
SPLINE
  5
141
100
AcDbEntity
  8
Layer_1
 62
7
100
AcDbSpline
 70
8
 71
3
 72
8
 73
4
 74
0
 40
0
 40
0
 40
0
 40
0
 40
1
 40
1
 40
1
 40
1
 10
30.500351
 20
101.217502
 30
0.0
 10
31.583536
 20
101.843144
 30
0.0
 10
32.250481
 20
102.999305
 30
0.0
 10
32.249793
 20
104.250191
 30
0.0
  0
LINE
  5
142
100
AcDbEntity
  8
Layer_1
 62
7
100
AcDbLine
 10
32.249793
 20
104.250191
 30
0.0
 11
32.249793
 21
104.250191
 31
0.0
  0
SPLINE
  5
143
100
AcDbEntity
  8
Layer_1
 62
7
100
AcDbSpline
 70
8
 71
3
 72
8
 73
4
 74
0
 40
0
 40
0
 40
0
 40
0
 40
1
 40
1
 40
1
 40
1
 10
28.899799
 20
127.050163
 30
0.0
 10
28.346038
 20
127.050163
 30
0.0
 10
27.834342
 20
126.754735
 30
0.0
 10
27.557461
 20
126.275164
 30
0.0
  0
SPLINE
  5
144
100
AcDbEntity
  8
Layer_1
 62
7
100
AcDbSpline
 70
8
 71
3
 72
8
 73
4
 74
0
 40
0
 40
0
 40
0
 40
0
 40
1
 40
1
 40
1
 40
1
 10
27.557461
 20
126.275164
 30
0.0
 10
27.280581
 20
125.795592
 30
0.0
 10
27.280581
 20
125.204736
 30
0.0
 10
27.557461
 20
124.725165
 30
0.0
  0
SPLINE
  5
145
100
AcDbEntity
  8
Layer_1
 62
7
100
AcDbSpline
 70
8
 71
3
 72
8
 73
4
 74
0
 40
0
 40
0
 40
0
 40
0
 40
1
 40
1
 40
1
 40
1
 10
27.557461
 20
124.725165
 30
0.0
 10
27.834342
 20
124.245594
 30
0.0
 10
28.346038
 20
123.950166
 30
0.0
 10
28.899799
 20
123.950166
 30
0.0
  0
LINE
  5
146
100
AcDbEntity
  8
Layer_1
 62
7
100
AcDbLine
 10
28.899799
 20
123.950166
 30
0.0
 11
31.999794
 21
123.950166
 31
0.0
  0
SPLINE
  5
147
100
AcDbEntity
  8
Layer_1
 62
7
100
AcDbSpline
 70
8
 71
3
 72
8
 73
4
 74
0
 40
0
 40
0
 40
0
 40
0
 40
1
 40
1
 40
1
 40
1
 10
31.999794
 20
123.950166
 30
0.0
 10
32.553555
 20
123.950166
 30
0.0
 10
33.065252
 20
124.245594
 30
0.0
 10
33.342132
 20
124.725165
 30
0.0
  0
SPLINE
  5
148
100
AcDbEntity
  8
Layer_1
 62
7
100
AcDbSpline
 70
8
 71
3
 72
8
 73
4
 74
0
 40
0
 40
0
 40
0
 40
0
 40
1
 40
1
 40
1
 40
1
 10
33.342132
 20
124.725165
 30
0.0
 10
33.619013
 20
125.204736
 30
0.0
 10
33.619013
 20
125.795592
 30
0.0
 10
33.342132
 20
126.275164
 30
0.0
  0
SPLINE
  5
149
100
AcDbEntity
  8
Layer_1
 62
7
100
AcDbSpline
 70
8
 71
3
 72
8
 73
4
 74
0
 40
0
 40
0
 40
0
 40
0
 40
1
 40
1
 40
1
 40
1
 10
33.342132
 20
126.275164
 30
0.0
 10
33.065252
 20
126.754735
 30
0.0
 10
32.553555
 20
127.050163
 30
0.0
 10
31.999794
 20
127.050163
 30
0.0
  0
LINE
  5
14a
100
AcDbEntity
  8
Layer_1
 62
7
100
AcDbLine
 10
28.899799
 20
127.050163
 30
0.0
 11
31.999794
 21
127.050163
 31
0.0
  0
SPLINE
  5
14b
100
AcDbEntity
  8
Layer_1
 62
7
100
AcDbSpline
 70
8
 71
3
 72
8
 73
4
 74
0
 40
0
 40
0
 40
0
 40
0
 40
1
 40
1
 40
1
 40
1
 10
31.099796
 20
35.250279
 30
0.0
 10
31.099796
 20
36.590023
 30
0.0
 10
30.385051
 20
37.827998
 30
0.0
 10
29.224799
 20
38.497870
 30
0.0
  0
SPLINE
  5
14c
100
AcDbEntity
  8
Layer_1
 62
7
100
AcDbSpline
 70
8
 71
3
 72
8
 73
4
 74
0
 40
0
 40
0
 40
0
 40
0
 40
1
 40
1
 40
1
 40
1
 10
29.224799
 20
38.497870
 30
0.0
 10
28.064546
 20
39.167742
 30
0.0
 10
26.635056
 20
39.167742
 30
0.0
 10
25.474803
 20
38.497870
 30
0.0
  0
SPLINE
  5
14d
100
AcDbEntity
  8
Layer_1
 62
7
100
AcDbSpline
 70
8
 71
3
 72
8
 73
4
 74
0
 40
0
 40
0
 40
0
 40
0
 40
1
 40
1
 40
1
 40
1
 10
25.474803
 20
38.497870
 30
0.0
 10
24.314550
 20
37.827998
 30
0.0
 10
23.599805
 20
36.590023
 30
0.0
 10
23.599805
 20
35.250279
 30
0.0
  0
SPLINE
  5
14e
100
AcDbEntity
  8
Layer_1
 62
7
100
AcDbSpline
 70
8
 71
3
 72
8
 73
4
 74
0
 40
0
 40
0
 40
0
 40
0
 40
1
 40
1
 40
1
 40
1
 10
23.599805
 20
35.250279
 30
0.0
 10
23.599805
 20
33.910534
 30
0.0
 10
24.314550
 20
32.672559
 30
0.0
 10
25.474803
 20
32.002687
 30
0.0
  0
SPLINE
  5
14f
100
AcDbEntity
  8
Layer_1
 62
7
100
AcDbSpline
 70
8
 71
3
 72
8
 73
4
 74
0
 40
0
 40
0
 40
0
 40
0
 40
1
 40
1
 40
1
 40
1
 10
25.474803
 20
32.002687
 30
0.0
 10
26.635056
 20
31.332815
 30
0.0
 10
28.064546
 20
31.332815
 30
0.0
 10
29.224799
 20
32.002687
 30
0.0
  0
SPLINE
  5
150
100
AcDbEntity
  8
Layer_1
 62
7
100
AcDbSpline
 70
8
 71
3
 72
8
 73
4
 74
0
 40
0
 40
0
 40
0
 40
0
 40
1
 40
1
 40
1
 40
1
 10
29.224799
 20
32.002687
 30
0.0
 10
30.385051
 20
32.672559
 30
0.0
 10
31.099796
 20
33.910534
 30
0.0
 10
31.099796
 20
35.250279
 30
0.0
  0
LINE
  5
151
100
AcDbEntity
  8
Layer_1
 62
7
100
AcDbLine
 10
31.099796
 20
35.250279
 30
0.0
 11
31.099796
 21
35.250279
 31
0.0
  0
SPLINE
  5
152
100
AcDbEntity
  8
Layer_1
 62
7
100
AcDbSpline
 70
8
 71
3
 72
8
 73
4
 74
0
 40
0
 40
0
 40
0
 40
0
 40
1
 40
1
 40
1
 40
1
 10
30.489798
 20
22.067296
 30
0.0
 10
30.489798
 20
23.174818
 30
0.0
 10
29.898942
 20
24.198211
 30
0.0
 10
28.939799
 20
24.751972
 30
0.0
  0
SPLINE
  5
153
100
AcDbEntity
  8
Layer_1
 62
7
100
AcDbSpline
 70
8
 71
3
 72
8
 73
4
 74
0
 40
0
 40
0
 40
0
 40
0
 40
1
 40
1
 40
1
 40
1
 10
28.939799
 20
24.751972
 30
0.0
 10
27.980657
 20
25.305733
 30
0.0
 10
26.798944
 20
25.305733
 30
0.0
 10
25.839802
 20
24.751972
 30
0.0
  0
SPLINE
  5
154
100
AcDbEntity
  8
Layer_1
 62
7
100
AcDbSpline
 70
8
 71
3
 72
8
 73
4
 74
0
 40
0
 40
0
 40
0
 40
0
 40
1
 40
1
 40
1
 40
1
 10
25.839802
 20
24.751972
 30
0.0
 10
24.880659
 20
24.198211
 30
0.0
 10
24.289803
 20
23.174818
 30
0.0
 10
24.289803
 20
22.067296
 30
0.0
  0
SPLINE
  5
155
100
AcDbEntity
  8
Layer_1
 62
7
100
AcDbSpline
 70
8
 71
3
 72
8
 73
4
 74
0
 40
0
 40
0
 40
0
 40
0
 40
1
 40
1
 40
1
 40
1
 10
24.289803
 20
22.067296
 30
0.0
 10
24.289803
 20
20.959773
 30
0.0
 10
24.880659
 20
19.936380
 30
0.0
 10
25.839802
 20
19.382619
 30
0.0
  0
SPLINE
  5
156
100
AcDbEntity
  8
Layer_1
 62
7
100
AcDbSpline
 70
8
 71
3
 72
8
 73
4
 74
0
 40
0
 40
0
 40
0
 40
0
 40
1
 40
1
 40
1
 40
1
 10
25.839802
 20
19.382619
 30
0.0
 10
26.798944
 20
18.828858
 30
0.0
 10
27.980657
 20
18.828858
 30
0.0
 10
28.939799
 20
19.382619
 30
0.0
  0
SPLINE
  5
157
100
AcDbEntity
  8
Layer_1
 62
7
100
AcDbSpline
 70
8
 71
3
 72
8
 73
4
 74
0
 40
0
 40
0
 40
0
 40
0
 40
1
 40
1
 40
1
 40
1
 10
28.939799
 20
19.382619
 30
0.0
 10
29.898942
 20
19.936380
 30
0.0
 10
30.489798
 20
20.959773
 30
0.0
 10
30.489798
 20
22.067296
 30
0.0
  0
LINE
  5
158
100
AcDbEntity
  8
Layer_1
 62
7
100
AcDbLine
 10
30.489798
 20
22.067296
 30
0.0
 11
30.489798
 21
22.067296
 31
0.0
  0
SPLINE
  5
159
100
AcDbEntity
  8
Layer_1
 62
7
100
AcDbSpline
 70
8
 71
3
 72
8
 73
4
 74
0
 40
0
 40
0
 40
0
 40
0
 40
1
 40
1
 40
1
 40
1
 10
28.899799
 20
4.550316
 30
0.0
 10
28.044372
 20
4.549450
 30
0.0
 10
27.351370
 20
3.855747
 30
0.0
 10
27.351370
 20
3.000319
 30
0.0
  0
SPLINE
  5
15a
100
AcDbEntity
  8
Layer_1
 62
7
100
AcDbSpline
 70
8
 71
3
 72
8
 73
4
 74
0
 40
0
 40
0
 40
0
 40
0
 40
1
 40
1
 40
1
 40
1
 10
27.351370
 20
3.000319
 30
0.0
 10
27.351370
 20
2.144891
 30
0.0
 10
28.044372
 20
1.451187
 30
0.0
 10
28.899799
 20
1.450322
 30
0.0
  0
LINE
  5
15b
100
AcDbEntity
  8
Layer_1
 62
7
100
AcDbLine
 10
28.899799
 20
1.450322
 30
0.0
 11
31.999794
 21
1.450322
 31
0.0
  0
SPLINE
  5
15c
100
AcDbEntity
  8
Layer_1
 62
7
100
AcDbSpline
 70
8
 71
3
 72
8
 73
4
 74
0
 40
0
 40
0
 40
0
 40
0
 40
1
 40
1
 40
1
 40
1
 10
31.999794
 20
1.450322
 30
0.0
 10
32.855221
 20
1.451187
 30
0.0
 10
33.548224
 20
2.144891
 30
0.0
 10
33.548224
 20
3.000319
 30
0.0
  0
SPLINE
  5
15d
100
AcDbEntity
  8
Layer_1
 62
7
100
AcDbSpline
 70
8
 71
3
 72
8
 73
4
 74
0
 40
0
 40
0
 40
0
 40
0
 40
1
 40
1
 40
1
 40
1
 10
33.548224
 20
3.000319
 30
0.0
 10
33.548224
 20
3.855747
 30
0.0
 10
32.855221
 20
4.549450
 30
0.0
 10
31.999794
 20
4.550316
 30
0.0
  0
LINE
  5
15e
100
AcDbEntity
  8
Layer_1
 62
7
100
AcDbLine
 10
28.899799
 20
4.550316
 30
0.0
 11
31.999794
 21
4.550316
 31
0.0
  0
LINE
  5
15f
100
AcDbEntity
  8
text_and_logo
 62
7
100
AcDbLine
 10
14.853201
 20
7.817070
 30
0.0
 11
15.074174
 21
7.706586
 31
0.0
  0
LINE
  5
160
100
AcDbEntity
  8
text_and_logo
 62
7
100
AcDbLine
 10
15.074174
 20
7.706586
 30
0.0
 11
15.147831
 21
7.596101
 31
0.0
  0
LINE
  5
161
100
AcDbEntity
  8
text_and_logo
 62
7
100
AcDbLine
 10
15.147831
 20
7.596101
 30
0.0
 11
15.221489
 21
7.375133
 31
0.0
  0
LINE
  5
162
100
AcDbEntity
  8
text_and_logo
 62
7
100
AcDbLine
 10
15.221489
 20
7.375133
 30
0.0
 11
15.221489
 21
7.043680
 31
0.0
  0
LINE
  5
163
100
AcDbEntity
  8
text_and_logo
 62
7
100
AcDbLine
 10
15.221489
 20
7.043680
 30
0.0
 11
15.147831
 21
6.822711
 31
0.0
  0
LINE
  5
164
100
AcDbEntity
  8
text_and_logo
 62
7
100
AcDbLine
 10
15.147831
 20
6.822711
 30
0.0
 11
15.074174
 21
6.712228
 31
0.0
  0
LINE
  5
165
100
AcDbEntity
  8
text_and_logo
 62
7
100
AcDbLine
 10
15.074174
 20
6.712228
 30
0.0
 11
14.926858
 21
6.601743
 31
0.0
  0
LINE
  5
166
100
AcDbEntity
  8
text_and_logo
 62
7
100
AcDbLine
 10
14.926858
 20
6.601743
 30
0.0
 11
14.337613
 21
6.601743
 31
0.0
  0
LINE
  5
167
100
AcDbEntity
  8
text_and_logo
 62
7
100
AcDbLine
 10
14.337613
 20
6.601743
 30
0.0
 11
14.337613
 21
8.921913
 31
0.0
  0
LINE
  5
168
100
AcDbEntity
  8
text_and_logo
 62
7
100
AcDbLine
 10
14.337613
 20
8.921913
 30
0.0
 11
14.853201
 21
8.921913
 31
0.0
  0
LINE
  5
169
100
AcDbEntity
  8
text_and_logo
 62
7
100
AcDbLine
 10
14.853201
 20
8.921913
 30
0.0
 11
15.000516
 21
8.811428
 31
0.0
  0
LINE
  5
16a
100
AcDbEntity
  8
text_and_logo
 62
7
100
AcDbLine
 10
15.000516
 20
8.811428
 30
0.0
 11
15.074174
 21
8.700945
 31
0.0
  0
LINE
  5
16b
100
AcDbEntity
  8
text_and_logo
 62
7
100
AcDbLine
 10
15.074174
 20
8.700945
 30
0.0
 11
15.147831
 21
8.479976
 31
0.0
  0
LINE
  5
16c
100
AcDbEntity
  8
text_and_logo
 62
7
100
AcDbLine
 10
15.147831
 20
8.479976
 30
0.0
 11
15.147831
 21
8.259008
 31
0.0
  0
LINE
  5
16d
100
AcDbEntity
  8
text_and_logo
 62
7
100
AcDbLine
 10
15.147831
 20
8.259008
 30
0.0
 11
15.074174
 21
8.038038
 31
0.0
  0
LINE
  5
16e
100
AcDbEntity
  8
text_and_logo
 62
7
100
AcDbLine
 10
15.074174
 20
8.038038
 30
0.0
 11
15.000516
 21
7.927555
 31
0.0
  0
LINE
  5
16f
100
AcDbEntity
  8
text_and_logo
 62
7
100
AcDbLine
 10
15.000516
 20
7.927555
 30
0.0
 11
14.853201
 21
7.817070
 31
0.0
  0
LINE
  5
170
100
AcDbEntity
  8
text_and_logo
 62
7
100
AcDbLine
 10
14.853201
 20
7.817070
 30
0.0
 11
14.337613
 21
7.817070
 31
0.0
  0
LINE
  5
171
100
AcDbEntity
  8
text_and_logo
 62
7
100
AcDbLine
 10
16.620954
 20
6.601743
 30
0.0
 11
15.884393
 21
6.601743
 31
0.0
  0
LINE
  5
172
100
AcDbEntity
  8
text_and_logo
 62
7
100
AcDbLine
 10
15.884393
 20
6.601743
 30
0.0
 11
15.884393
 21
8.921913
 31
0.0
  0
LINE
  5
173
100
AcDbEntity
  8
text_and_logo
 62
7
100
AcDbLine
 10
17.136557
 20
7.817070
 30
0.0
 11
17.652145
 21
7.817070
 31
0.0
  0
LINE
  5
174
100
AcDbEntity
  8
text_and_logo
 62
7
100
AcDbLine
 10
17.873118
 20
6.601743
 30
0.0
 11
17.136557
 21
6.601743
 31
0.0
  0
LINE
  5
175
100
AcDbEntity
  8
text_and_logo
 62
7
100
AcDbLine
 10
17.136557
 20
6.601743
 30
0.0
 11
17.136557
 21
8.921913
 31
0.0
  0
LINE
  5
176
100
AcDbEntity
  8
text_and_logo
 62
7
100
AcDbLine
 10
17.136557
 20
8.921913
 30
0.0
 11
17.873118
 21
8.921913
 31
0.0
  0
LINE
  5
177
100
AcDbEntity
  8
text_and_logo
 62
7
100
AcDbLine
 10
18.536022
 20
7.817070
 30
0.0
 11
19.051610
 21
7.817070
 31
0.0
  0
LINE
  5
178
100
AcDbEntity
  8
text_and_logo
 62
7
100
AcDbLine
 10
19.272583
 20
6.601743
 30
0.0
 11
18.536022
 21
6.601743
 31
0.0
  0
LINE
  5
179
100
AcDbEntity
  8
text_and_logo
 62
7
100
AcDbLine
 10
18.536022
 20
6.601743
 30
0.0
 11
18.536022
 21
8.921913
 31
0.0
  0
LINE
  5
17a
100
AcDbEntity
  8
text_and_logo
 62
7
100
AcDbLine
 10
18.536022
 20
8.921913
 30
0.0
 11
19.272583
 21
8.921913
 31
0.0
  0
LINE
  5
17b
100
AcDbEntity
  8
text_and_logo
 62
7
100
AcDbLine
 10
19.935487
 20
6.601743
 30
0.0
 11
19.935487
 21
8.921913
 31
0.0
  0
LINE
  5
17c
100
AcDbEntity
  8
text_and_logo
 62
7
100
AcDbLine
 10
19.935487
 20
8.921913
 30
0.0
 11
20.524733
 21
8.921913
 31
0.0
  0
LINE
  5
17d
100
AcDbEntity
  8
text_and_logo
 62
7
100
AcDbLine
 10
20.524733
 20
8.921913
 30
0.0
 11
20.672048
 21
8.811428
 31
0.0
  0
LINE
  5
17e
100
AcDbEntity
  8
text_and_logo
 62
7
100
AcDbLine
 10
20.672048
 20
8.811428
 30
0.0
 11
20.745705
 21
8.700945
 31
0.0
  0
LINE
  5
17f
100
AcDbEntity
  8
text_and_logo
 62
7
100
AcDbLine
 10
20.745705
 20
8.700945
 30
0.0
 11
20.819363
 21
8.479976
 31
0.0
  0
LINE
  5
180
100
AcDbEntity
  8
text_and_logo
 62
7
100
AcDbLine
 10
20.819363
 20
8.479976
 30
0.0
 11
20.819363
 21
8.148523
 31
0.0
  0
LINE
  5
181
100
AcDbEntity
  8
text_and_logo
 62
7
100
AcDbLine
 10
20.819363
 20
8.148523
 30
0.0
 11
20.745705
 21
7.927555
 31
0.0
  0
LINE
  5
182
100
AcDbEntity
  8
text_and_logo
 62
7
100
AcDbLine
 10
20.745705
 20
7.927555
 30
0.0
 11
20.672048
 21
7.817070
 31
0.0
  0
LINE
  5
183
100
AcDbEntity
  8
text_and_logo
 62
7
100
AcDbLine
 10
20.672048
 20
7.817070
 30
0.0
 11
20.524733
 21
7.706586
 31
0.0
  0
LINE
  5
184
100
AcDbEntity
  8
text_and_logo
 62
7
100
AcDbLine
 10
20.524733
 20
7.706586
 30
0.0
 11
19.935487
 21
7.706586
 31
0.0
  0
LINE
  5
185
100
AcDbEntity
  8
text_and_logo
 62
7
100
AcDbLine
 10
14.632243
 20
4.878188
 30
0.0
 11
14.853201
 21
4.767704
 31
0.0
  0
LINE
  5
186
100
AcDbEntity
  8
text_and_logo
 62
7
100
AcDbLine
 10
14.853201
 20
4.767704
 30
0.0
 11
14.926858
 21
4.657219
 31
0.0
  0
LINE
  5
187
100
AcDbEntity
  8
text_and_logo
 62
7
100
AcDbLine
 10
14.926858
 20
4.657219
 30
0.0
 11
15.000516
 21
4.436251
 31
0.0
  0
LINE
  5
188
100
AcDbEntity
  8
text_and_logo
 62
7
100
AcDbLine
 10
15.000516
 20
4.436251
 30
0.0
 11
15.000516
 21
4.104798
 31
0.0
  0
LINE
  5
189
100
AcDbEntity
  8
text_and_logo
 62
7
100
AcDbLine
 10
15.000516
 20
4.104798
 30
0.0
 11
14.926858
 21
3.883829
 31
0.0
  0
LINE
  5
18a
100
AcDbEntity
  8
text_and_logo
 62
7
100
AcDbLine
 10
14.926858
 20
3.883829
 30
0.0
 11
14.853201
 21
3.773346
 31
0.0
  0
LINE
  5
18b
100
AcDbEntity
  8
text_and_logo
 62
7
100
AcDbLine
 10
14.853201
 20
3.773346
 30
0.0
 11
14.705901
 21
3.662861
 31
0.0
  0
LINE
  5
18c
100
AcDbEntity
  8
text_and_logo
 62
7
100
AcDbLine
 10
14.705901
 20
3.662861
 30
0.0
 11
14.116640
 21
3.662861
 31
0.0
  0
LINE
  5
18d
100
AcDbEntity
  8
text_and_logo
 62
7
100
AcDbLine
 10
14.116640
 20
3.662861
 30
0.0
 11
14.116640
 21
5.983031
 31
0.0
  0
LINE
  5
18e
100
AcDbEntity
  8
text_and_logo
 62
7
100
AcDbLine
 10
14.116640
 20
5.983031
 30
0.0
 11
14.632243
 21
5.983031
 31
0.0
  0
LINE
  5
18f
100
AcDbEntity
  8
text_and_logo
 62
7
100
AcDbLine
 10
14.632243
 20
5.983031
 30
0.0
 11
14.779558
 21
5.872546
 31
0.0
  0
LINE
  5
190
100
AcDbEntity
  8
text_and_logo
 62
7
100
AcDbLine
 10
14.779558
 20
5.872546
 30
0.0
 11
14.853201
 21
5.762063
 31
0.0
  0
LINE
  5
191
100
AcDbEntity
  8
text_and_logo
 62
7
100
AcDbLine
 10
14.853201
 20
5.762063
 30
0.0
 11
14.926858
 21
5.541094
 31
0.0
  0
LINE
  5
192
100
AcDbEntity
  8
text_and_logo
 62
7
100
AcDbLine
 10
14.926858
 20
5.541094
 30
0.0
 11
14.926858
 21
5.320126
 31
0.0
  0
LINE
  5
193
100
AcDbEntity
  8
text_and_logo
 62
7
100
AcDbLine
 10
14.926858
 20
5.320126
 30
0.0
 11
14.853201
 21
5.099156
 31
0.0
  0
LINE
  5
194
100
AcDbEntity
  8
text_and_logo
 62
7
100
AcDbLine
 10
14.853201
 20
5.099156
 30
0.0
 11
14.779558
 21
4.988673
 31
0.0
  0
LINE
  5
195
100
AcDbEntity
  8
text_and_logo
 62
7
100
AcDbLine
 10
14.779558
 20
4.988673
 30
0.0
 11
14.632243
 21
4.878188
 31
0.0
  0
LINE
  5
196
100
AcDbEntity
  8
text_and_logo
 62
7
100
AcDbLine
 10
14.632243
 20
4.878188
 30
0.0
 11
14.116640
 21
4.878188
 31
0.0
  0
LINE
  5
197
100
AcDbEntity
  8
text_and_logo
 62
7
100
AcDbLine
 10
16.399981
 20
3.662861
 30
0.0
 11
15.663420
 21
3.662861
 31
0.0
  0
LINE
  5
198
100
AcDbEntity
  8
text_and_logo
 62
7
100
AcDbLine
 10
15.663420
 20
3.662861
 30
0.0
 11
15.663420
 21
5.983031
 31
0.0
  0
LINE
  5
199
100
AcDbEntity
  8
text_and_logo
 62
7
100
AcDbLine
 10
17.210200
 20
5.983031
 30
0.0
 11
17.504830
 21
5.983031
 31
0.0
  0
LINE
  5
19a
100
AcDbEntity
  8
text_and_logo
 62
7
100
AcDbLine
 10
17.504830
 20
5.983031
 30
0.0
 11
17.652145
 21
5.872546
 31
0.0
  0
LINE
  5
19b
100
AcDbEntity
  8
text_and_logo
 62
7
100
AcDbLine
 10
17.652145
 20
5.872546
 30
0.0
 11
17.799461
 21
5.651578
 31
0.0
  0
LINE
  5
19c
100
AcDbEntity
  8
text_and_logo
 62
7
100
AcDbLine
 10
17.799461
 20
5.651578
 30
0.0
 11
17.873118
 21
5.209641
 31
0.0
  0
LINE
  5
19d
100
AcDbEntity
  8
text_and_logo
 62
7
100
AcDbLine
 10
17.873118
 20
5.209641
 30
0.0
 11
17.873118
 21
4.436251
 31
0.0
  0
LINE
  5
19e
100
AcDbEntity
  8
text_and_logo
 62
7
100
AcDbLine
 10
17.873118
 20
4.436251
 30
0.0
 11
17.799461
 21
3.994314
 31
0.0
  0
LINE
  5
19f
100
AcDbEntity
  8
text_and_logo
 62
7
100
AcDbLine
 10
17.799461
 20
3.994314
 30
0.0
 11
17.652145
 21
3.773346
 31
0.0
  0
LINE
  5
1a0
100
AcDbEntity
  8
text_and_logo
 62
7
100
AcDbLine
 10
17.652145
 20
3.773346
 30
0.0
 11
17.504830
 21
3.662861
 31
0.0
  0
LINE
  5
1a1
100
AcDbEntity
  8
text_and_logo
 62
7
100
AcDbLine
 10
17.504830
 20
3.662861
 30
0.0
 11
17.210200
 21
3.662861
 31
0.0
  0
LINE
  5
1a2
100
AcDbEntity
  8
text_and_logo
 62
7
100
AcDbLine
 10
17.210200
 20
3.662861
 30
0.0
 11
17.062900
 21
3.773346
 31
0.0
  0
LINE
  5
1a3
100
AcDbEntity
  8
text_and_logo
 62
7
100
AcDbLine
 10
17.062900
 20
3.773346
 30
0.0
 11
16.915584
 21
3.994314
 31
0.0
  0
LINE
  5
1a4
100
AcDbEntity
  8
text_and_logo
 62
7
100
AcDbLine
 10
16.915584
 20
3.994314
 30
0.0
 11
16.841927
 21
4.436251
 31
0.0
  0
LINE
  5
1a5
100
AcDbEntity
  8
text_and_logo
 62
7
100
AcDbLine
 10
16.841927
 20
4.436251
 30
0.0
 11
16.841927
 21
5.209641
 31
0.0
  0
LINE
  5
1a6
100
AcDbEntity
  8
text_and_logo
 62
7
100
AcDbLine
 10
16.841927
 20
5.209641
 30
0.0
 11
16.915584
 21
5.651578
 31
0.0
  0
LINE
  5
1a7
100
AcDbEntity
  8
text_and_logo
 62
7
100
AcDbLine
 10
16.915584
 20
5.651578
 30
0.0
 11
17.062900
 21
5.872546
 31
0.0
  0
LINE
  5
1a8
100
AcDbEntity
  8
text_and_logo
 62
7
100
AcDbLine
 10
17.062900
 20
5.872546
 30
0.0
 11
17.210200
 21
5.983031
 31
0.0
  0
LINE
  5
1a9
100
AcDbEntity
  8
text_and_logo
 62
7
100
AcDbLine
 10
18.830637
 20
5.983031
 30
0.0
 11
19.125268
 21
5.983031
 31
0.0
  0
LINE
  5
1aa
100
AcDbEntity
  8
text_and_logo
 62
7
100
AcDbLine
 10
19.125268
 20
5.983031
 30
0.0
 11
19.272583
 21
5.872546
 31
0.0
  0
LINE
  5
1ab
100
AcDbEntity
  8
text_and_logo
 62
7
100
AcDbLine
 10
19.272583
 20
5.872546
 30
0.0
 11
19.419898
 21
5.651578
 31
0.0
  0
LINE
  5
1ac
100
AcDbEntity
  8
text_and_logo
 62
7
100
AcDbLine
 10
19.419898
 20
5.651578
 30
0.0
 11
19.493541
 21
5.209641
 31
0.0
  0
LINE
  5
1ad
100
AcDbEntity
  8
text_and_logo
 62
7
100
AcDbLine
 10
19.493541
 20
5.209641
 30
0.0
 11
19.493541
 21
4.436251
 31
0.0
  0
LINE
  5
1ae
100
AcDbEntity
  8
text_and_logo
 62
7
100
AcDbLine
 10
19.493541
 20
4.436251
 30
0.0
 11
19.419898
 21
3.994314
 31
0.0
  0
LINE
  5
1af
100
AcDbEntity
  8
text_and_logo
 62
7
100
AcDbLine
 10
19.419898
 20
3.994314
 30
0.0
 11
19.272583
 21
3.773346
 31
0.0
  0
LINE
  5
1b0
100
AcDbEntity
  8
text_and_logo
 62
7
100
AcDbLine
 10
19.272583
 20
3.773346
 30
0.0
 11
19.125268
 21
3.662861
 31
0.0
  0
LINE
  5
1b1
100
AcDbEntity
  8
text_and_logo
 62
7
100
AcDbLine
 10
19.125268
 20
3.662861
 30
0.0
 11
18.830637
 21
3.662861
 31
0.0
  0
LINE
  5
1b2
100
AcDbEntity
  8
text_and_logo
 62
7
100
AcDbLine
 10
18.830637
 20
3.662861
 30
0.0
 11
18.683337
 21
3.773346
 31
0.0
  0
LINE
  5
1b3
100
AcDbEntity
  8
text_and_logo
 62
7
100
AcDbLine
 10
18.683337
 20
3.773346
 30
0.0
 11
18.536022
 21
3.994314
 31
0.0
  0
LINE
  5
1b4
100
AcDbEntity
  8
text_and_logo
 62
7
100
AcDbLine
 10
18.536022
 20
3.994314
 30
0.0
 11
18.462364
 21
4.436251
 31
0.0
  0
LINE
  5
1b5
100
AcDbEntity
  8
text_and_logo
 62
7
100
AcDbLine
 10
18.462364
 20
4.436251
 30
0.0
 11
18.462364
 21
5.209641
 31
0.0
  0
LINE
  5
1b6
100
AcDbEntity
  8
text_and_logo
 62
7
100
AcDbLine
 10
18.462364
 20
5.209641
 30
0.0
 11
18.536022
 21
5.651578
 31
0.0
  0
LINE
  5
1b7
100
AcDbEntity
  8
text_and_logo
 62
7
100
AcDbLine
 10
18.536022
 20
5.651578
 30
0.0
 11
18.683337
 21
5.872546
 31
0.0
  0
LINE
  5
1b8
100
AcDbEntity
  8
text_and_logo
 62
7
100
AcDbLine
 10
18.683337
 20
5.872546
 30
0.0
 11
18.830637
 21
5.983031
 31
0.0
  0
LINE
  5
1b9
100
AcDbEntity
  8
text_and_logo
 62
7
100
AcDbLine
 10
20.156460
 20
3.662861
 30
0.0
 11
20.156460
 21
5.983031
 31
0.0
  0
LINE
  5
1ba
100
AcDbEntity
  8
text_and_logo
 62
7
100
AcDbLine
 10
20.156460
 20
5.983031
 30
0.0
 11
20.745705
 21
5.983031
 31
0.0
  0
LINE
  5
1bb
100
AcDbEntity
  8
text_and_logo
 62
7
100
AcDbLine
 10
20.745705
 20
5.983031
 30
0.0
 11
20.893021
 21
5.872546
 31
0.0
  0
LINE
  5
1bc
100
AcDbEntity
  8
text_and_logo
 62
7
100
AcDbLine
 10
20.893021
 20
5.872546
 30
0.0
 11
20.966678
 21
5.762063
 31
0.0
  0
LINE
  5
1bd
100
AcDbEntity
  8
text_and_logo
 62
7
100
AcDbLine
 10
20.966678
 20
5.762063
 30
0.0
 11
21.040321
 21
5.541094
 31
0.0
  0
LINE
  5
1be
100
AcDbEntity
  8
text_and_logo
 62
7
100
AcDbLine
 10
21.040321
 20
5.541094
 30
0.0
 11
21.040321
 21
5.209641
 31
0.0
  0
LINE
  5
1bf
100
AcDbEntity
  8
text_and_logo
 62
7
100
AcDbLine
 10
21.040321
 20
5.209641
 30
0.0
 11
20.966678
 21
4.988673
 31
0.0
  0
LINE
  5
1c0
100
AcDbEntity
  8
text_and_logo
 62
7
100
AcDbLine
 10
20.966678
 20
4.988673
 30
0.0
 11
20.893021
 21
4.878188
 31
0.0
  0
LINE
  5
1c1
100
AcDbEntity
  8
text_and_logo
 62
7
100
AcDbLine
 10
20.893021
 20
4.878188
 30
0.0
 11
20.745705
 21
4.767704
 31
0.0
  0
LINE
  5
1c2
100
AcDbEntity
  8
text_and_logo
 62
7
100
AcDbLine
 10
20.745705
 20
4.767704
 30
0.0
 11
20.156460
 21
4.767704
 31
0.0
  0
LINE
  5
1c3
100
AcDbEntity
  8
text_and_logo
 62
7
100
AcDbLine
 10
13.041612
 20
9.147373
 30
0.0
 11
13.558298
 21
9.479889
 31
0.0
  0
LINE
  5
1c4
100
AcDbEntity
  8
text_and_logo
 62
7
100
AcDbLine
 10
12.628003
 20
4.168941
 30
0.0
 11
12.591437
 21
4.686528
 31
0.0
  0
LINE
  5
1c5
100
AcDbEntity
  8
text_and_logo
 62
7
100
AcDbLine
 10
12.587477
 20
3.049532
 30
0.0
 11
12.883964
 21
3.687148
 31
0.0
  0
LINE
  5
1c6
100
AcDbEntity
  8
text_and_logo
 62
7
100
AcDbLine
 10
22.295826
 20
4.016377
 30
0.0
 11
21.963300
 21
3.499697
 31
0.0
  0
LINE
  5
1c7
100
AcDbEntity
  8
text_and_logo
 62
7
100
AcDbLine
 10
12.591437
 20
7.960543
 30
0.0
 11
12.709101
 21
8.630693
 31
0.0
  0
LINE
  5
1c8
100
AcDbEntity
  8
text_and_logo
 62
7
100
AcDbLine
 10
21.963300
 20
9.147373
 30
0.0
 11
22.295826
 21
8.630693
 31
0.0
  0
LINE
  5
1c9
100
AcDbEntity
  8
text_and_logo
 62
7
100
AcDbLine
 10
21.446629
 20
9.479892
 30
0.0
 11
21.963300
 21
9.147373
 31
0.0
  0
LINE
  5
1ca
100
AcDbEntity
  8
text_and_logo
 62
7
100
AcDbLine
 10
22.413490
 20
7.960546
 30
0.0
 11
22.413475
 21
4.686528
 31
0.0
  0
LINE
  5
1cb
100
AcDbEntity
  8
text_and_logo
 62
7
100
AcDbLine
 10
12.709101
 20
8.630693
 30
0.0
 11
13.041612
 21
9.147373
 31
0.0
  0
LINE
  5
1cc
100
AcDbEntity
  8
text_and_logo
 62
7
100
AcDbLine
 10
13.716951
 20
3.084368
 30
0.0
 11
13.248911
 21
3.328316
 31
0.0
  0
LINE
  5
1cd
100
AcDbEntity
  8
text_and_logo
 62
7
100
AcDbLine
 10
13.248911
 20
3.328316
 30
0.0
 11
12.587477
 21
3.049532
 31
0.0
  0
LINE
  5
1ce
100
AcDbEntity
  8
text_and_logo
 62
7
100
AcDbLine
 10
14.228441
 20
9.597549
 30
0.0
 11
20.776471
 21
9.597554
 31
0.0
  0
LINE
  5
1cf
100
AcDbEntity
  8
text_and_logo
 62
7
100
AcDbLine
 10
20.776471
 20
9.597554
 30
0.0
 11
21.446629
 21
9.479892
 31
0.0
  0
LINE
  5
1d0
100
AcDbEntity
  8
text_and_logo
 62
7
100
AcDbLine
 10
21.446629
 20
3.167180
 30
0.0
 11
20.776471
 21
3.049519
 31
0.0
  0
LINE
  5
1d1
100
AcDbEntity
  8
text_and_logo
 62
7
100
AcDbLine
 10
22.413475
 20
4.686528
 30
0.0
 11
22.295826
 21
4.016377
 31
0.0
  0
LINE
  5
1d2
100
AcDbEntity
  8
text_and_logo
 62
7
100
AcDbLine
 10
20.776471
 20
3.049519
 30
0.0
 11
14.228441
 21
3.049519
 31
0.0
  0
LINE
  5
1d3
100
AcDbEntity
  8
text_and_logo
 62
7
100
AcDbLine
 10
14.228441
 20
3.049519
 30
0.0
 11
13.716951
 21
3.084368
 31
0.0
  0
LINE
  5
1d4
100
AcDbEntity
  8
text_and_logo
 62
7
100
AcDbLine
 10
21.963300
 20
3.499697
 30
0.0
 11
21.446629
 21
3.167180
 31
0.0
  0
LINE
  5
1d5
100
AcDbEntity
  8
text_and_logo
 62
7
100
AcDbLine
 10
12.883964
 20
3.687148
 30
0.0
 11
12.628003
 21
4.168941
 31
0.0
  0
LINE
  5
1d6
100
AcDbEntity
  8
text_and_logo
 62
7
100
AcDbLine
 10
13.558298
 20
9.479889
 30
0.0
 11
14.228441
 21
9.597549
 31
0.0
  0
LINE
  5
1d7
100
AcDbEntity
  8
text_and_logo
 62
7
100
AcDbLine
 10
22.295826
 20
8.630693
 30
0.0
 11
22.413490
 21
7.960546
 31
0.0
  0
LINE
  5
1d8
100
AcDbEntity
  8
text_and_logo
 62
7
100
AcDbLine
 10
12.591437
 20
4.686528
 30
0.0
 11
12.591437
 21
7.960543
 31
0.0
  0
LINE
  5
1d9
100
AcDbEntity
  8
text_and_logo
 62
7
100
AcDbLine
 10
8.880848
 20
125.346618
 30
0.0
 11
8.880848
 21
123.264548
 31
0.0
  0
LINE
  5
1da
100
AcDbEntity
  8
text_and_logo
 62
7
100
AcDbLine
 10
8.880848
 20
125.346618
 30
0.0
 11
9.682108
 21
125.346618
 31
0.0
  0
LINE
  5
1db
100
AcDbEntity
  8
text_and_logo
 62
7
100
AcDbLine
 10
9.682108
 20
125.346618
 30
0.0
 11
9.947314
 21
125.245974
 31
0.0
  0
LINE
  5
1dc
100
AcDbEntity
  8
text_and_logo
 62
7
100
AcDbLine
 10
9.947314
 20
125.245974
 30
0.0
 11
10.037597
 21
125.145330
 31
0.0
  0
LINE
  5
1dd
100
AcDbEntity
  8
text_and_logo
 62
7
100
AcDbLine
 10
10.037597
 20
125.145330
 30
0.0
 11
10.127880
 21
124.950333
 31
0.0
  0
LINE
  5
1de
100
AcDbEntity
  8
text_and_logo
 62
7
100
AcDbLine
 10
10.127880
 20
124.950333
 30
0.0
 11
10.127880
 21
124.749045
 31
0.0
  0
LINE
  5
1df
100
AcDbEntity
  8
text_and_logo
 62
7
100
AcDbLine
 10
10.127880
 20
124.749045
 30
0.0
 11
10.037597
 21
124.554048
 31
0.0
  0
LINE
  5
1e0
100
AcDbEntity
  8
text_and_logo
 62
7
100
AcDbLine
 10
10.037597
 20
124.554048
 30
0.0
 11
9.947314
 21
124.453404
 31
0.0
  0
LINE
  5
1e1
100
AcDbEntity
  8
text_and_logo
 62
7
100
AcDbLine
 10
9.947314
 20
124.453404
 30
0.0
 11
9.682108
 21
124.352760
 31
0.0
  0
LINE
  5
1e2
100
AcDbEntity
  8
text_and_logo
 62
7
100
AcDbLine
 10
9.682108
 20
124.352760
 30
0.0
 11
8.880848
 21
124.352760
 31
0.0
  0
LINE
  5
1e3
100
AcDbEntity
  8
text_and_logo
 62
7
100
AcDbLine
 10
9.504364
 20
124.352760
 30
0.0
 11
10.127880
 21
123.264548
 31
0.0
  0
LINE
  5
1e4
100
AcDbEntity
  8
text_and_logo
 62
7
100
AcDbLine
 10
11.104066
 20
124.651546
 30
0.0
 11
10.929143
 21
124.554048
 31
0.0
  0
LINE
  5
1e5
100
AcDbEntity
  8
text_and_logo
 62
7
100
AcDbLine
 10
10.929143
 20
124.554048
 30
0.0
 11
10.748578
 21
124.352760
 31
0.0
  0
LINE
  5
1e6
100
AcDbEntity
  8
text_and_logo
 62
7
100
AcDbLine
 10
10.748578
 20
124.352760
 30
0.0
 11
10.661116
 21
124.057119
 31
0.0
  0
LINE
  5
1e7
100
AcDbEntity
  8
text_and_logo
 62
7
100
AcDbLine
 10
10.661116
 20
124.057119
 30
0.0
 11
10.661116
 21
123.858976
 31
0.0
  0
LINE
  5
1e8
100
AcDbEntity
  8
text_and_logo
 62
7
100
AcDbLine
 10
10.661116
 20
123.858976
 30
0.0
 11
10.748578
 21
123.561762
 31
0.0
  0
LINE
  5
1e9
100
AcDbEntity
  8
text_and_logo
 62
7
100
AcDbLine
 10
10.748578
 20
123.561762
 30
0.0
 11
10.929143
 21
123.363619
 31
0.0
  0
LINE
  5
1ea
100
AcDbEntity
  8
text_and_logo
 62
7
100
AcDbLine
 10
10.929143
 20
123.363619
 30
0.0
 11
11.104066
 21
123.264548
 31
0.0
  0
LINE
  5
1eb
100
AcDbEntity
  8
text_and_logo
 62
7
100
AcDbLine
 10
11.104066
 20
123.264548
 30
0.0
 11
11.372094
 21
123.264548
 31
0.0
  0
LINE
  5
1ec
100
AcDbEntity
  8
text_and_logo
 62
7
100
AcDbLine
 10
11.372094
 20
123.264548
 30
0.0
 11
11.549838
 21
123.363619
 31
0.0
  0
LINE
  5
1ed
100
AcDbEntity
  8
text_and_logo
 62
7
100
AcDbLine
 10
11.549838
 20
123.363619
 30
0.0
 11
11.727582
 21
123.561762
 31
0.0
  0
LINE
  5
1ee
100
AcDbEntity
  8
text_and_logo
 62
7
100
AcDbLine
 10
11.727582
 20
123.561762
 30
0.0
 11
11.815044
 21
123.858976
 31
0.0
  0
LINE
  5
1ef
100
AcDbEntity
  8
text_and_logo
 62
7
100
AcDbLine
 10
11.815044
 20
123.858976
 30
0.0
 11
11.815044
 21
124.057119
 31
0.0
  0
LINE
  5
1f0
100
AcDbEntity
  8
text_and_logo
 62
7
100
AcDbLine
 10
11.815044
 20
124.057119
 30
0.0
 11
11.727582
 21
124.352760
 31
0.0
  0
LINE
  5
1f1
100
AcDbEntity
  8
text_and_logo
 62
7
100
AcDbLine
 10
11.727582
 20
124.352760
 30
0.0
 11
11.549838
 21
124.554048
 31
0.0
  0
LINE
  5
1f2
100
AcDbEntity
  8
text_and_logo
 62
7
100
AcDbLine
 10
11.549838
 20
124.554048
 30
0.0
 11
11.372094
 21
124.651546
 31
0.0
  0
LINE
  5
1f3
100
AcDbEntity
  8
text_and_logo
 62
7
100
AcDbLine
 10
11.372094
 20
124.651546
 30
0.0
 11
11.104066
 21
124.651546
 31
0.0
  0
LINE
  5
1f4
100
AcDbEntity
  8
text_and_logo
 62
7
100
AcDbLine
 10
12.435734
 20
125.346618
 30
0.0
 11
12.435734
 21
123.264548
 31
0.0
  0
LINE
  5
1f5
100
AcDbEntity
  8
text_and_logo
 62
7
100
AcDbLine
 10
12.435734
 20
124.352760
 30
0.0
 11
12.616300
 21
124.554048
 31
0.0
  0
LINE
  5
1f6
100
AcDbEntity
  8
text_and_logo
 62
7
100
AcDbLine
 10
12.616300
 20
124.554048
 30
0.0
 11
12.791223
 21
124.651546
 31
0.0
  0
LINE
  5
1f7
100
AcDbEntity
  8
text_and_logo
 62
7
100
AcDbLine
 10
12.791223
 20
124.651546
 30
0.0
 11
13.059250
 21
124.651546
 31
0.0
  0
LINE
  5
1f8
100
AcDbEntity
  8
text_and_logo
 62
7
100
AcDbLine
 10
13.059250
 20
124.651546
 30
0.0
 11
13.236995
 21
124.554048
 31
0.0
  0
LINE
  5
1f9
100
AcDbEntity
  8
text_and_logo
 62
7
100
AcDbLine
 10
13.236995
 20
124.554048
 30
0.0
 11
13.414739
 21
124.352760
 31
0.0
  0
LINE
  5
1fa
100
AcDbEntity
  8
text_and_logo
 62
7
100
AcDbLine
 10
13.414739
 20
124.352760
 30
0.0
 11
13.502200
 21
124.057119
 31
0.0
  0
LINE
  5
1fb
100
AcDbEntity
  8
text_and_logo
 62
7
100
AcDbLine
 10
13.502200
 20
124.057119
 30
0.0
 11
13.502200
 21
123.858976
 31
0.0
  0
LINE
  5
1fc
100
AcDbEntity
  8
text_and_logo
 62
7
100
AcDbLine
 10
13.502200
 20
123.858976
 30
0.0
 11
13.414739
 21
123.561762
 31
0.0
  0
LINE
  5
1fd
100
AcDbEntity
  8
text_and_logo
 62
7
100
AcDbLine
 10
13.414739
 20
123.561762
 30
0.0
 11
13.236995
 21
123.363619
 31
0.0
  0
LINE
  5
1fe
100
AcDbEntity
  8
text_and_logo
 62
7
100
AcDbLine
 10
13.236995
 20
123.363619
 30
0.0
 11
13.059250
 21
123.264548
 31
0.0
  0
LINE
  5
1ff
100
AcDbEntity
  8
text_and_logo
 62
7
100
AcDbLine
 10
13.059250
 20
123.264548
 30
0.0
 11
12.791223
 21
123.264548
 31
0.0
  0
LINE
  5
200
100
AcDbEntity
  8
text_and_logo
 62
7
100
AcDbLine
 10
12.791223
 20
123.264548
 30
0.0
 11
12.616300
 21
123.363619
 31
0.0
  0
LINE
  5
201
100
AcDbEntity
  8
text_and_logo
 62
7
100
AcDbLine
 10
12.616300
 20
123.363619
 30
0.0
 11
12.435734
 21
123.561762
 31
0.0
  0
LINE
  5
202
100
AcDbEntity
  8
text_and_logo
 62
7
100
AcDbLine
 10
14.478380
 20
124.651546
 30
0.0
 11
14.303457
 21
124.554048
 31
0.0
  0
LINE
  5
203
100
AcDbEntity
  8
text_and_logo
 62
7
100
AcDbLine
 10
14.303457
 20
124.554048
 30
0.0
 11
14.122891
 21
124.352760
 31
0.0
  0
LINE
  5
204
100
AcDbEntity
  8
text_and_logo
 62
7
100
AcDbLine
 10
14.122891
 20
124.352760
 30
0.0
 11
14.035430
 21
124.057119
 31
0.0
  0
LINE
  5
205
100
AcDbEntity
  8
text_and_logo
 62
7
100
AcDbLine
 10
14.035430
 20
124.057119
 30
0.0
 11
14.035430
 21
123.858976
 31
0.0
  0
LINE
  5
206
100
AcDbEntity
  8
text_and_logo
 62
7
100
AcDbLine
 10
14.035430
 20
123.858976
 30
0.0
 11
14.122891
 21
123.561762
 31
0.0
  0
LINE
  5
207
100
AcDbEntity
  8
text_and_logo
 62
7
100
AcDbLine
 10
14.122891
 20
123.561762
 30
0.0
 11
14.303457
 21
123.363619
 31
0.0
  0
LINE
  5
208
100
AcDbEntity
  8
text_and_logo
 62
7
100
AcDbLine
 10
14.303457
 20
123.363619
 30
0.0
 11
14.478380
 21
123.264548
 31
0.0
  0
LINE
  5
209
100
AcDbEntity
  8
text_and_logo
 62
7
100
AcDbLine
 10
14.478380
 20
123.264548
 30
0.0
 11
14.746407
 21
123.264548
 31
0.0
  0
LINE
  5
20a
100
AcDbEntity
  8
text_and_logo
 62
7
100
AcDbLine
 10
14.746407
 20
123.264548
 30
0.0
 11
14.924151
 21
123.363619
 31
0.0
  0
LINE
  5
20b
100
AcDbEntity
  8
text_and_logo
 62
7
100
AcDbLine
 10
14.924151
 20
123.363619
 30
0.0
 11
15.101896
 21
123.561762
 31
0.0
  0
LINE
  5
20c
100
AcDbEntity
  8
text_and_logo
 62
7
100
AcDbLine
 10
15.101896
 20
123.561762
 30
0.0
 11
15.189357
 21
123.858976
 31
0.0
  0
LINE
  5
20d
100
AcDbEntity
  8
text_and_logo
 62
7
100
AcDbLine
 10
15.189357
 20
123.858976
 30
0.0
 11
15.189357
 21
124.057119
 31
0.0
  0
LINE
  5
20e
100
AcDbEntity
  8
text_and_logo
 62
7
100
AcDbLine
 10
15.189357
 20
124.057119
 30
0.0
 11
15.101896
 21
124.352760
 31
0.0
  0
LINE
  5
20f
100
AcDbEntity
  8
text_and_logo
 62
7
100
AcDbLine
 10
15.101896
 20
124.352760
 30
0.0
 11
14.924151
 21
124.554048
 31
0.0
  0
LINE
  5
210
100
AcDbEntity
  8
text_and_logo
 62
7
100
AcDbLine
 10
14.924151
 20
124.554048
 30
0.0
 11
14.746407
 21
124.651546
 31
0.0
  0
LINE
  5
211
100
AcDbEntity
  8
text_and_logo
 62
7
100
AcDbLine
 10
14.746407
 20
124.651546
 30
0.0
 11
14.478380
 21
124.651546
 31
0.0
  0
LINE
  5
212
100
AcDbEntity
  8
text_and_logo
 62
7
100
AcDbLine
 10
15.900341
 20
125.346618
 30
0.0
 11
15.900341
 21
123.660833
 31
0.0
  0
LINE
  5
213
100
AcDbEntity
  8
text_and_logo
 62
7
100
AcDbLine
 10
15.900341
 20
123.660833
 30
0.0
 11
15.990623
 21
123.363619
 31
0.0
  0
LINE
  5
214
100
AcDbEntity
  8
text_and_logo
 62
7
100
AcDbLine
 10
15.990623
 20
123.363619
 30
0.0
 11
16.165546
 21
123.264548
 31
0.0
  0
LINE
  5
215
100
AcDbEntity
  8
text_and_logo
 62
7
100
AcDbLine
 10
16.165546
 20
123.264548
 30
0.0
 11
16.346112
 21
123.264548
 31
0.0
  0
LINE
  5
216
100
AcDbEntity
  8
text_and_logo
 62
7
100
AcDbLine
 10
15.635135
 20
124.651546
 30
0.0
 11
16.255829
 21
124.651546
 31
0.0
  0
LINE
  5
217
100
AcDbEntity
  8
text_and_logo
 62
7
100
AcDbLine
 10
16.876521
 20
125.346618
 30
0.0
 11
16.876521
 21
123.264548
 31
0.0
  0
LINE
  5
218
100
AcDbEntity
  8
text_and_logo
 62
7
100
AcDbLine
 10
16.876521
 20
125.346618
 30
0.0
 11
17.500036
 21
125.346618
 31
0.0
  0
LINE
  5
219
100
AcDbEntity
  8
text_and_logo
 62
7
100
AcDbLine
 10
17.500036
 20
125.346618
 30
0.0
 11
17.768064
 21
125.245974
 31
0.0
  0
LINE
  5
21a
100
AcDbEntity
  8
text_and_logo
 62
7
100
AcDbLine
 10
17.768064
 20
125.245974
 30
0.0
 11
17.942987
 21
125.047832
 31
0.0
  0
LINE
  5
21b
100
AcDbEntity
  8
text_and_logo
 62
7
100
AcDbLine
 10
17.942987
 20
125.047832
 30
0.0
 11
18.033269
 21
124.849689
 31
0.0
  0
LINE
  5
21c
100
AcDbEntity
  8
text_and_logo
 62
7
100
AcDbLine
 10
18.033269
 20
124.849689
 30
0.0
 11
18.123552
 21
124.554048
 31
0.0
  0
LINE
  5
21d
100
AcDbEntity
  8
text_and_logo
 62
7
100
AcDbLine
 10
18.123552
 20
124.554048
 30
0.0
 11
18.123552
 21
124.057119
 31
0.0
  0
LINE
  5
21e
100
AcDbEntity
  8
text_and_logo
 62
7
100
AcDbLine
 10
18.123552
 20
124.057119
 30
0.0
 11
18.033269
 21
123.761477
 31
0.0
  0
LINE
  5
21f
100
AcDbEntity
  8
text_and_logo
 62
7
100
AcDbLine
 10
18.033269
 20
123.761477
 30
0.0
 11
17.942987
 21
123.561762
 31
0.0
  0
LINE
  5
220
100
AcDbEntity
  8
text_and_logo
 62
7
100
AcDbLine
 10
17.942987
 20
123.561762
 30
0.0
 11
17.768064
 21
123.363619
 31
0.0
  0
LINE
  5
221
100
AcDbEntity
  8
text_and_logo
 62
7
100
AcDbLine
 10
17.768064
 20
123.363619
 30
0.0
 11
17.500036
 21
123.264548
 31
0.0
  0
LINE
  5
222
100
AcDbEntity
  8
text_and_logo
 62
7
100
AcDbLine
 10
17.500036
 20
123.264548
 30
0.0
 11
16.876521
 21
123.264548
 31
0.0
  0
LINE
  5
223
100
AcDbEntity
  8
text_and_logo
 62
7
100
AcDbLine
 10
18.656789
 20
125.346618
 30
0.0
 11
18.744250
 21
125.245974
 31
0.0
  0
LINE
  5
224
100
AcDbEntity
  8
text_and_logo
 62
7
100
AcDbLine
 10
18.744250
 20
125.245974
 30
0.0
 11
18.834533
 21
125.346618
 31
0.0
  0
LINE
  5
225
100
AcDbEntity
  8
text_and_logo
 62
7
100
AcDbLine
 10
18.834533
 20
125.346618
 30
0.0
 11
18.744250
 21
125.444117
 31
0.0
  0
LINE
  5
226
100
AcDbEntity
  8
text_and_logo
 62
7
100
AcDbLine
 10
18.744250
 20
125.444117
 30
0.0
 11
18.656789
 21
125.346618
 31
0.0
  0
LINE
  5
227
100
AcDbEntity
  8
text_and_logo
 62
7
100
AcDbLine
 10
18.744250
 20
124.651546
 30
0.0
 11
18.744250
 21
123.264548
 31
0.0
  0
LINE
  5
228
100
AcDbEntity
  8
text_and_logo
 62
7
100
AcDbLine
 10
20.434210
 20
124.651546
 30
0.0
 11
20.434210
 21
123.264548
 31
0.0
  0
LINE
  5
229
100
AcDbEntity
  8
text_and_logo
 62
7
100
AcDbLine
 10
20.434210
 20
124.352760
 30
0.0
 11
20.256466
 21
124.554048
 31
0.0
  0
LINE
  5
22a
100
AcDbEntity
  8
text_and_logo
 62
7
100
AcDbLine
 10
20.256466
 20
124.554048
 30
0.0
 11
20.078721
 21
124.651546
 31
0.0
  0
LINE
  5
22b
100
AcDbEntity
  8
text_and_logo
 62
7
100
AcDbLine
 10
20.078721
 20
124.651546
 30
0.0
 11
19.810694
 21
124.651546
 31
0.0
  0
LINE
  5
22c
100
AcDbEntity
  8
text_and_logo
 62
7
100
AcDbLine
 10
19.810694
 20
124.651546
 30
0.0
 11
19.635771
 21
124.554048
 31
0.0
  0
LINE
  5
22d
100
AcDbEntity
  8
text_and_logo
 62
7
100
AcDbLine
 10
19.635771
 20
124.554048
 30
0.0
 11
19.455206
 21
124.352760
 31
0.0
  0
LINE
  5
22e
100
AcDbEntity
  8
text_and_logo
 62
7
100
AcDbLine
 10
19.455206
 20
124.352760
 30
0.0
 11
19.367744
 21
124.057119
 31
0.0
  0
LINE
  5
22f
100
AcDbEntity
  8
text_and_logo
 62
7
100
AcDbLine
 10
19.367744
 20
124.057119
 30
0.0
 11
19.367744
 21
123.858976
 31
0.0
  0
LINE
  5
230
100
AcDbEntity
  8
text_and_logo
 62
7
100
AcDbLine
 10
19.367744
 20
123.858976
 30
0.0
 11
19.455206
 21
123.561762
 31
0.0
  0
LINE
  5
231
100
AcDbEntity
  8
text_and_logo
 62
7
100
AcDbLine
 10
19.455206
 20
123.561762
 30
0.0
 11
19.635771
 21
123.363619
 31
0.0
  0
LINE
  5
232
100
AcDbEntity
  8
text_and_logo
 62
7
100
AcDbLine
 10
19.635771
 20
123.363619
 30
0.0
 11
19.810694
 21
123.264548
 31
0.0
  0
LINE
  5
233
100
AcDbEntity
  8
text_and_logo
 62
7
100
AcDbLine
 10
19.810694
 20
123.264548
 30
0.0
 11
20.078721
 21
123.264548
 31
0.0
  0
LINE
  5
234
100
AcDbEntity
  8
text_and_logo
 62
7
100
AcDbLine
 10
20.078721
 20
123.264548
 30
0.0
 11
20.256466
 21
123.363619
 31
0.0
  0
LINE
  5
235
100
AcDbEntity
  8
text_and_logo
 62
7
100
AcDbLine
 10
20.256466
 20
123.363619
 30
0.0
 11
20.434210
 21
123.561762
 31
0.0
  0
LINE
  5
236
100
AcDbEntity
  8
text_and_logo
 62
7
100
AcDbLine
 10
21.142372
 20
125.346618
 30
0.0
 11
21.142372
 21
123.264548
 31
0.0
  0
LINE
  5
237
100
AcDbEntity
  8
text_and_logo
 62
7
100
AcDbLine
 10
22.208836
 20
124.651546
 30
0.0
 11
22.033913
 21
124.554048
 31
0.0
  0
LINE
  5
238
100
AcDbEntity
  8
text_and_logo
 62
7
100
AcDbLine
 10
22.033913
 20
124.554048
 30
0.0
 11
21.853348
 21
124.352760
 31
0.0
  0
LINE
  5
239
100
AcDbEntity
  8
text_and_logo
 62
7
100
AcDbLine
 10
21.853348
 20
124.352760
 30
0.0
 11
21.765886
 21
124.057119
 31
0.0
  0
LINE
  5
23a
100
AcDbEntity
  8
text_and_logo
 62
7
100
AcDbLine
 10
21.765886
 20
124.057119
 30
0.0
 11
21.765886
 21
123.858976
 31
0.0
  0
LINE
  5
23b
100
AcDbEntity
  8
text_and_logo
 62
7
100
AcDbLine
 10
21.765886
 20
123.858976
 30
0.0
 11
21.853348
 21
123.561762
 31
0.0
  0
LINE
  5
23c
100
AcDbEntity
  8
text_and_logo
 62
7
100
AcDbLine
 10
21.853348
 20
123.561762
 30
0.0
 11
22.033913
 21
123.363619
 31
0.0
  0
LINE
  5
23d
100
AcDbEntity
  8
text_and_logo
 62
7
100
AcDbLine
 10
22.033913
 20
123.363619
 30
0.0
 11
22.208836
 21
123.264548
 31
0.0
  0
LINE
  5
23e
100
AcDbEntity
  8
text_and_logo
 62
7
100
AcDbLine
 10
22.208836
 20
123.264548
 30
0.0
 11
22.476863
 21
123.264548
 31
0.0
  0
LINE
  5
23f
100
AcDbEntity
  8
text_and_logo
 62
7
100
AcDbLine
 10
22.476863
 20
123.264548
 30
0.0
 11
22.654608
 21
123.363619
 31
0.0
  0
LINE
  5
240
100
AcDbEntity
  8
text_and_logo
 62
7
100
AcDbLine
 10
22.654608
 20
123.363619
 30
0.0
 11
22.832352
 21
123.561762
 31
0.0
  0
LINE
  5
241
100
AcDbEntity
  8
text_and_logo
 62
7
100
AcDbLine
 10
22.832352
 20
123.561762
 30
0.0
 11
22.919813
 21
123.858976
 31
0.0
  0
LINE
  5
242
100
AcDbEntity
  8
text_and_logo
 62
7
100
AcDbLine
 10
22.919813
 20
123.858976
 30
0.0
 11
22.919813
 21
124.057119
 31
0.0
  0
LINE
  5
243
100
AcDbEntity
  8
text_and_logo
 62
7
100
AcDbLine
 10
22.919813
 20
124.057119
 30
0.0
 11
22.832352
 21
124.352760
 31
0.0
  0
LINE
  5
244
100
AcDbEntity
  8
text_and_logo
 62
7
100
AcDbLine
 10
22.832352
 20
124.352760
 30
0.0
 11
22.654608
 21
124.554048
 31
0.0
  0
LINE
  5
245
100
AcDbEntity
  8
text_and_logo
 62
7
100
AcDbLine
 10
22.654608
 20
124.554048
 30
0.0
 11
22.476863
 21
124.651546
 31
0.0
  0
LINE
  5
246
100
AcDbEntity
  8
text_and_logo
 62
7
100
AcDbLine
 10
22.476863
 20
124.651546
 30
0.0
 11
22.208836
 21
124.651546
 31
0.0
  0
LINE
  5
247
100
AcDbEntity
  8
text_and_logo
 62
7
100
AcDbLine
 10
24.519519
 20
124.651546
 30
0.0
 11
24.519519
 21
123.066405
 31
0.0
  0
LINE
  5
248
100
AcDbEntity
  8
text_and_logo
 62
7
100
AcDbLine
 10
24.519519
 20
123.066405
 30
0.0
 11
24.432057
 21
122.767619
 31
0.0
  0
LINE
  5
249
100
AcDbEntity
  8
text_and_logo
 62
7
100
AcDbLine
 10
24.432057
 20
122.767619
 30
0.0
 11
24.341774
 21
122.670120
 31
0.0
  0
LINE
  5
24a
100
AcDbEntity
  8
text_and_logo
 62
7
100
AcDbLine
 10
24.341774
 20
122.670120
 30
0.0
 11
24.164030
 21
122.572621
 31
0.0
  0
LINE
  5
24b
100
AcDbEntity
  8
text_and_logo
 62
7
100
AcDbLine
 10
24.164030
 20
122.572621
 30
0.0
 11
23.896003
 21
122.572621
 31
0.0
  0
LINE
  5
24c
100
AcDbEntity
  8
text_and_logo
 62
7
100
AcDbLine
 10
23.896003
 20
122.572621
 30
0.0
 11
23.721080
 21
122.670120
 31
0.0
  0
LINE
  5
24d
100
AcDbEntity
  8
text_and_logo
 62
7
100
AcDbLine
 10
24.519519
 20
124.352760
 30
0.0
 11
24.341774
 21
124.554048
 31
0.0
  0
LINE
  5
24e
100
AcDbEntity
  8
text_and_logo
 62
7
100
AcDbLine
 10
24.341774
 20
124.554048
 30
0.0
 11
24.164030
 21
124.651546
 31
0.0
  0
LINE
  5
24f
100
AcDbEntity
  8
text_and_logo
 62
7
100
AcDbLine
 10
24.164030
 20
124.651546
 30
0.0
 11
23.896003
 21
124.651546
 31
0.0
  0
LINE
  5
250
100
AcDbEntity
  8
text_and_logo
 62
7
100
AcDbLine
 10
23.896003
 20
124.651546
 30
0.0
 11
23.721080
 21
124.554048
 31
0.0
  0
LINE
  5
251
100
AcDbEntity
  8
text_and_logo
 62
7
100
AcDbLine
 10
23.721080
 20
124.554048
 30
0.0
 11
23.540514
 21
124.352760
 31
0.0
  0
LINE
  5
252
100
AcDbEntity
  8
text_and_logo
 62
7
100
AcDbLine
 10
23.540514
 20
124.352760
 30
0.0
 11
23.453053
 21
124.057119
 31
0.0
  0
LINE
  5
253
100
AcDbEntity
  8
text_and_logo
 62
7
100
AcDbLine
 10
23.453053
 20
124.057119
 30
0.0
 11
23.453053
 21
123.858976
 31
0.0
  0
LINE
  5
254
100
AcDbEntity
  8
text_and_logo
 62
7
100
AcDbLine
 10
23.453053
 20
123.858976
 30
0.0
 11
23.540514
 21
123.561762
 31
0.0
  0
LINE
  5
255
100
AcDbEntity
  8
text_and_logo
 62
7
100
AcDbLine
 10
23.540514
 20
123.561762
 30
0.0
 11
23.721080
 21
123.363619
 31
0.0
  0
LINE
  5
256
100
AcDbEntity
  8
text_and_logo
 62
7
100
AcDbLine
 10
23.721080
 20
123.363619
 30
0.0
 11
23.896003
 21
123.264548
 31
0.0
  0
LINE
  5
257
100
AcDbEntity
  8
text_and_logo
 62
7
100
AcDbLine
 10
23.896003
 20
123.264548
 30
0.0
 11
24.164030
 21
123.264548
 31
0.0
  0
LINE
  5
258
100
AcDbEntity
  8
text_and_logo
 62
7
100
AcDbLine
 10
24.164030
 20
123.264548
 30
0.0
 11
24.341774
 21
123.363619
 31
0.0
  0
LINE
  5
259
100
AcDbEntity
  8
text_and_logo
 62
7
100
AcDbLine
 10
24.341774
 20
123.363619
 30
0.0
 11
24.519519
 21
123.561762
 31
0.0
  0
LINE
  5
25a
100
AcDbEntity
  8
text_and_logo
 62
7
100
AcDbLine
 10
26.119224
 20
124.352760
 30
0.0
 11
26.028941
 21
124.554048
 31
0.0
  0
LINE
  5
25b
100
AcDbEntity
  8
text_and_logo
 62
7
100
AcDbLine
 10
26.028941
 20
124.554048
 30
0.0
 11
25.763735
 21
124.651546
 31
0.0
  0
LINE
  5
25c
100
AcDbEntity
  8
text_and_logo
 62
7
100
AcDbLine
 10
25.763735
 20
124.651546
 30
0.0
 11
25.495708
 21
124.651546
 31
0.0
  0
LINE
  5
25d
100
AcDbEntity
  8
text_and_logo
 62
7
100
AcDbLine
 10
25.495708
 20
124.651546
 30
0.0
 11
25.227681
 21
124.554048
 31
0.0
  0
LINE
  5
25e
100
AcDbEntity
  8
text_and_logo
 62
7
100
AcDbLine
 10
25.227681
 20
124.554048
 30
0.0
 11
25.140219
 21
124.352760
 31
0.0
  0
LINE
  5
25f
100
AcDbEntity
  8
text_and_logo
 62
7
100
AcDbLine
 10
25.140219
 20
124.352760
 30
0.0
 11
25.227681
 21
124.157762
 31
0.0
  0
LINE
  5
260
100
AcDbEntity
  8
text_and_logo
 62
7
100
AcDbLine
 10
25.227681
 20
124.157762
 30
0.0
 11
25.408247
 21
124.057119
 31
0.0
  0
LINE
  5
261
100
AcDbEntity
  8
text_and_logo
 62
7
100
AcDbLine
 10
25.408247
 20
124.057119
 30
0.0
 11
25.851197
 21
123.956475
 31
0.0
  0
LINE
  5
262
100
AcDbEntity
  8
text_and_logo
 62
7
100
AcDbLine
 10
25.851197
 20
123.956475
 30
0.0
 11
26.028941
 21
123.858976
 31
0.0
  0
LINE
  5
263
100
AcDbEntity
  8
text_and_logo
 62
7
100
AcDbLine
 10
26.028941
 20
123.858976
 30
0.0
 11
26.119224
 21
123.660833
 31
0.0
  0
LINE
  5
264
100
AcDbEntity
  8
text_and_logo
 62
7
100
AcDbLine
 10
26.119224
 20
123.660833
 30
0.0
 11
26.119224
 21
123.561762
 31
0.0
  0
LINE
  5
265
100
AcDbEntity
  8
text_and_logo
 62
7
100
AcDbLine
 10
26.119224
 20
123.561762
 30
0.0
 11
26.028941
 21
123.363619
 31
0.0
  0
LINE
  5
266
100
AcDbEntity
  8
text_and_logo
 62
7
100
AcDbLine
 10
26.028941
 20
123.363619
 30
0.0
 11
25.763735
 21
123.264548
 31
0.0
  0
LINE
  5
267
100
AcDbEntity
  8
text_and_logo
 62
7
100
AcDbLine
 10
25.763735
 20
123.264548
 30
0.0
 11
25.495708
 21
123.264548
 31
0.0
  0
LINE
  5
268
100
AcDbEntity
  8
text_and_logo
 62
7
100
AcDbLine
 10
25.495708
 20
123.264548
 30
0.0
 11
25.227681
 21
123.363619
 31
0.0
  0
LINE
  5
269
100
AcDbEntity
  8
text_and_logo
 62
7
100
AcDbLine
 10
25.227681
 20
123.363619
 30
0.0
 11
25.140219
 21
123.561762
 31
0.0
  0
LINE
  5
26a
100
AcDbEntity
  8
text_and_logo
 62
7
100
AcDbLine
 10
8.181925
 20
121.921177
 30
0.0
 11
8.181925
 21
119.548191
 31
0.0
  0
LINE
  5
26b
100
AcDbEntity
  8
text_and_logo
 62
7
100
AcDbLine
 10
8.181925
 20
119.548191
 30
0.0
 11
9.536892
 21
119.548191
 31
0.0
  0
LINE
  5
26c
100
AcDbEntity
  8
text_and_logo
 62
7
100
AcDbLine
 10
10.103261
 20
121.921177
 30
0.0
 11
10.103261
 21
119.548191
 31
0.0
  0
LINE
  5
26d
100
AcDbEntity
  8
text_and_logo
 62
7
100
AcDbLine
 10
10.103261
 20
121.921177
 30
0.0
 11
11.572935
 21
121.921177
 31
0.0
  0
LINE
  5
26e
100
AcDbEntity
  8
text_and_logo
 62
7
100
AcDbLine
 10
10.103261
 20
120.788453
 30
0.0
 11
11.006572
 21
120.788453
 31
0.0
  0
LINE
  5
26f
100
AcDbEntity
  8
text_and_logo
 62
7
100
AcDbLine
 10
12.702069
 20
121.921177
 30
0.0
 11
12.476241
 21
121.806471
 31
0.0
  0
LINE
  5
270
100
AcDbEntity
  8
text_and_logo
 62
7
100
AcDbLine
 10
12.476241
 20
121.806471
 30
0.0
 11
12.250413
 21
121.580643
 31
0.0
  0
LINE
  5
271
100
AcDbEntity
  8
text_and_logo
 62
7
100
AcDbLine
 10
12.250413
 20
121.580643
 30
0.0
 11
12.135707
 21
121.354815
 31
0.0
  0
LINE
  5
272
100
AcDbEntity
  8
text_and_logo
 62
7
100
AcDbLine
 10
12.135707
 20
121.354815
 30
0.0
 11
12.024585
 21
121.017865
 31
0.0
  0
LINE
  5
273
100
AcDbEntity
  8
text_and_logo
 62
7
100
AcDbLine
 10
12.024585
 20
121.017865
 30
0.0
 11
12.024585
 21
120.451503
 31
0.0
  0
LINE
  5
274
100
AcDbEntity
  8
text_and_logo
 62
7
100
AcDbLine
 10
12.024585
 20
120.451503
 30
0.0
 11
12.135707
 21
120.114554
 31
0.0
  0
LINE
  5
275
100
AcDbEntity
  8
text_and_logo
 62
7
100
AcDbLine
 10
12.135707
 20
120.114554
 30
0.0
 11
12.250413
 21
119.886933
 31
0.0
  0
LINE
  5
276
100
AcDbEntity
  8
text_and_logo
 62
7
100
AcDbLine
 10
12.250413
 20
119.886933
 30
0.0
 11
12.476241
 21
119.661105
 31
0.0
  0
LINE
  5
277
100
AcDbEntity
  8
text_and_logo
 62
7
100
AcDbLine
 10
12.476241
 20
119.661105
 30
0.0
 11
12.702069
 21
119.548191
 31
0.0
  0
LINE
  5
278
100
AcDbEntity
  8
text_and_logo
 62
7
100
AcDbLine
 10
12.702069
 20
119.548191
 30
0.0
 11
13.153725
 21
119.548191
 31
0.0
  0
LINE
  5
279
100
AcDbEntity
  8
text_and_logo
 62
7
100
AcDbLine
 10
13.153725
 20
119.548191
 30
0.0
 11
13.379553
 21
119.661105
 31
0.0
  0
LINE
  5
27a
100
AcDbEntity
  8
text_and_logo
 62
7
100
AcDbLine
 10
13.379553
 20
119.661105
 30
0.0
 11
13.605381
 21
119.886933
 31
0.0
  0
LINE
  5
27b
100
AcDbEntity
  8
text_and_logo
 62
7
100
AcDbLine
 10
13.605381
 20
119.886933
 30
0.0
 11
13.720087
 21
120.114554
 31
0.0
  0
LINE
  5
27c
100
AcDbEntity
  8
text_and_logo
 62
7
100
AcDbLine
 10
13.720087
 20
120.114554
 30
0.0
 11
13.831209
 21
120.451503
 31
0.0
  0
LINE
  5
27d
100
AcDbEntity
  8
text_and_logo
 62
7
100
AcDbLine
 10
13.831209
 20
120.451503
 30
0.0
 11
13.831209
 21
121.017865
 31
0.0
  0
LINE
  5
27e
100
AcDbEntity
  8
text_and_logo
 62
7
100
AcDbLine
 10
13.831209
 20
121.017865
 30
0.0
 11
13.720087
 21
121.354815
 31
0.0
  0
LINE
  5
27f
100
AcDbEntity
  8
text_and_logo
 62
7
100
AcDbLine
 10
13.720087
 20
121.354815
 30
0.0
 11
13.605381
 21
121.580643
 31
0.0
  0
LINE
  5
280
100
AcDbEntity
  8
text_and_logo
 62
7
100
AcDbLine
 10
13.605381
 20
121.580643
 30
0.0
 11
13.379553
 21
121.806471
 31
0.0
  0
LINE
  5
281
100
AcDbEntity
  8
text_and_logo
 62
7
100
AcDbLine
 10
13.379553
 20
121.806471
 30
0.0
 11
13.153725
 21
121.921177
 31
0.0
  0
LINE
  5
282
100
AcDbEntity
  8
text_and_logo
 62
7
100
AcDbLine
 10
13.153725
 20
121.921177
 30
0.0
 11
12.702069
 21
121.921177
 31
0.0
  0
LINE
  5
283
100
AcDbEntity
  8
text_and_logo
 62
7
100
AcDbLine
 10
17.444458
 20
121.580643
 30
0.0
 11
17.218630
 21
121.806471
 31
0.0
  0
LINE
  5
284
100
AcDbEntity
  8
text_and_logo
 62
7
100
AcDbLine
 10
17.218630
 20
121.806471
 30
0.0
 11
16.878096
 21
121.921177
 31
0.0
  0
LINE
  5
285
100
AcDbEntity
  8
text_and_logo
 62
7
100
AcDbLine
 10
16.878096
 20
121.921177
 30
0.0
 11
16.426440
 21
121.921177
 31
0.0
  0
LINE
  5
286
100
AcDbEntity
  8
text_and_logo
 62
7
100
AcDbLine
 10
16.426440
 20
121.921177
 30
0.0
 11
16.089490
 21
121.806471
 31
0.0
  0
LINE
  5
287
100
AcDbEntity
  8
text_and_logo
 62
7
100
AcDbLine
 10
16.089490
 20
121.806471
 30
0.0
 11
15.863662
 21
121.580643
 31
0.0
  0
LINE
  5
288
100
AcDbEntity
  8
text_and_logo
 62
7
100
AcDbLine
 10
15.863662
 20
121.580643
 30
0.0
 11
15.863662
 21
121.354815
 31
0.0
  0
LINE
  5
289
100
AcDbEntity
  8
text_and_logo
 62
7
100
AcDbLine
 10
15.863662
 20
121.354815
 30
0.0
 11
15.974784
 21
121.128987
 31
0.0
  0
LINE
  5
28a
100
AcDbEntity
  8
text_and_logo
 62
7
100
AcDbLine
 10
15.974784
 20
121.128987
 30
0.0
 11
16.089490
 21
121.017865
 31
0.0
  0
LINE
  5
28b
100
AcDbEntity
  8
text_and_logo
 62
7
100
AcDbLine
 10
16.089490
 20
121.017865
 30
0.0
 11
16.315318
 21
120.903159
 31
0.0
  0
LINE
  5
28c
100
AcDbEntity
  8
text_and_logo
 62
7
100
AcDbLine
 10
16.315318
 20
120.903159
 30
0.0
 11
16.992802
 21
120.677331
 31
0.0
  0
LINE
  5
28d
100
AcDbEntity
  8
text_and_logo
 62
7
100
AcDbLine
 10
16.992802
 20
120.677331
 30
0.0
 11
17.218630
 21
120.566209
 31
0.0
  0
LINE
  5
28e
100
AcDbEntity
  8
text_and_logo
 62
7
100
AcDbLine
 10
17.218630
 20
120.566209
 30
0.0
 11
17.329752
 21
120.451503
 31
0.0
  0
LINE
  5
28f
100
AcDbEntity
  8
text_and_logo
 62
7
100
AcDbLine
 10
17.329752
 20
120.451503
 30
0.0
 11
17.444458
 21
120.225675
 31
0.0
  0
LINE
  5
290
100
AcDbEntity
  8
text_and_logo
 62
7
100
AcDbLine
 10
17.444458
 20
120.225675
 30
0.0
 11
17.444458
 21
119.886933
 31
0.0
  0
LINE
  5
291
100
AcDbEntity
  8
text_and_logo
 62
7
100
AcDbLine
 10
17.444458
 20
119.886933
 30
0.0
 11
17.218630
 21
119.661105
 31
0.0
  0
LINE
  5
292
100
AcDbEntity
  8
text_and_logo
 62
7
100
AcDbLine
 10
17.218630
 20
119.661105
 30
0.0
 11
16.878096
 21
119.548191
 31
0.0
  0
LINE
  5
293
100
AcDbEntity
  8
text_and_logo
 62
7
100
AcDbLine
 10
16.878096
 20
119.548191
 30
0.0
 11
16.426440
 21
119.548191
 31
0.0
  0
LINE
  5
294
100
AcDbEntity
  8
text_and_logo
 62
7
100
AcDbLine
 10
16.426440
 20
119.548191
 30
0.0
 11
16.089490
 21
119.661105
 31
0.0
  0
LINE
  5
295
100
AcDbEntity
  8
text_and_logo
 62
7
100
AcDbLine
 10
16.089490
 20
119.661105
 30
0.0
 11
15.863662
 21
119.886933
 31
0.0
  0
LINE
  5
296
100
AcDbEntity
  8
text_and_logo
 62
7
100
AcDbLine
 10
18.684713
 20
121.921177
 30
0.0
 11
18.684713
 21
119.548191
 31
0.0
  0
LINE
  5
297
100
AcDbEntity
  8
text_and_logo
 62
7
100
AcDbLine
 10
17.896108
 20
121.921177
 30
0.0
 11
19.476903
 21
121.921177
 31
0.0
  0
LINE
  5
298
100
AcDbEntity
  8
text_and_logo
 62
7
100
AcDbLine
 10
20.606051
 20
121.921177
 30
0.0
 11
20.380223
 21
121.806471
 31
0.0
  0
LINE
  5
299
100
AcDbEntity
  8
text_and_logo
 62
7
100
AcDbLine
 10
20.380223
 20
121.806471
 30
0.0
 11
20.154395
 21
121.580643
 31
0.0
  0
LINE
  5
29a
100
AcDbEntity
  8
text_and_logo
 62
7
100
AcDbLine
 10
20.154395
 20
121.580643
 30
0.0
 11
20.039689
 21
121.354815
 31
0.0
  0
LINE
  5
29b
100
AcDbEntity
  8
text_and_logo
 62
7
100
AcDbLine
 10
20.039689
 20
121.354815
 30
0.0
 11
19.928567
 21
121.017865
 31
0.0
  0
LINE
  5
29c
100
AcDbEntity
  8
text_and_logo
 62
7
100
AcDbLine
 10
19.928567
 20
121.017865
 30
0.0
 11
19.928567
 21
120.451503
 31
0.0
  0
LINE
  5
29d
100
AcDbEntity
  8
text_and_logo
 62
7
100
AcDbLine
 10
19.928567
 20
120.451503
 30
0.0
 11
20.039689
 21
120.114554
 31
0.0
  0
LINE
  5
29e
100
AcDbEntity
  8
text_and_logo
 62
7
100
AcDbLine
 10
20.039689
 20
120.114554
 30
0.0
 11
20.154395
 21
119.886933
 31
0.0
  0
LINE
  5
29f
100
AcDbEntity
  8
text_and_logo
 62
7
100
AcDbLine
 10
20.154395
 20
119.886933
 30
0.0
 11
20.380223
 21
119.661105
 31
0.0
  0
LINE
  5
2a0
100
AcDbEntity
  8
text_and_logo
 62
7
100
AcDbLine
 10
20.380223
 20
119.661105
 30
0.0
 11
20.606051
 21
119.548191
 31
0.0
  0
LINE
  5
2a1
100
AcDbEntity
  8
text_and_logo
 62
7
100
AcDbLine
 10
20.606051
 20
119.548191
 30
0.0
 11
21.057707
 21
119.548191
 31
0.0
  0
LINE
  5
2a2
100
AcDbEntity
  8
text_and_logo
 62
7
100
AcDbLine
 10
21.057707
 20
119.548191
 30
0.0
 11
21.283535
 21
119.661105
 31
0.0
  0
LINE
  5
2a3
100
AcDbEntity
  8
text_and_logo
 62
7
100
AcDbLine
 10
21.283535
 20
119.661105
 30
0.0
 11
21.509363
 21
119.886933
 31
0.0
  0
LINE
  5
2a4
100
AcDbEntity
  8
text_and_logo
 62
7
100
AcDbLine
 10
21.509363
 20
119.886933
 30
0.0
 11
21.624069
 21
120.114554
 31
0.0
  0
LINE
  5
2a5
100
AcDbEntity
  8
text_and_logo
 62
7
100
AcDbLine
 10
21.624069
 20
120.114554
 30
0.0
 11
21.735191
 21
120.451503
 31
0.0
  0
LINE
  5
2a6
100
AcDbEntity
  8
text_and_logo
 62
7
100
AcDbLine
 10
21.735191
 20
120.451503
 30
0.0
 11
21.735191
 21
121.017865
 31
0.0
  0
LINE
  5
2a7
100
AcDbEntity
  8
text_and_logo
 62
7
100
AcDbLine
 10
21.735191
 20
121.017865
 30
0.0
 11
21.624069
 21
121.354815
 31
0.0
  0
LINE
  5
2a8
100
AcDbEntity
  8
text_and_logo
 62
7
100
AcDbLine
 10
21.624069
 20
121.354815
 30
0.0
 11
21.509363
 21
121.580643
 31
0.0
  0
LINE
  5
2a9
100
AcDbEntity
  8
text_and_logo
 62
7
100
AcDbLine
 10
21.509363
 20
121.580643
 30
0.0
 11
21.283535
 21
121.806471
 31
0.0
  0
LINE
  5
2aa
100
AcDbEntity
  8
text_and_logo
 62
7
100
AcDbLine
 10
21.283535
 20
121.806471
 30
0.0
 11
21.057707
 21
121.921177
 31
0.0
  0
LINE
  5
2ab
100
AcDbEntity
  8
text_and_logo
 62
7
100
AcDbLine
 10
21.057707
 20
121.921177
 30
0.0
 11
20.606051
 21
121.921177
 31
0.0
  0
LINE
  5
2ac
100
AcDbEntity
  8
text_and_logo
 62
7
100
AcDbLine
 10
22.523739
 20
121.921177
 30
0.0
 11
22.523739
 21
119.548191
 31
0.0
  0
LINE
  5
2ad
100
AcDbEntity
  8
text_and_logo
 62
7
100
AcDbLine
 10
22.523739
 20
121.921177
 30
0.0
 11
23.427051
 21
119.548191
 31
0.0
  0
LINE
  5
2ae
100
AcDbEntity
  8
text_and_logo
 62
7
100
AcDbLine
 10
24.330362
 20
121.921177
 30
0.0
 11
23.427051
 21
119.548191
 31
0.0
  0
LINE
  5
2af
100
AcDbEntity
  8
text_and_logo
 62
7
100
AcDbLine
 10
24.330362
 20
121.921177
 30
0.0
 11
24.330362
 21
119.548191
 31
0.0
  0
LINE
  5
2b0
100
AcDbEntity
  8
text_and_logo
 62
7
100
AcDbLine
 10
25.233667
 20
121.921177
 30
0.0
 11
25.233667
 21
119.548191
 31
0.0
  0
LINE
  5
2b1
100
AcDbEntity
  8
text_and_logo
 62
7
100
AcDbLine
 10
25.233667
 20
121.921177
 30
0.0
 11
26.251685
 21
121.921177
 31
0.0
  0
LINE
  5
2b2
100
AcDbEntity
  8
text_and_logo
 62
7
100
AcDbLine
 10
26.251685
 20
121.921177
 30
0.0
 11
26.588634
 21
121.806471
 31
0.0
  0
LINE
  5
2b3
100
AcDbEntity
  8
text_and_logo
 62
7
100
AcDbLine
 10
26.588634
 20
121.806471
 30
0.0
 11
26.703341
 21
121.691765
 31
0.0
  0
LINE
  5
2b4
100
AcDbEntity
  8
text_and_logo
 62
7
100
AcDbLine
 10
26.703341
 20
121.691765
 30
0.0
 11
26.818047
 21
121.469521
 31
0.0
  0
LINE
  5
2b5
100
AcDbEntity
  8
text_and_logo
 62
7
100
AcDbLine
 10
26.818047
 20
121.469521
 30
0.0
 11
26.818047
 21
121.128987
 31
0.0
  0
LINE
  5
2b6
100
AcDbEntity
  8
text_and_logo
 62
7
100
AcDbLine
 10
26.818047
 20
121.128987
 30
0.0
 11
26.703341
 21
120.903159
 31
0.0
  0
LINE
  5
2b7
100
AcDbEntity
  8
text_and_logo
 62
7
100
AcDbLine
 10
26.703341
 20
120.903159
 30
0.0
 11
26.588634
 21
120.788453
 31
0.0
  0
LINE
  5
2b8
100
AcDbEntity
  8
text_and_logo
 62
7
100
AcDbLine
 10
26.588634
 20
120.788453
 30
0.0
 11
26.251685
 21
120.677331
 31
0.0
  0
LINE
  5
2b9
100
AcDbEntity
  8
text_and_logo
 62
7
100
AcDbLine
 10
26.251685
 20
120.677331
 30
0.0
 11
25.233667
 21
120.677331
 31
0.0
  0
LINE
  5
2ba
100
AcDbEntity
  8
text_and_logo
 62
7
100
AcDbLine
 10
5.426091
 20
15.964516
 30
0.0
 11
5.426091
 21
14.096200
 31
0.0
  0
LINE
  5
2bb
100
AcDbEntity
  8
text_and_logo
 62
7
100
AcDbLine
 10
5.426091
 20
14.096200
 30
0.0
 11
6.492894
 21
14.096200
 31
0.0
  0
LINE
  5
2bc
100
AcDbEntity
  8
text_and_logo
 62
7
100
AcDbLine
 10
6.938811
 20
15.964516
 30
0.0
 11
6.938811
 21
14.096200
 31
0.0
  0
LINE
  5
2bd
100
AcDbEntity
  8
text_and_logo
 62
7
100
AcDbLine
 10
6.938811
 20
15.964516
 30
0.0
 11
8.095925
 21
15.964516
 31
0.0
  0
LINE
  5
2be
100
AcDbEntity
  8
text_and_logo
 62
7
100
AcDbLine
 10
6.938811
 20
15.072692
 30
0.0
 11
7.650013
 21
15.072692
 31
0.0
  0
LINE
  5
2bf
100
AcDbEntity
  8
text_and_logo
 62
7
100
AcDbLine
 10
8.984923
 20
15.964516
 30
0.0
 11
8.807122
 21
15.874205
 31
0.0
  0
LINE
  5
2c0
100
AcDbEntity
  8
text_and_logo
 62
7
100
AcDbLine
 10
8.807122
 20
15.874205
 30
0.0
 11
8.629322
 21
15.696404
 31
0.0
  0
LINE
  5
2c1
100
AcDbEntity
  8
text_and_logo
 62
7
100
AcDbLine
 10
8.629322
 20
15.696404
 30
0.0
 11
8.539011
 21
15.518604
 31
0.0
  0
LINE
  5
2c2
100
AcDbEntity
  8
text_and_logo
 62
7
100
AcDbLine
 10
8.539011
 20
15.518604
 30
0.0
 11
8.451521
 21
15.253314
 31
0.0
  0
LINE
  5
2c3
100
AcDbEntity
  8
text_and_logo
 62
7
100
AcDbLine
 10
8.451521
 20
15.253314
 30
0.0
 11
8.451521
 21
14.807402
 31
0.0
  0
LINE
  5
2c4
100
AcDbEntity
  8
text_and_logo
 62
7
100
AcDbLine
 10
8.451521
 20
14.807402
 30
0.0
 11
8.539011
 21
14.542112
 31
0.0
  0
LINE
  5
2c5
100
AcDbEntity
  8
text_and_logo
 62
7
100
AcDbLine
 10
8.539011
 20
14.542112
 30
0.0
 11
8.629322
 21
14.362901
 31
0.0
  0
LINE
  5
2c6
100
AcDbEntity
  8
text_and_logo
 62
7
100
AcDbLine
 10
8.629322
 20
14.362901
 30
0.0
 11
8.807122
 21
14.185100
 31
0.0
  0
LINE
  5
2c7
100
AcDbEntity
  8
text_and_logo
 62
7
100
AcDbLine
 10
8.807122
 20
14.185100
 30
0.0
 11
8.984923
 21
14.096200
 31
0.0
  0
LINE
  5
2c8
100
AcDbEntity
  8
text_and_logo
 62
7
100
AcDbLine
 10
8.984923
 20
14.096200
 30
0.0
 11
9.340524
 21
14.096200
 31
0.0
  0
LINE
  5
2c9
100
AcDbEntity
  8
text_and_logo
 62
7
100
AcDbLine
 10
9.340524
 20
14.096200
 30
0.0
 11
9.518324
 21
14.185100
 31
0.0
  0
LINE
  5
2ca
100
AcDbEntity
  8
text_and_logo
 62
7
100
AcDbLine
 10
9.518324
 20
14.185100
 30
0.0
 11
9.696125
 21
14.362901
 31
0.0
  0
LINE
  5
2cb
100
AcDbEntity
  8
text_and_logo
 62
7
100
AcDbLine
 10
9.696125
 20
14.362901
 30
0.0
 11
9.786436
 21
14.542112
 31
0.0
  0
LINE
  5
2cc
100
AcDbEntity
  8
text_and_logo
 62
7
100
AcDbLine
 10
9.786436
 20
14.542112
 30
0.0
 11
9.873925
 21
14.807402
 31
0.0
  0
LINE
  5
2cd
100
AcDbEntity
  8
text_and_logo
 62
7
100
AcDbLine
 10
9.873925
 20
14.807402
 30
0.0
 11
9.873925
 21
15.253314
 31
0.0
  0
LINE
  5
2ce
100
AcDbEntity
  8
text_and_logo
 62
7
100
AcDbLine
 10
9.873925
 20
15.253314
 30
0.0
 11
9.786436
 21
15.518604
 31
0.0
  0
LINE
  5
2cf
100
AcDbEntity
  8
text_and_logo
 62
7
100
AcDbLine
 10
9.786436
 20
15.518604
 30
0.0
 11
9.696125
 21
15.696404
 31
0.0
  0
LINE
  5
2d0
100
AcDbEntity
  8
text_and_logo
 62
7
100
AcDbLine
 10
9.696125
 20
15.696404
 30
0.0
 11
9.518324
 21
15.874205
 31
0.0
  0
LINE
  5
2d1
100
AcDbEntity
  8
text_and_logo
 62
7
100
AcDbLine
 10
9.518324
 20
15.874205
 30
0.0
 11
9.340524
 21
15.964516
 31
0.0
  0
LINE
  5
2d2
100
AcDbEntity
  8
text_and_logo
 62
7
100
AcDbLine
 10
9.340524
 20
15.964516
 30
0.0
 11
8.984923
 21
15.964516
 31
0.0
  0
LINE
  5
2d3
100
AcDbEntity
  8
text_and_logo
 62
7
100
AcDbLine
 10
21.259591
 20
17.401816
 30
0.0
 11
21.259591
 21
15.533500
 31
0.0
  0
LINE
  5
2d4
100
AcDbEntity
  8
text_and_logo
 62
7
100
AcDbLine
 10
21.970793
 20
17.401816
 30
0.0
 11
21.970793
 21
15.533500
 31
0.0
  0
LINE
  5
2d5
100
AcDbEntity
  8
text_and_logo
 62
7
100
AcDbLine
 10
21.970793
 20
17.401816
 30
0.0
 11
23.218218
 21
15.533500
 31
0.0
  0
LINE
  5
2d6
100
AcDbEntity
  8
text_and_logo
 62
7
100
AcDbLine
 10
23.218218
 20
17.401816
 30
0.0
 11
23.218218
 21
15.533500
 31
0.0
  0
LINE
  5
2d7
100
AcDbEntity
  8
text_and_logo
 62
7
100
AcDbLine
 10
23.661311
 20
17.401816
 30
0.0
 11
24.372513
 21
15.533500
 31
0.0
  0
LINE
  5
2d8
100
AcDbEntity
  8
text_and_logo
 62
7
100
AcDbLine
 10
25.083715
 20
17.401816
 30
0.0
 11
24.372513
 21
15.533500
 31
0.0
  0
LINE
  5
2d9
100
AcDbEntity
  8
text_and_logo
 62
7
100
AcDbLine
 10
25.526801
 20
17.401816
 30
0.0
 11
25.526801
 21
15.533500
 31
0.0
  0
LINE
  5
2da
100
AcDbEntity
  8
text_and_logo
 62
7
100
AcDbLine
 10
25.526801
 20
17.401816
 30
0.0
 11
26.683915
 21
17.401816
 31
0.0
  0
LINE
  5
2db
100
AcDbEntity
  8
text_and_logo
 62
7
100
AcDbLine
 10
25.526801
 20
16.509992
 30
0.0
 11
26.238003
 21
16.509992
 31
0.0
  0
LINE
  5
2dc
100
AcDbEntity
  8
text_and_logo
 62
7
100
AcDbLine
 10
25.526801
 20
15.533500
 30
0.0
 11
26.683915
 21
15.533500
 31
0.0
  0
LINE
  5
2dd
100
AcDbEntity
  8
text_and_logo
 62
7
100
AcDbLine
 10
27.214501
 20
17.401816
 30
0.0
 11
27.214501
 21
15.533500
 31
0.0
  0
LINE
  5
2de
100
AcDbEntity
  8
text_and_logo
 62
7
100
AcDbLine
 10
27.214501
 20
17.401816
 30
0.0
 11
28.016014
 21
17.401816
 31
0.0
  0
LINE
  5
2df
100
AcDbEntity
  8
text_and_logo
 62
7
100
AcDbLine
 10
28.016014
 20
17.401816
 30
0.0
 11
28.281304
 21
17.311505
 31
0.0
  0
LINE
  5
2e0
100
AcDbEntity
  8
text_and_logo
 62
7
100
AcDbLine
 10
28.281304
 20
17.311505
 30
0.0
 11
28.371615
 21
17.221194
 31
0.0
  0
LINE
  5
2e1
100
AcDbEntity
  8
text_and_logo
 62
7
100
AcDbLine
 10
28.371615
 20
17.221194
 30
0.0
 11
28.461926
 21
17.046215
 31
0.0
  0
LINE
  5
2e2
100
AcDbEntity
  8
text_and_logo
 62
7
100
AcDbLine
 10
28.461926
 20
17.046215
 30
0.0
 11
28.461926
 21
16.865593
 31
0.0
  0
LINE
  5
2e3
100
AcDbEntity
  8
text_and_logo
 62
7
100
AcDbLine
 10
28.461926
 20
16.865593
 30
0.0
 11
28.371615
 21
16.690614
 31
0.0
  0
LINE
  5
2e4
100
AcDbEntity
  8
text_and_logo
 62
7
100
AcDbLine
 10
28.371615
 20
16.690614
 30
0.0
 11
28.281304
 21
16.600303
 31
0.0
  0
LINE
  5
2e5
100
AcDbEntity
  8
text_and_logo
 62
7
100
AcDbLine
 10
28.281304
 20
16.600303
 30
0.0
 11
28.016014
 21
16.509992
 31
0.0
  0
LINE
  5
2e6
100
AcDbEntity
  8
text_and_logo
 62
7
100
AcDbLine
 10
28.016014
 20
16.509992
 30
0.0
 11
27.214501
 21
16.509992
 31
0.0
  0
LINE
  5
2e7
100
AcDbEntity
  8
text_and_logo
 62
7
100
AcDbLine
 10
27.838213
 20
16.509992
 30
0.0
 11
28.461926
 21
15.533500
 31
0.0
  0
LINE
  5
2e8
100
AcDbEntity
  8
text_and_logo
 62
7
100
AcDbLine
 10
29.438412
 20
17.401816
 30
0.0
 11
29.438412
 21
15.533500
 31
0.0
  0
LINE
  5
2e9
100
AcDbEntity
  8
text_and_logo
 62
7
100
AcDbLine
 10
28.817521
 20
17.401816
 30
0.0
 11
30.062124
 21
17.401816
 31
0.0
  0
LINE
  5
2ea
100
AcDbEntity
  8
text_and_logo
 62
7
100
AcDbLine
 10
30.505221
 20
17.401816
 30
0.0
 11
30.505221
 21
15.533500
 31
0.0
  0
LINE
  5
2eb
100
AcDbEntity
  8
text_and_logo
 62
7
100
AcDbLine
 10
30.505221
 20
17.401816
 30
0.0
 11
31.662335
 21
17.401816
 31
0.0
  0
LINE
  5
2ec
100
AcDbEntity
  8
text_and_logo
 62
7
100
AcDbLine
 10
30.505221
 20
16.509992
 30
0.0
 11
31.216423
 21
16.509992
 31
0.0
  0
LINE
  5
2ed
100
AcDbEntity
  8
text_and_logo
 62
7
100
AcDbLine
 10
30.505221
 20
15.533500
 30
0.0
 11
31.662335
 21
15.533500
 31
0.0
  0
LINE
  5
2ee
100
AcDbEntity
  8
text_and_logo
 62
7
100
AcDbLine
 10
32.192891
 20
17.401816
 30
0.0
 11
32.192891
 21
15.533500
 31
0.0
  0
LINE
  5
2ef
100
AcDbEntity
  8
text_and_logo
 62
7
100
AcDbLine
 10
32.192891
 20
17.401816
 30
0.0
 11
32.816603
 21
17.401816
 31
0.0
  0
LINE
  5
2f0
100
AcDbEntity
  8
text_and_logo
 62
7
100
AcDbLine
 10
32.816603
 20
17.401816
 30
0.0
 11
33.084715
 21
17.311505
 31
0.0
  0
LINE
  5
2f1
100
AcDbEntity
  8
text_and_logo
 62
7
100
AcDbLine
 10
33.084715
 20
17.311505
 30
0.0
 11
33.259694
 21
17.133704
 31
0.0
  0
LINE
  5
2f2
100
AcDbEntity
  8
text_and_logo
 62
7
100
AcDbLine
 10
33.259694
 20
17.133704
 30
0.0
 11
33.350005
 21
16.955904
 31
0.0
  0
LINE
  5
2f3
100
AcDbEntity
  8
text_and_logo
 62
7
100
AcDbLine
 10
33.350005
 20
16.955904
 30
0.0
 11
33.440316
 21
16.690614
 31
0.0
  0
LINE
  5
2f4
100
AcDbEntity
  8
text_and_logo
 62
7
100
AcDbLine
 10
33.440316
 20
16.690614
 30
0.0
 11
33.440316
 21
16.244702
 31
0.0
  0
LINE
  5
2f5
100
AcDbEntity
  8
text_and_logo
 62
7
100
AcDbLine
 10
33.440316
 20
16.244702
 30
0.0
 11
33.350005
 21
15.979412
 31
0.0
  0
LINE
  5
2f6
100
AcDbEntity
  8
text_and_logo
 62
7
100
AcDbLine
 10
33.350005
 20
15.979412
 30
0.0
 11
33.259694
 21
15.800201
 31
0.0
  0
LINE
  5
2f7
100
AcDbEntity
  8
text_and_logo
 62
7
100
AcDbLine
 10
33.259694
 20
15.800201
 30
0.0
 11
33.084715
 21
15.622400
 31
0.0
  0
LINE
  5
2f8
100
AcDbEntity
  8
text_and_logo
 62
7
100
AcDbLine
 10
33.084715
 20
15.622400
 30
0.0
 11
32.816603
 21
15.533500
 31
0.0
  0
LINE
  5
2f9
100
AcDbEntity
  8
text_and_logo
 62
7
100
AcDbLine
 10
32.816603
 20
15.533500
 30
0.0
 11
32.192891
 21
15.533500
 31
0.0
  0
LINE
  5
2fa
100
AcDbEntity
  8
text_and_logo
 62
7
100
AcDbLine
 10
25.126091
 20
14.611816
 30
0.0
 11
25.126091
 21
12.743500
 31
0.0
  0
LINE
  5
2fb
100
AcDbEntity
  8
text_and_logo
 62
7
100
AcDbLine
 10
25.126091
 20
12.743500
 30
0.0
 11
26.192894
 21
12.743500
 31
0.0
  0
LINE
  5
2fc
100
AcDbEntity
  8
text_and_logo
 62
7
100
AcDbLine
 10
26.638811
 20
14.611816
 30
0.0
 11
26.638811
 21
12.743500
 31
0.0
  0
LINE
  5
2fd
100
AcDbEntity
  8
text_and_logo
 62
7
100
AcDbLine
 10
26.638811
 20
14.611816
 30
0.0
 11
27.795925
 21
14.611816
 31
0.0
  0
LINE
  5
2fe
100
AcDbEntity
  8
text_and_logo
 62
7
100
AcDbLine
 10
26.638811
 20
13.719992
 30
0.0
 11
27.350013
 21
13.719992
 31
0.0
  0
LINE
  5
2ff
100
AcDbEntity
  8
text_and_logo
 62
7
100
AcDbLine
 10
28.684923
 20
14.611816
 30
0.0
 11
28.507122
 21
14.521505
 31
0.0
  0
LINE
  5
300
100
AcDbEntity
  8
text_and_logo
 62
7
100
AcDbLine
 10
28.507122
 20
14.521505
 30
0.0
 11
28.329322
 21
14.343704
 31
0.0
  0
LINE
  5
301
100
AcDbEntity
  8
text_and_logo
 62
7
100
AcDbLine
 10
28.329322
 20
14.343704
 30
0.0
 11
28.239011
 21
14.165904
 31
0.0
  0
LINE
  5
302
100
AcDbEntity
  8
text_and_logo
 62
7
100
AcDbLine
 10
28.239011
 20
14.165904
 30
0.0
 11
28.151521
 21
13.900614
 31
0.0
  0
LINE
  5
303
100
AcDbEntity
  8
text_and_logo
 62
7
100
AcDbLine
 10
28.151521
 20
13.900614
 30
0.0
 11
28.151521
 21
13.454702
 31
0.0
  0
LINE
  5
304
100
AcDbEntity
  8
text_and_logo
 62
7
100
AcDbLine
 10
28.151521
 20
13.454702
 30
0.0
 11
28.239011
 21
13.189412
 31
0.0
  0
LINE
  5
305
100
AcDbEntity
  8
text_and_logo
 62
7
100
AcDbLine
 10
28.239011
 20
13.189412
 30
0.0
 11
28.329322
 21
13.010201
 31
0.0
  0
LINE
  5
306
100
AcDbEntity
  8
text_and_logo
 62
7
100
AcDbLine
 10
28.329322
 20
13.010201
 30
0.0
 11
28.507122
 21
12.832400
 31
0.0
  0
LINE
  5
307
100
AcDbEntity
  8
text_and_logo
 62
7
100
AcDbLine
 10
28.507122
 20
12.832400
 30
0.0
 11
28.684923
 21
12.743500
 31
0.0
  0
LINE
  5
308
100
AcDbEntity
  8
text_and_logo
 62
7
100
AcDbLine
 10
28.684923
 20
12.743500
 30
0.0
 11
29.040524
 21
12.743500
 31
0.0
  0
LINE
  5
309
100
AcDbEntity
  8
text_and_logo
 62
7
100
AcDbLine
 10
29.040524
 20
12.743500
 30
0.0
 11
29.218324
 21
12.832400
 31
0.0
  0
LINE
  5
30a
100
AcDbEntity
  8
text_and_logo
 62
7
100
AcDbLine
 10
29.218324
 20
12.832400
 30
0.0
 11
29.396125
 21
13.010201
 31
0.0
  0
LINE
  5
30b
100
AcDbEntity
  8
text_and_logo
 62
7
100
AcDbLine
 10
29.396125
 20
13.010201
 30
0.0
 11
29.486436
 21
13.189412
 31
0.0
  0
LINE
  5
30c
100
AcDbEntity
  8
text_and_logo
 62
7
100
AcDbLine
 10
29.486436
 20
13.189412
 30
0.0
 11
29.573925
 21
13.454702
 31
0.0
  0
LINE
  5
30d
100
AcDbEntity
  8
text_and_logo
 62
7
100
AcDbLine
 10
29.573925
 20
13.454702
 30
0.0
 11
29.573925
 21
13.900614
 31
0.0
  0
LINE
  5
30e
100
AcDbEntity
  8
text_and_logo
 62
7
100
AcDbLine
 10
29.573925
 20
13.900614
 30
0.0
 11
29.486436
 21
14.165904
 31
0.0
  0
LINE
  5
30f
100
AcDbEntity
  8
text_and_logo
 62
7
100
AcDbLine
 10
29.486436
 20
14.165904
 30
0.0
 11
29.396125
 21
14.343704
 31
0.0
  0
LINE
  5
310
100
AcDbEntity
  8
text_and_logo
 62
7
100
AcDbLine
 10
29.396125
 20
14.343704
 30
0.0
 11
29.218324
 21
14.521505
 31
0.0
  0
LINE
  5
311
100
AcDbEntity
  8
text_and_logo
 62
7
100
AcDbLine
 10
29.218324
 20
14.521505
 30
0.0
 11
29.040524
 21
14.611816
 31
0.0
  0
LINE
  5
312
100
AcDbEntity
  8
text_and_logo
 62
7
100
AcDbLine
 10
29.040524
 20
14.611816
 30
0.0
 11
28.684923
 21
14.611816
 31
0.0
  0
LINE
  5
313
100
AcDbEntity
  8
text_and_logo
 62
7
100
AcDbLine
 10
10.478312
 20
68.586016
 30
0.0
 11
10.921402
 21
66.717700
 31
0.0
  0
LINE
  5
314
100
AcDbEntity
  8
text_and_logo
 62
7
100
AcDbLine
 10
11.364493
 20
68.586016
 30
0.0
 11
10.921402
 21
66.717700
 31
0.0
  0
LINE
  5
315
100
AcDbEntity
  8
text_and_logo
 62
7
100
AcDbLine
 10
11.364493
 20
68.586016
 30
0.0
 11
11.810405
 21
66.717700
 31
0.0
  0
LINE
  5
316
100
AcDbEntity
  8
text_and_logo
 62
7
100
AcDbLine
 10
12.256317
 20
68.586016
 30
0.0
 11
11.810405
 21
66.717700
 31
0.0
  0
LINE
  5
317
100
AcDbEntity
  8
text_and_logo
 62
7
100
AcDbLine
 10
13.232813
 20
68.586016
 30
0.0
 11
12.521611
 21
66.717700
 31
0.0
  0
LINE
  5
318
100
AcDbEntity
  8
text_and_logo
 62
7
100
AcDbLine
 10
13.232813
 20
68.586016
 30
0.0
 11
13.944015
 21
66.717700
 31
0.0
  0
LINE
  5
319
100
AcDbEntity
  8
text_and_logo
 62
7
100
AcDbLine
 10
12.786901
 20
67.338591
 30
0.0
 11
13.678725
 21
67.338591
 31
0.0
  0
LINE
  5
31a
100
AcDbEntity
  8
text_and_logo
 62
7
100
AcDbLine
 10
14.121811
 20
68.586016
 30
0.0
 11
14.833013
 21
66.717700
 31
0.0
  0
LINE
  5
31b
100
AcDbEntity
  8
text_and_logo
 62
7
100
AcDbLine
 10
15.544215
 20
68.586016
 30
0.0
 11
14.833013
 21
66.717700
 31
0.0
  0
LINE
  5
31c
100
AcDbEntity
  8
text_and_logo
 62
7
100
AcDbLine
 10
15.987301
 20
68.586016
 30
0.0
 11
15.987301
 21
66.717700
 31
0.0
  0
LINE
  5
31d
100
AcDbEntity
  8
text_and_logo
 62
7
100
AcDbLine
 10
15.987301
 20
68.586016
 30
0.0
 11
17.144415
 21
68.586016
 31
0.0
  0
LINE
  5
31e
100
AcDbEntity
  8
text_and_logo
 62
7
100
AcDbLine
 10
15.987301
 20
67.694192
 30
0.0
 11
16.698503
 21
67.694192
 31
0.0
  0
LINE
  5
31f
100
AcDbEntity
  8
text_and_logo
 62
7
100
AcDbLine
 10
15.987301
 20
66.717700
 30
0.0
 11
17.144415
 21
66.717700
 31
0.0
  0
LINE
  5
320
100
AcDbEntity
  8
text_and_logo
 62
7
100
AcDbLine
 10
17.675001
 20
68.586016
 30
0.0
 11
17.675001
 21
66.717700
 31
0.0
  0
LINE
  5
321
100
AcDbEntity
  8
text_and_logo
 62
7
100
AcDbLine
 10
17.675001
 20
68.586016
 30
0.0
 11
18.832115
 21
68.586016
 31
0.0
  0
LINE
  5
322
100
AcDbEntity
  8
text_and_logo
 62
7
100
AcDbLine
 10
17.675001
 20
67.694192
 30
0.0
 11
18.386203
 21
67.694192
 31
0.0
  0
LINE
  5
323
100
AcDbEntity
  8
text_and_logo
 62
7
100
AcDbLine
 10
19.721113
 20
68.586016
 30
0.0
 11
19.543312
 21
68.495705
 31
0.0
  0
LINE
  5
324
100
AcDbEntity
  8
text_and_logo
 62
7
100
AcDbLine
 10
19.543312
 20
68.495705
 30
0.0
 11
19.365512
 21
68.317904
 31
0.0
  0
LINE
  5
325
100
AcDbEntity
  8
text_and_logo
 62
7
100
AcDbLine
 10
19.365512
 20
68.317904
 30
0.0
 11
19.275201
 21
68.140104
 31
0.0
  0
LINE
  5
326
100
AcDbEntity
  8
text_and_logo
 62
7
100
AcDbLine
 10
19.275201
 20
68.140104
 30
0.0
 11
19.187711
 21
67.874814
 31
0.0
  0
LINE
  5
327
100
AcDbEntity
  8
text_and_logo
 62
7
100
AcDbLine
 10
19.187711
 20
67.874814
 30
0.0
 11
19.187711
 21
67.428902
 31
0.0
  0
LINE
  5
328
100
AcDbEntity
  8
text_and_logo
 62
7
100
AcDbLine
 10
19.187711
 20
67.428902
 30
0.0
 11
19.275201
 21
67.163612
 31
0.0
  0
LINE
  5
329
100
AcDbEntity
  8
text_and_logo
 62
7
100
AcDbLine
 10
19.275201
 20
67.163612
 30
0.0
 11
19.365512
 21
66.984401
 31
0.0
  0
LINE
  5
32a
100
AcDbEntity
  8
text_and_logo
 62
7
100
AcDbLine
 10
19.365512
 20
66.984401
 30
0.0
 11
19.543312
 21
66.806600
 31
0.0
  0
LINE
  5
32b
100
AcDbEntity
  8
text_and_logo
 62
7
100
AcDbLine
 10
19.543312
 20
66.806600
 30
0.0
 11
19.721113
 21
66.717700
 31
0.0
  0
LINE
  5
32c
100
AcDbEntity
  8
text_and_logo
 62
7
100
AcDbLine
 10
19.721113
 20
66.717700
 30
0.0
 11
20.076714
 21
66.717700
 31
0.0
  0
LINE
  5
32d
100
AcDbEntity
  8
text_and_logo
 62
7
100
AcDbLine
 10
20.076714
 20
66.717700
 30
0.0
 11
20.254514
 21
66.806600
 31
0.0
  0
LINE
  5
32e
100
AcDbEntity
  8
text_and_logo
 62
7
100
AcDbLine
 10
20.254514
 20
66.806600
 30
0.0
 11
20.432315
 21
66.984401
 31
0.0
  0
LINE
  5
32f
100
AcDbEntity
  8
text_and_logo
 62
7
100
AcDbLine
 10
20.432315
 20
66.984401
 30
0.0
 11
20.522626
 21
67.163612
 31
0.0
  0
LINE
  5
330
100
AcDbEntity
  8
text_and_logo
 62
7
100
AcDbLine
 10
20.522626
 20
67.163612
 30
0.0
 11
20.610115
 21
67.428902
 31
0.0
  0
LINE
  5
331
100
AcDbEntity
  8
text_and_logo
 62
7
100
AcDbLine
 10
20.610115
 20
67.428902
 30
0.0
 11
20.610115
 21
67.874814
 31
0.0
  0
LINE
  5
332
100
AcDbEntity
  8
text_and_logo
 62
7
100
AcDbLine
 10
20.610115
 20
67.874814
 30
0.0
 11
20.522626
 21
68.140104
 31
0.0
  0
LINE
  5
333
100
AcDbEntity
  8
text_and_logo
 62
7
100
AcDbLine
 10
20.522626
 20
68.140104
 30
0.0
 11
20.432315
 21
68.317904
 31
0.0
  0
LINE
  5
334
100
AcDbEntity
  8
text_and_logo
 62
7
100
AcDbLine
 10
20.432315
 20
68.317904
 30
0.0
 11
20.254514
 21
68.495705
 31
0.0
  0
LINE
  5
335
100
AcDbEntity
  8
text_and_logo
 62
7
100
AcDbLine
 10
20.254514
 20
68.495705
 30
0.0
 11
20.076714
 21
68.586016
 31
0.0
  0
LINE
  5
336
100
AcDbEntity
  8
text_and_logo
 62
7
100
AcDbLine
 10
20.076714
 20
68.586016
 30
0.0
 11
19.721113
 21
68.586016
 31
0.0
  0
LINE
  5
337
100
AcDbEntity
  8
text_and_logo
 62
7
100
AcDbLine
 10
21.230991
 20
68.586016
 30
0.0
 11
21.230991
 21
66.717700
 31
0.0
  0
LINE
  5
338
100
AcDbEntity
  8
text_and_logo
 62
7
100
AcDbLine
 10
21.230991
 20
68.586016
 30
0.0
 11
22.032504
 21
68.586016
 31
0.0
  0
LINE
  5
339
100
AcDbEntity
  8
text_and_logo
 62
7
100
AcDbLine
 10
22.032504
 20
68.586016
 30
0.0
 11
22.297794
 21
68.495705
 31
0.0
  0
LINE
  5
33a
100
AcDbEntity
  8
text_and_logo
 62
7
100
AcDbLine
 10
22.297794
 20
68.495705
 30
0.0
 11
22.388105
 21
68.405394
 31
0.0
  0
LINE
  5
33b
100
AcDbEntity
  8
text_and_logo
 62
7
100
AcDbLine
 10
22.388105
 20
68.405394
 30
0.0
 11
22.478416
 21
68.230415
 31
0.0
  0
LINE
  5
33c
100
AcDbEntity
  8
text_and_logo
 62
7
100
AcDbLine
 10
22.478416
 20
68.230415
 30
0.0
 11
22.478416
 21
68.049793
 31
0.0
  0
LINE
  5
33d
100
AcDbEntity
  8
text_and_logo
 62
7
100
AcDbLine
 10
22.478416
 20
68.049793
 30
0.0
 11
22.388105
 21
67.874814
 31
0.0
  0
LINE
  5
33e
100
AcDbEntity
  8
text_and_logo
 62
7
100
AcDbLine
 10
22.388105
 20
67.874814
 30
0.0
 11
22.297794
 21
67.784503
 31
0.0
  0
LINE
  5
33f
100
AcDbEntity
  8
text_and_logo
 62
7
100
AcDbLine
 10
22.297794
 20
67.784503
 30
0.0
 11
22.032504
 21
67.694192
 31
0.0
  0
LINE
  5
340
100
AcDbEntity
  8
text_and_logo
 62
7
100
AcDbLine
 10
22.032504
 20
67.694192
 30
0.0
 11
21.230991
 21
67.694192
 31
0.0
  0
LINE
  5
341
100
AcDbEntity
  8
text_and_logo
 62
7
100
AcDbLine
 10
21.854703
 20
67.694192
 30
0.0
 11
22.478416
 21
66.717700
 31
0.0
  0
LINE
  5
342
100
AcDbEntity
  8
text_and_logo
 62
7
100
AcDbLine
 10
23.099291
 20
68.586016
 30
0.0
 11
23.099291
 21
66.717700
 31
0.0
  0
LINE
  5
343
100
AcDbEntity
  8
text_and_logo
 62
7
100
AcDbLine
 10
23.099291
 20
68.586016
 30
0.0
 11
23.810493
 21
66.717700
 31
0.0
  0
LINE
  5
344
100
AcDbEntity
  8
text_and_logo
 62
7
100
AcDbLine
 10
24.521695
 20
68.586016
 30
0.0
 11
23.810493
 21
66.717700
 31
0.0
  0
LINE
  5
345
100
AcDbEntity
  8
text_and_logo
 62
7
100
AcDbLine
 10
24.521695
 20
68.586016
 30
0.0
 11
24.521695
 21
66.717700
 31
0.0
  0
LINE
  5
346
100
AcDbEntity
  8
text_and_logo
 62
7
100
AcDbLine
 10
9.631691
 20
90.155016
 30
0.0
 11
9.631691
 21
88.286700
 31
0.0
  0
LINE
  5
347
100
AcDbEntity
  8
text_and_logo
 62
7
100
AcDbLine
 10
9.631691
 20
90.155016
 30
0.0
 11
10.788805
 21
90.155016
 31
0.0
  0
LINE
  5
348
100
AcDbEntity
  8
text_and_logo
 62
7
100
AcDbLine
 10
9.631691
 20
89.263192
 30
0.0
 11
10.342893
 21
89.263192
 31
0.0
  0
LINE
  5
349
100
AcDbEntity
  8
text_and_logo
 62
7
100
AcDbLine
 10
11.231891
 20
90.155016
 30
0.0
 11
11.231891
 21
88.286700
 31
0.0
  0
LINE
  5
34a
100
AcDbEntity
  8
text_and_logo
 62
7
100
AcDbLine
 10
11.231891
 20
90.155016
 30
0.0
 11
12.033404
 21
90.155016
 31
0.0
  0
LINE
  5
34b
100
AcDbEntity
  8
text_and_logo
 62
7
100
AcDbLine
 10
12.033404
 20
90.155016
 30
0.0
 11
12.298694
 21
90.064705
 31
0.0
  0
LINE
  5
34c
100
AcDbEntity
  8
text_and_logo
 62
7
100
AcDbLine
 10
12.298694
 20
90.064705
 30
0.0
 11
12.389005
 21
89.974394
 31
0.0
  0
LINE
  5
34d
100
AcDbEntity
  8
text_and_logo
 62
7
100
AcDbLine
 10
12.389005
 20
89.974394
 30
0.0
 11
12.479316
 21
89.799415
 31
0.0
  0
LINE
  5
34e
100
AcDbEntity
  8
text_and_logo
 62
7
100
AcDbLine
 10
12.479316
 20
89.799415
 30
0.0
 11
12.479316
 21
89.618793
 31
0.0
  0
LINE
  5
34f
100
AcDbEntity
  8
text_and_logo
 62
7
100
AcDbLine
 10
12.479316
 20
89.618793
 30
0.0
 11
12.389005
 21
89.443814
 31
0.0
  0
LINE
  5
350
100
AcDbEntity
  8
text_and_logo
 62
7
100
AcDbLine
 10
12.389005
 20
89.443814
 30
0.0
 11
12.298694
 21
89.353503
 31
0.0
  0
LINE
  5
351
100
AcDbEntity
  8
text_and_logo
 62
7
100
AcDbLine
 10
12.298694
 20
89.353503
 30
0.0
 11
12.033404
 21
89.263192
 31
0.0
  0
LINE
  5
352
100
AcDbEntity
  8
text_and_logo
 62
7
100
AcDbLine
 10
12.033404
 20
89.263192
 30
0.0
 11
11.231891
 21
89.263192
 31
0.0
  0
LINE
  5
353
100
AcDbEntity
  8
text_and_logo
 62
7
100
AcDbLine
 10
11.855603
 20
89.263192
 30
0.0
 11
12.479316
 21
88.286700
 31
0.0
  0
LINE
  5
354
100
AcDbEntity
  8
text_and_logo
 62
7
100
AcDbLine
 10
13.100211
 20
90.155016
 30
0.0
 11
13.100211
 21
88.286700
 31
0.0
  0
LINE
  5
355
100
AcDbEntity
  8
text_and_logo
 62
7
100
AcDbLine
 10
13.100211
 20
90.155016
 30
0.0
 11
14.257325
 21
90.155016
 31
0.0
  0
LINE
  5
356
100
AcDbEntity
  8
text_and_logo
 62
7
100
AcDbLine
 10
13.100211
 20
89.263192
 30
0.0
 11
13.811413
 21
89.263192
 31
0.0
  0
LINE
  5
357
100
AcDbEntity
  8
text_and_logo
 62
7
100
AcDbLine
 10
13.100211
 20
88.286700
 30
0.0
 11
14.257325
 21
88.286700
 31
0.0
  0
LINE
  5
358
100
AcDbEntity
  8
text_and_logo
 62
7
100
AcDbLine
 10
15.233813
 20
90.155016
 30
0.0
 11
15.056012
 21
90.064705
 31
0.0
  0
LINE
  5
359
100
AcDbEntity
  8
text_and_logo
 62
7
100
AcDbLine
 10
15.056012
 20
90.064705
 30
0.0
 11
14.878212
 21
89.886904
 31
0.0
  0
LINE
  5
35a
100
AcDbEntity
  8
text_and_logo
 62
7
100
AcDbLine
 10
14.878212
 20
89.886904
 30
0.0
 11
14.787901
 21
89.709104
 31
0.0
  0
LINE
  5
35b
100
AcDbEntity
  8
text_and_logo
 62
7
100
AcDbLine
 10
14.787901
 20
89.709104
 30
0.0
 11
14.700411
 21
89.443814
 31
0.0
  0
LINE
  5
35c
100
AcDbEntity
  8
text_and_logo
 62
7
100
AcDbLine
 10
14.700411
 20
89.443814
 30
0.0
 11
14.700411
 21
88.997902
 31
0.0
  0
LINE
  5
35d
100
AcDbEntity
  8
text_and_logo
 62
7
100
AcDbLine
 10
14.700411
 20
88.997902
 30
0.0
 11
14.787901
 21
88.732612
 31
0.0
  0
LINE
  5
35e
100
AcDbEntity
  8
text_and_logo
 62
7
100
AcDbLine
 10
14.787901
 20
88.732612
 30
0.0
 11
14.878212
 21
88.553401
 31
0.0
  0
LINE
  5
35f
100
AcDbEntity
  8
text_and_logo
 62
7
100
AcDbLine
 10
14.878212
 20
88.553401
 30
0.0
 11
15.056012
 21
88.375600
 31
0.0
  0
LINE
  5
360
100
AcDbEntity
  8
text_and_logo
 62
7
100
AcDbLine
 10
15.056012
 20
88.375600
 30
0.0
 11
15.233813
 21
88.286700
 31
0.0
  0
LINE
  5
361
100
AcDbEntity
  8
text_and_logo
 62
7
100
AcDbLine
 10
15.233813
 20
88.286700
 30
0.0
 11
15.589414
 21
88.286700
 31
0.0
  0
LINE
  5
362
100
AcDbEntity
  8
text_and_logo
 62
7
100
AcDbLine
 10
15.589414
 20
88.286700
 30
0.0
 11
15.767214
 21
88.375600
 31
0.0
  0
LINE
  5
363
100
AcDbEntity
  8
text_and_logo
 62
7
100
AcDbLine
 10
15.767214
 20
88.375600
 30
0.0
 11
15.945015
 21
88.553401
 31
0.0
  0
LINE
  5
364
100
AcDbEntity
  8
text_and_logo
 62
7
100
AcDbLine
 10
15.945015
 20
88.553401
 30
0.0
 11
16.035326
 21
88.732612
 31
0.0
  0
LINE
  5
365
100
AcDbEntity
  8
text_and_logo
 62
7
100
AcDbLine
 10
16.035326
 20
88.732612
 30
0.0
 11
16.122815
 21
88.997902
 31
0.0
  0
LINE
  5
366
100
AcDbEntity
  8
text_and_logo
 62
7
100
AcDbLine
 10
16.122815
 20
88.997902
 30
0.0
 11
16.122815
 21
89.443814
 31
0.0
  0
LINE
  5
367
100
AcDbEntity
  8
text_and_logo
 62
7
100
AcDbLine
 10
16.122815
 20
89.443814
 30
0.0
 11
16.035326
 21
89.709104
 31
0.0
  0
LINE
  5
368
100
AcDbEntity
  8
text_and_logo
 62
7
100
AcDbLine
 10
16.035326
 20
89.709104
 30
0.0
 11
15.945015
 21
89.886904
 31
0.0
  0
LINE
  5
369
100
AcDbEntity
  8
text_and_logo
 62
7
100
AcDbLine
 10
15.945015
 20
89.886904
 30
0.0
 11
15.767214
 21
90.064705
 31
0.0
  0
LINE
  5
36a
100
AcDbEntity
  8
text_and_logo
 62
7
100
AcDbLine
 10
15.767214
 20
90.064705
 30
0.0
 11
15.589414
 21
90.155016
 31
0.0
  0
LINE
  5
36b
100
AcDbEntity
  8
text_and_logo
 62
7
100
AcDbLine
 10
15.589414
 20
90.155016
 30
0.0
 11
15.233813
 21
90.155016
 31
0.0
  0
LINE
  5
36c
100
AcDbEntity
  8
text_and_logo
 62
7
100
AcDbLine
 10
15.499103
 20
88.642301
 30
0.0
 11
16.035326
 21
88.108900
 31
0.0
  0
LINE
  5
36d
100
AcDbEntity
  8
text_and_logo
 62
7
100
AcDbLine
 10
16.743711
 20
90.155016
 30
0.0
 11
16.743711
 21
88.820101
 31
0.0
  0
LINE
  5
36e
100
AcDbEntity
  8
text_and_logo
 62
7
100
AcDbLine
 10
16.743711
 20
88.820101
 30
0.0
 11
16.834022
 21
88.553401
 31
0.0
  0
LINE
  5
36f
100
AcDbEntity
  8
text_and_logo
 62
7
100
AcDbLine
 10
16.834022
 20
88.553401
 30
0.0
 11
17.011822
 21
88.375600
 31
0.0
  0
LINE
  5
370
100
AcDbEntity
  8
text_and_logo
 62
7
100
AcDbLine
 10
17.011822
 20
88.375600
 30
0.0
 11
17.279934
 21
88.286700
 31
0.0
  0
LINE
  5
371
100
AcDbEntity
  8
text_and_logo
 62
7
100
AcDbLine
 10
17.279934
 20
88.286700
 30
0.0
 11
17.454913
 21
88.286700
 31
0.0
  0
LINE
  5
372
100
AcDbEntity
  8
text_and_logo
 62
7
100
AcDbLine
 10
17.454913
 20
88.286700
 30
0.0
 11
17.723024
 21
88.375600
 31
0.0
  0
LINE
  5
373
100
AcDbEntity
  8
text_and_logo
 62
7
100
AcDbLine
 10
17.723024
 20
88.375600
 30
0.0
 11
17.900825
 21
88.553401
 31
0.0
  0
LINE
  5
374
100
AcDbEntity
  8
text_and_logo
 62
7
100
AcDbLine
 10
17.900825
 20
88.553401
 30
0.0
 11
17.991136
 21
88.820101
 31
0.0
  0
LINE
  5
375
100
AcDbEntity
  8
text_and_logo
 62
7
100
AcDbLine
 10
17.991136
 20
88.820101
 30
0.0
 11
17.991136
 21
90.155016
 31
0.0
  0
LINE
  5
376
100
AcDbEntity
  8
text_and_logo
 62
7
100
AcDbLine
 10
18.699511
 20
90.155016
 30
0.0
 11
18.699511
 21
88.286700
 31
0.0
  0
LINE
  5
377
100
AcDbEntity
  8
text_and_logo
 62
7
100
AcDbLine
 10
18.699511
 20
90.155016
 30
0.0
 11
19.856625
 21
90.155016
 31
0.0
  0
LINE
  5
378
100
AcDbEntity
  8
text_and_logo
 62
7
100
AcDbLine
 10
18.699511
 20
89.263192
 30
0.0
 11
19.410713
 21
89.263192
 31
0.0
  0
LINE
  5
379
100
AcDbEntity
  8
text_and_logo
 62
7
100
AcDbLine
 10
18.699511
 20
88.286700
 30
0.0
 11
19.856625
 21
88.286700
 31
0.0
  0
LINE
  5
37a
100
AcDbEntity
  8
text_and_logo
 62
7
100
AcDbLine
 10
20.387191
 20
90.155016
 30
0.0
 11
20.387191
 21
88.286700
 31
0.0
  0
LINE
  5
37b
100
AcDbEntity
  8
text_and_logo
 62
7
100
AcDbLine
 10
20.387191
 20
90.155016
 30
0.0
 11
21.634616
 21
88.286700
 31
0.0
  0
LINE
  5
37c
100
AcDbEntity
  8
text_and_logo
 62
7
100
AcDbLine
 10
21.634616
 20
90.155016
 30
0.0
 11
21.634616
 21
88.286700
 31
0.0
  0
LINE
  5
37d
100
AcDbEntity
  8
text_and_logo
 62
7
100
AcDbLine
 10
23.590416
 20
89.709104
 30
0.0
 11
23.500105
 21
89.886904
 31
0.0
  0
LINE
  5
37e
100
AcDbEntity
  8
text_and_logo
 62
7
100
AcDbLine
 10
23.500105
 20
89.886904
 30
0.0
 11
23.322304
 21
90.064705
 31
0.0
  0
LINE
  5
37f
100
AcDbEntity
  8
text_and_logo
 62
7
100
AcDbLine
 10
23.322304
 20
90.064705
 30
0.0
 11
23.144504
 21
90.155016
 31
0.0
  0
LINE
  5
380
100
AcDbEntity
  8
text_and_logo
 62
7
100
AcDbLine
 10
23.144504
 20
90.155016
 30
0.0
 11
22.788903
 21
90.155016
 31
0.0
  0
LINE
  5
381
100
AcDbEntity
  8
text_and_logo
 62
7
100
AcDbLine
 10
22.788903
 20
90.155016
 30
0.0
 11
22.611102
 21
90.064705
 31
0.0
  0
LINE
  5
382
100
AcDbEntity
  8
text_and_logo
 62
7
100
AcDbLine
 10
22.611102
 20
90.064705
 30
0.0
 11
22.433302
 21
89.886904
 31
0.0
  0
LINE
  5
383
100
AcDbEntity
  8
text_and_logo
 62
7
100
AcDbLine
 10
22.433302
 20
89.886904
 30
0.0
 11
22.342991
 21
89.709104
 31
0.0
  0
LINE
  5
384
100
AcDbEntity
  8
text_and_logo
 62
7
100
AcDbLine
 10
22.342991
 20
89.709104
 30
0.0
 11
22.255501
 21
89.443814
 31
0.0
  0
LINE
  5
385
100
AcDbEntity
  8
text_and_logo
 62
7
100
AcDbLine
 10
22.255501
 20
89.443814
 30
0.0
 11
22.255501
 21
88.997902
 31
0.0
  0
LINE
  5
386
100
AcDbEntity
  8
text_and_logo
 62
7
100
AcDbLine
 10
22.255501
 20
88.997902
 30
0.0
 11
22.342991
 21
88.732612
 31
0.0
  0
LINE
  5
387
100
AcDbEntity
  8
text_and_logo
 62
7
100
AcDbLine
 10
22.342991
 20
88.732612
 30
0.0
 11
22.433302
 21
88.553401
 31
0.0
  0
LINE
  5
388
100
AcDbEntity
  8
text_and_logo
 62
7
100
AcDbLine
 10
22.433302
 20
88.553401
 30
0.0
 11
22.611102
 21
88.375600
 31
0.0
  0
LINE
  5
389
100
AcDbEntity
  8
text_and_logo
 62
7
100
AcDbLine
 10
22.611102
 20
88.375600
 30
0.0
 11
22.788903
 21
88.286700
 31
0.0
  0
LINE
  5
38a
100
AcDbEntity
  8
text_and_logo
 62
7
100
AcDbLine
 10
22.788903
 20
88.286700
 30
0.0
 11
23.144504
 21
88.286700
 31
0.0
  0
LINE
  5
38b
100
AcDbEntity
  8
text_and_logo
 62
7
100
AcDbLine
 10
23.144504
 20
88.286700
 30
0.0
 11
23.322304
 21
88.375600
 31
0.0
  0
LINE
  5
38c
100
AcDbEntity
  8
text_and_logo
 62
7
100
AcDbLine
 10
23.322304
 20
88.375600
 30
0.0
 11
23.500105
 21
88.553401
 31
0.0
  0
LINE
  5
38d
100
AcDbEntity
  8
text_and_logo
 62
7
100
AcDbLine
 10
23.500105
 20
88.553401
 30
0.0
 11
23.590416
 21
88.732612
 31
0.0
  0
LINE
  5
38e
100
AcDbEntity
  8
text_and_logo
 62
7
100
AcDbLine
 10
23.946001
 20
90.155016
 30
0.0
 11
24.657203
 21
89.263192
 31
0.0
  0
LINE
  5
38f
100
AcDbEntity
  8
text_and_logo
 62
7
100
AcDbLine
 10
24.657203
 20
89.263192
 30
0.0
 11
24.657203
 21
88.286700
 31
0.0
  0
LINE
  5
390
100
AcDbEntity
  8
text_and_logo
 62
7
100
AcDbLine
 10
25.368405
 20
90.155016
 30
0.0
 11
24.657203
 21
89.263192
 31
0.0
  0
LINE
  5
391
100
AcDbEntity
  8
text_and_logo
 62
7
100
AcDbLine
 10
6.673605
 20
112.518304
 30
0.0
 11
6.495804
 21
112.696105
 31
0.0
  0
LINE
  5
392
100
AcDbEntity
  8
text_and_logo
 62
7
100
AcDbLine
 10
6.495804
 20
112.696105
 30
0.0
 11
6.227693
 21
112.786416
 31
0.0
  0
LINE
  5
393
100
AcDbEntity
  8
text_and_logo
 62
7
100
AcDbLine
 10
6.227693
 20
112.786416
 30
0.0
 11
5.872092
 21
112.786416
 31
0.0
  0
LINE
  5
394
100
AcDbEntity
  8
text_and_logo
 62
7
100
AcDbLine
 10
5.872092
 20
112.786416
 30
0.0
 11
5.606802
 21
112.696105
 31
0.0
  0
LINE
  5
395
100
AcDbEntity
  8
text_and_logo
 62
7
100
AcDbLine
 10
5.606802
 20
112.696105
 30
0.0
 11
5.429001
 21
112.518304
 31
0.0
  0
LINE
  5
396
100
AcDbEntity
  8
text_and_logo
 62
7
100
AcDbLine
 10
5.429001
 20
112.518304
 30
0.0
 11
5.429001
 21
112.340504
 31
0.0
  0
LINE
  5
397
100
AcDbEntity
  8
text_and_logo
 62
7
100
AcDbLine
 10
5.429001
 20
112.340504
 30
0.0
 11
5.516491
 21
112.162703
 31
0.0
  0
LINE
  5
398
100
AcDbEntity
  8
text_and_logo
 62
7
100
AcDbLine
 10
5.516491
 20
112.162703
 30
0.0
 11
5.606802
 21
112.075214
 31
0.0
  0
LINE
  5
399
100
AcDbEntity
  8
text_and_logo
 62
7
100
AcDbLine
 10
5.606802
 20
112.075214
 30
0.0
 11
5.784602
 21
111.984903
 31
0.0
  0
LINE
  5
39a
100
AcDbEntity
  8
text_and_logo
 62
7
100
AcDbLine
 10
5.784602
 20
111.984903
 30
0.0
 11
6.318004
 21
111.807102
 31
0.0
  0
LINE
  5
39b
100
AcDbEntity
  8
text_and_logo
 62
7
100
AcDbLine
 10
6.318004
 20
111.807102
 30
0.0
 11
6.495804
 21
111.719613
 31
0.0
  0
LINE
  5
39c
100
AcDbEntity
  8
text_and_logo
 62
7
100
AcDbLine
 10
6.495804
 20
111.719613
 30
0.0
 11
6.583294
 21
111.629302
 31
0.0
  0
LINE
  5
39d
100
AcDbEntity
  8
text_and_logo
 62
7
100
AcDbLine
 10
6.583294
 20
111.629302
 30
0.0
 11
6.673605
 21
111.451501
 31
0.0
  0
LINE
  5
39e
100
AcDbEntity
  8
text_and_logo
 62
7
100
AcDbLine
 10
6.673605
 20
111.451501
 30
0.0
 11
6.673605
 21
111.184801
 31
0.0
  0
LINE
  5
39f
100
AcDbEntity
  8
text_and_logo
 62
7
100
AcDbLine
 10
6.673605
 20
111.184801
 30
0.0
 11
6.495804
 21
111.007000
 31
0.0
  0
LINE
  5
3a0
100
AcDbEntity
  8
text_and_logo
 62
7
100
AcDbLine
 10
6.495804
 20
111.007000
 30
0.0
 11
6.227693
 21
110.918100
 31
0.0
  0
LINE
  5
3a1
100
AcDbEntity
  8
text_and_logo
 62
7
100
AcDbLine
 10
6.227693
 20
110.918100
 30
0.0
 11
5.872092
 21
110.918100
 31
0.0
  0
LINE
  5
3a2
100
AcDbEntity
  8
text_and_logo
 62
7
100
AcDbLine
 10
5.872092
 20
110.918100
 30
0.0
 11
5.606802
 21
111.007000
 31
0.0
  0
LINE
  5
3a3
100
AcDbEntity
  8
text_and_logo
 62
7
100
AcDbLine
 10
5.606802
 20
111.007000
 30
0.0
 11
5.429001
 21
111.184801
 31
0.0
  0
LINE
  5
3a4
100
AcDbEntity
  8
text_and_logo
 62
7
100
AcDbLine
 10
7.029201
 20
112.786416
 30
0.0
 11
7.740403
 21
111.894592
 31
0.0
  0
LINE
  5
3a5
100
AcDbEntity
  8
text_and_logo
 62
7
100
AcDbLine
 10
7.740403
 20
111.894592
 30
0.0
 11
7.740403
 21
110.918100
 31
0.0
  0
LINE
  5
3a6
100
AcDbEntity
  8
text_and_logo
 62
7
100
AcDbLine
 10
8.451605
 20
112.786416
 30
0.0
 11
7.740403
 21
111.894592
 31
0.0
  0
LINE
  5
3a7
100
AcDbEntity
  8
text_and_logo
 62
7
100
AcDbLine
 10
8.894701
 20
112.786416
 30
0.0
 11
8.894701
 21
110.918100
 31
0.0
  0
LINE
  5
3a8
100
AcDbEntity
  8
text_and_logo
 62
7
100
AcDbLine
 10
8.894701
 20
112.786416
 30
0.0
 11
10.142126
 21
110.918100
 31
0.0
  0
LINE
  5
3a9
100
AcDbEntity
  8
text_and_logo
 62
7
100
AcDbLine
 10
10.142126
 20
112.786416
 30
0.0
 11
10.142126
 21
110.918100
 31
0.0
  0
LINE
  5
3aa
100
AcDbEntity
  8
text_and_logo
 62
7
100
AcDbLine
 10
12.097926
 20
112.340504
 30
0.0
 11
12.007615
 21
112.518304
 31
0.0
  0
LINE
  5
3ab
100
AcDbEntity
  8
text_and_logo
 62
7
100
AcDbLine
 10
12.007615
 20
112.518304
 30
0.0
 11
11.829814
 21
112.696105
 31
0.0
  0
LINE
  5
3ac
100
AcDbEntity
  8
text_and_logo
 62
7
100
AcDbLine
 10
11.829814
 20
112.696105
 30
0.0
 11
11.652014
 21
112.786416
 31
0.0
  0
LINE
  5
3ad
100
AcDbEntity
  8
text_and_logo
 62
7
100
AcDbLine
 10
11.652014
 20
112.786416
 30
0.0
 11
11.296413
 21
112.786416
 31
0.0
  0
LINE
  5
3ae
100
AcDbEntity
  8
text_and_logo
 62
7
100
AcDbLine
 10
11.296413
 20
112.786416
 30
0.0
 11
11.118612
 21
112.696105
 31
0.0
  0
LINE
  5
3af
100
AcDbEntity
  8
text_and_logo
 62
7
100
AcDbLine
 10
11.118612
 20
112.696105
 30
0.0
 11
10.940812
 21
112.518304
 31
0.0
  0
LINE
  5
3b0
100
AcDbEntity
  8
text_and_logo
 62
7
100
AcDbLine
 10
10.940812
 20
112.518304
 30
0.0
 11
10.850501
 21
112.340504
 31
0.0
  0
LINE
  5
3b1
100
AcDbEntity
  8
text_and_logo
 62
7
100
AcDbLine
 10
10.850501
 20
112.340504
 30
0.0
 11
10.763011
 21
112.075214
 31
0.0
  0
LINE
  5
3b2
100
AcDbEntity
  8
text_and_logo
 62
7
100
AcDbLine
 10
10.763011
 20
112.075214
 30
0.0
 11
10.763011
 21
111.629302
 31
0.0
  0
LINE
  5
3b3
100
AcDbEntity
  8
text_and_logo
 62
7
100
AcDbLine
 10
10.763011
 20
111.629302
 30
0.0
 11
10.850501
 21
111.364012
 31
0.0
  0
LINE
  5
3b4
100
AcDbEntity
  8
text_and_logo
 62
7
100
AcDbLine
 10
10.850501
 20
111.364012
 30
0.0
 11
10.940812
 21
111.184801
 31
0.0
  0
LINE
  5
3b5
100
AcDbEntity
  8
text_and_logo
 62
7
100
AcDbLine
 10
10.940812
 20
111.184801
 30
0.0
 11
11.118612
 21
111.007000
 31
0.0
  0
LINE
  5
3b6
100
AcDbEntity
  8
text_and_logo
 62
7
100
AcDbLine
 10
11.118612
 20
111.007000
 30
0.0
 11
11.296413
 21
110.918100
 31
0.0
  0
LINE
  5
3b7
100
AcDbEntity
  8
text_and_logo
 62
7
100
AcDbLine
 10
11.296413
 20
110.918100
 30
0.0
 11
11.652014
 21
110.918100
 31
0.0
  0
LINE
  5
3b8
100
AcDbEntity
  8
text_and_logo
 62
7
100
AcDbLine
 10
11.652014
 20
110.918100
 30
0.0
 11
11.829814
 21
111.007000
 31
0.0
  0
LINE
  5
3b9
100
AcDbEntity
  8
text_and_logo
 62
7
100
AcDbLine
 10
11.829814
 20
111.007000
 30
0.0
 11
12.007615
 21
111.184801
 31
0.0
  0
LINE
  5
3ba
100
AcDbEntity
  8
text_and_logo
 62
7
100
AcDbLine
 10
12.007615
 20
111.184801
 30
0.0
 11
12.097926
 21
111.364012
 31
0.0
  0
LINE
  5
3bb
100
AcDbEntity
  8
text_and_logo
 62
7
100
AcDbLine
 10
27.237282
 20
115.534136
 30
0.0
 11
27.237282
 21
113.665820
 31
0.0
  0
LINE
  5
3bc
100
AcDbEntity
  8
text_and_logo
 62
7
100
AcDbLine
 10
26.616391
 20
115.534136
 30
0.0
 11
27.860994
 21
115.534136
 31
0.0
  0
LINE
  5
3bd
100
AcDbEntity
  8
text_and_logo
 62
7
100
AcDbLine
 10
28.749993
 20
115.534136
 30
0.0
 11
28.038791
 21
113.665820
 31
0.0
  0
LINE
  5
3be
100
AcDbEntity
  8
text_and_logo
 62
7
100
AcDbLine
 10
28.749993
 20
115.534136
 30
0.0
 11
29.461195
 21
113.665820
 31
0.0
  0
LINE
  5
3bf
100
AcDbEntity
  8
text_and_logo
 62
7
100
AcDbLine
 10
28.304081
 20
114.286711
 30
0.0
 11
29.195905
 21
114.286711
 31
0.0
  0
LINE
  5
3c0
100
AcDbEntity
  8
text_and_logo
 62
7
100
AcDbLine
 10
29.904291
 20
115.534136
 30
0.0
 11
29.904291
 21
113.665820
 31
0.0
  0
LINE
  5
3c1
100
AcDbEntity
  8
text_and_logo
 62
7
100
AcDbLine
 10
29.904291
 20
115.534136
 30
0.0
 11
30.705804
 21
115.534136
 31
0.0
  0
LINE
  5
3c2
100
AcDbEntity
  8
text_and_logo
 62
7
100
AcDbLine
 10
30.705804
 20
115.534136
 30
0.0
 11
30.971094
 21
115.443825
 31
0.0
  0
LINE
  5
3c3
100
AcDbEntity
  8
text_and_logo
 62
7
100
AcDbLine
 10
30.971094
 20
115.443825
 30
0.0
 11
31.061405
 21
115.353514
 31
0.0
  0
LINE
  5
3c4
100
AcDbEntity
  8
text_and_logo
 62
7
100
AcDbLine
 10
31.061405
 20
115.353514
 30
0.0
 11
31.151716
 21
115.178535
 31
0.0
  0
LINE
  5
3c5
100
AcDbEntity
  8
text_and_logo
 62
7
100
AcDbLine
 10
31.151716
 20
115.178535
 30
0.0
 11
31.151716
 21
114.910423
 31
0.0
  0
LINE
  5
3c6
100
AcDbEntity
  8
text_and_logo
 62
7
100
AcDbLine
 10
31.151716
 20
114.910423
 30
0.0
 11
31.061405
 21
114.732623
 31
0.0
  0
LINE
  5
3c7
100
AcDbEntity
  8
text_and_logo
 62
7
100
AcDbLine
 10
31.061405
 20
114.732623
 30
0.0
 11
30.971094
 21
114.642312
 31
0.0
  0
LINE
  5
3c8
100
AcDbEntity
  8
text_and_logo
 62
7
100
AcDbLine
 10
30.971094
 20
114.642312
 30
0.0
 11
30.705804
 21
114.554822
 31
0.0
  0
LINE
  5
3c9
100
AcDbEntity
  8
text_and_logo
 62
7
100
AcDbLine
 10
30.705804
 20
114.554822
 30
0.0
 11
29.904291
 21
114.554822
 31
0.0
  0
LINE
  5
3ca
100
AcDbEntity
  8
text_and_logo
 62
7
100
AcDbLine
 10
25.148882
 20
112.744136
 30
0.0
 11
25.148882
 21
110.875820
 31
0.0
  0
LINE
  5
3cb
100
AcDbEntity
  8
text_and_logo
 62
7
100
AcDbLine
 10
24.527991
 20
112.744136
 30
0.0
 11
25.772594
 21
112.744136
 31
0.0
  0
LINE
  5
3cc
100
AcDbEntity
  8
text_and_logo
 62
7
100
AcDbLine
 10
26.215681
 20
112.744136
 30
0.0
 11
26.215681
 21
110.875820
 31
0.0
  0
LINE
  5
3cd
100
AcDbEntity
  8
text_and_logo
 62
7
100
AcDbLine
 10
26.215681
 20
112.744136
 30
0.0
 11
27.372795
 21
112.744136
 31
0.0
  0
LINE
  5
3ce
100
AcDbEntity
  8
text_and_logo
 62
7
100
AcDbLine
 10
26.215681
 20
111.852312
 30
0.0
 11
26.926883
 21
111.852312
 31
0.0
  0
LINE
  5
3cf
100
AcDbEntity
  8
text_and_logo
 62
7
100
AcDbLine
 10
26.215681
 20
110.875820
 30
0.0
 11
27.372795
 21
110.875820
 31
0.0
  0
LINE
  5
3d0
100
AcDbEntity
  8
text_and_logo
 62
7
100
AcDbLine
 10
27.903381
 20
112.744136
 30
0.0
 11
27.903381
 21
110.875820
 31
0.0
  0
LINE
  5
3d1
100
AcDbEntity
  8
text_and_logo
 62
7
100
AcDbLine
 10
27.903381
 20
112.744136
 30
0.0
 11
28.614583
 21
110.875820
 31
0.0
  0
LINE
  5
3d2
100
AcDbEntity
  8
text_and_logo
 62
7
100
AcDbLine
 10
29.325785
 20
112.744136
 30
0.0
 11
28.614583
 21
110.875820
 31
0.0
  0
LINE
  5
3d3
100
AcDbEntity
  8
text_and_logo
 62
7
100
AcDbLine
 10
29.325785
 20
112.744136
 30
0.0
 11
29.325785
 21
110.875820
 31
0.0
  0
LINE
  5
3d4
100
AcDbEntity
  8
text_and_logo
 62
7
100
AcDbLine
 10
30.036981
 20
112.744136
 30
0.0
 11
30.036981
 21
110.875820
 31
0.0
  0
LINE
  5
3d5
100
AcDbEntity
  8
text_and_logo
 62
7
100
AcDbLine
 10
30.036981
 20
112.744136
 30
0.0
 11
30.838494
 21
112.744136
 31
0.0
  0
LINE
  5
3d6
100
AcDbEntity
  8
text_and_logo
 62
7
100
AcDbLine
 10
30.838494
 20
112.744136
 30
0.0
 11
31.103784
 21
112.653825
 31
0.0
  0
LINE
  5
3d7
100
AcDbEntity
  8
text_and_logo
 62
7
100
AcDbLine
 10
31.103784
 20
112.653825
 30
0.0
 11
31.194095
 21
112.563514
 31
0.0
  0
LINE
  5
3d8
100
AcDbEntity
  8
text_and_logo
 62
7
100
AcDbLine
 10
31.194095
 20
112.563514
 30
0.0
 11
31.284406
 21
112.388535
 31
0.0
  0
LINE
  5
3d9
100
AcDbEntity
  8
text_and_logo
 62
7
100
AcDbLine
 10
31.284406
 20
112.388535
 30
0.0
 11
31.284406
 21
112.120423
 31
0.0
  0
LINE
  5
3da
100
AcDbEntity
  8
text_and_logo
 62
7
100
AcDbLine
 10
31.284406
 20
112.120423
 30
0.0
 11
31.194095
 21
111.942623
 31
0.0
  0
LINE
  5
3db
100
AcDbEntity
  8
text_and_logo
 62
7
100
AcDbLine
 10
31.194095
 20
111.942623
 30
0.0
 11
31.103784
 21
111.852312
 31
0.0
  0
LINE
  5
3dc
100
AcDbEntity
  8
text_and_logo
 62
7
100
AcDbLine
 10
31.103784
 20
111.852312
 30
0.0
 11
30.838494
 21
111.764822
 31
0.0
  0
LINE
  5
3dd
100
AcDbEntity
  8
text_and_logo
 62
7
100
AcDbLine
 10
30.838494
 20
111.764822
 30
0.0
 11
30.036981
 21
111.764822
 31
0.0
  0
LINE
  5
3de
100
AcDbEntity
  8
text_and_logo
 62
7
100
AcDbLine
 10
32.351213
 20
112.744136
 30
0.0
 11
32.173412
 21
112.653825
 31
0.0
  0
LINE
  5
3df
100
AcDbEntity
  8
text_and_logo
 62
7
100
AcDbLine
 10
32.173412
 20
112.653825
 30
0.0
 11
31.995612
 21
112.476024
 31
0.0
  0
LINE
  5
3e0
100
AcDbEntity
  8
text_and_logo
 62
7
100
AcDbLine
 10
31.995612
 20
112.476024
 30
0.0
 11
31.905301
 21
112.298224
 31
0.0
  0
LINE
  5
3e1
100
AcDbEntity
  8
text_and_logo
 62
7
100
AcDbLine
 10
31.905301
 20
112.298224
 30
0.0
 11
31.817811
 21
112.032934
 31
0.0
  0
LINE
  5
3e2
100
AcDbEntity
  8
text_and_logo
 62
7
100
AcDbLine
 10
31.817811
 20
112.032934
 30
0.0
 11
31.817811
 21
111.587022
 31
0.0
  0
LINE
  5
3e3
100
AcDbEntity
  8
text_and_logo
 62
7
100
AcDbLine
 10
31.817811
 20
111.587022
 30
0.0
 11
31.905301
 21
111.321732
 31
0.0
  0
LINE
  5
3e4
100
AcDbEntity
  8
text_and_logo
 62
7
100
AcDbLine
 10
31.905301
 20
111.321732
 30
0.0
 11
31.995612
 21
111.142521
 31
0.0
  0
LINE
  5
3e5
100
AcDbEntity
  8
text_and_logo
 62
7
100
AcDbLine
 10
31.995612
 20
111.142521
 30
0.0
 11
32.173412
 21
110.964720
 31
0.0
  0
LINE
  5
3e6
100
AcDbEntity
  8
text_and_logo
 62
7
100
AcDbLine
 10
32.173412
 20
110.964720
 30
0.0
 11
32.351213
 21
110.875820
 31
0.0
  0
LINE
  5
3e7
100
AcDbEntity
  8
text_and_logo
 62
7
100
AcDbLine
 10
32.351213
 20
110.875820
 30
0.0
 11
32.706814
 21
110.875820
 31
0.0
  0
LINE
  5
3e8
100
AcDbEntity
  8
text_and_logo
 62
7
100
AcDbLine
 10
32.706814
 20
110.875820
 30
0.0
 11
32.884614
 21
110.964720
 31
0.0
  0
LINE
  5
3e9
100
AcDbEntity
  8
text_and_logo
 62
7
100
AcDbLine
 10
32.884614
 20
110.964720
 30
0.0
 11
33.062415
 21
111.142521
 31
0.0
  0
LINE
  5
3ea
100
AcDbEntity
  8
text_and_logo
 62
7
100
AcDbLine
 10
33.062415
 20
111.142521
 30
0.0
 11
33.152726
 21
111.321732
 31
0.0
  0
LINE
  5
3eb
100
AcDbEntity
  8
text_and_logo
 62
7
100
AcDbLine
 10
33.152726
 20
111.321732
 30
0.0
 11
33.240215
 21
111.587022
 31
0.0
  0
LINE
  5
3ec
100
AcDbEntity
  8
text_and_logo
 62
7
100
AcDbLine
 10
33.240215
 20
111.587022
 30
0.0
 11
33.240215
 21
112.032934
 31
0.0
  0
LINE
  5
3ed
100
AcDbEntity
  8
text_and_logo
 62
7
100
AcDbLine
 10
33.240215
 20
112.032934
 30
0.0
 11
33.152726
 21
112.298224
 31
0.0
  0
LINE
  5
3ee
100
AcDbEntity
  8
text_and_logo
 62
7
100
AcDbLine
 10
33.152726
 20
112.298224
 30
0.0
 11
33.062415
 21
112.476024
 31
0.0
  0
LINE
  5
3ef
100
AcDbEntity
  8
text_and_logo
 62
7
100
AcDbLine
 10
33.062415
 20
112.476024
 30
0.0
 11
32.884614
 21
112.653825
 31
0.0
  0
LINE
  5
3f0
100
AcDbEntity
  8
text_and_logo
 62
7
100
AcDbLine
 10
32.884614
 20
112.653825
 30
0.0
 11
32.706814
 21
112.744136
 31
0.0
  0
LINE
  5
3f1
100
AcDbEntity
  8
text_and_logo
 62
7
100
AcDbLine
 10
32.706814
 20
112.744136
 30
0.0
 11
32.351213
 21
112.744136
 31
0.0
  0
LINE
  5
3f2
100
AcDbEntity
  8
text_and_logo
 62
7
100
AcDbLine
 10
3.339003
 20
44.481616
 30
0.0
 11
3.161202
 21
44.391305
 31
0.0
  0
LINE
  5
3f3
100
AcDbEntity
  8
text_and_logo
 62
7
100
AcDbLine
 10
3.161202
 20
44.391305
 30
0.0
 11
2.983402
 21
44.213504
 31
0.0
  0
LINE
  5
3f4
100
AcDbEntity
  8
text_and_logo
 62
7
100
AcDbLine
 10
2.983402
 20
44.213504
 30
0.0
 11
2.893091
 21
44.035704
 31
0.0
  0
LINE
  5
3f5
100
AcDbEntity
  8
text_and_logo
 62
7
100
AcDbLine
 10
2.893091
 20
44.035704
 30
0.0
 11
2.805601
 21
43.770414
 31
0.0
  0
LINE
  5
3f6
100
AcDbEntity
  8
text_and_logo
 62
7
100
AcDbLine
 10
2.805601
 20
43.770414
 30
0.0
 11
2.805601
 21
43.324502
 31
0.0
  0
LINE
  5
3f7
100
AcDbEntity
  8
text_and_logo
 62
7
100
AcDbLine
 10
2.805601
 20
43.324502
 30
0.0
 11
2.893091
 21
43.059212
 31
0.0
  0
LINE
  5
3f8
100
AcDbEntity
  8
text_and_logo
 62
7
100
AcDbLine
 10
2.893091
 20
43.059212
 30
0.0
 11
2.983402
 21
42.880001
 31
0.0
  0
LINE
  5
3f9
100
AcDbEntity
  8
text_and_logo
 62
7
100
AcDbLine
 10
2.983402
 20
42.880001
 30
0.0
 11
3.161202
 21
42.702200
 31
0.0
  0
LINE
  5
3fa
100
AcDbEntity
  8
text_and_logo
 62
7
100
AcDbLine
 10
3.161202
 20
42.702200
 30
0.0
 11
3.339003
 21
42.613300
 31
0.0
  0
LINE
  5
3fb
100
AcDbEntity
  8
text_and_logo
 62
7
100
AcDbLine
 10
3.339003
 20
42.613300
 30
0.0
 11
3.694604
 21
42.613300
 31
0.0
  0
LINE
  5
3fc
100
AcDbEntity
  8
text_and_logo
 62
7
100
AcDbLine
 10
3.694604
 20
42.613300
 30
0.0
 11
3.872404
 21
42.702200
 31
0.0
  0
LINE
  5
3fd
100
AcDbEntity
  8
text_and_logo
 62
7
100
AcDbLine
 10
3.872404
 20
42.702200
 30
0.0
 11
4.050205
 21
42.880001
 31
0.0
  0
LINE
  5
3fe
100
AcDbEntity
  8
text_and_logo
 62
7
100
AcDbLine
 10
4.050205
 20
42.880001
 30
0.0
 11
4.140516
 21
43.059212
 31
0.0
  0
LINE
  5
3ff
100
AcDbEntity
  8
text_and_logo
 62
7
100
AcDbLine
 10
4.140516
 20
43.059212
 30
0.0
 11
4.228005
 21
43.324502
 31
0.0
  0
LINE
  5
400
100
AcDbEntity
  8
text_and_logo
 62
7
100
AcDbLine
 10
4.228005
 20
43.324502
 30
0.0
 11
4.228005
 21
43.770414
 31
0.0
  0
LINE
  5
401
100
AcDbEntity
  8
text_and_logo
 62
7
100
AcDbLine
 10
4.228005
 20
43.770414
 30
0.0
 11
4.140516
 21
44.035704
 31
0.0
  0
LINE
  5
402
100
AcDbEntity
  8
text_and_logo
 62
7
100
AcDbLine
 10
4.140516
 20
44.035704
 30
0.0
 11
4.050205
 21
44.213504
 31
0.0
  0
LINE
  5
403
100
AcDbEntity
  8
text_and_logo
 62
7
100
AcDbLine
 10
4.050205
 20
44.213504
 30
0.0
 11
3.872404
 21
44.391305
 31
0.0
  0
LINE
  5
404
100
AcDbEntity
  8
text_and_logo
 62
7
100
AcDbLine
 10
3.872404
 20
44.391305
 30
0.0
 11
3.694604
 21
44.481616
 31
0.0
  0
LINE
  5
405
100
AcDbEntity
  8
text_and_logo
 62
7
100
AcDbLine
 10
3.694604
 20
44.481616
 30
0.0
 11
3.339003
 21
44.481616
 31
0.0
  0
LINE
  5
406
100
AcDbEntity
  8
text_and_logo
 62
7
100
AcDbLine
 10
4.848901
 20
44.481616
 30
0.0
 11
4.848901
 21
42.613300
 31
0.0
  0
LINE
  5
407
100
AcDbEntity
  8
text_and_logo
 62
7
100
AcDbLine
 10
4.848901
 20
44.481616
 30
0.0
 11
6.006015
 21
44.481616
 31
0.0
  0
LINE
  5
408
100
AcDbEntity
  8
text_and_logo
 62
7
100
AcDbLine
 10
4.848901
 20
43.589792
 30
0.0
 11
5.560103
 21
43.589792
 31
0.0
  0
LINE
  5
409
100
AcDbEntity
  8
text_and_logo
 62
7
100
AcDbLine
 10
6.449101
 20
44.481616
 30
0.0
 11
6.449101
 21
42.613300
 31
0.0
  0
LINE
  5
40a
100
AcDbEntity
  8
text_and_logo
 62
7
100
AcDbLine
 10
6.449101
 20
44.481616
 30
0.0
 11
7.606215
 21
44.481616
 31
0.0
  0
LINE
  5
40b
100
AcDbEntity
  8
text_and_logo
 62
7
100
AcDbLine
 10
6.449101
 20
43.589792
 30
0.0
 11
7.160303
 21
43.589792
 31
0.0
  0
LINE
  5
40c
100
AcDbEntity
  8
text_and_logo
 62
7
100
AcDbLine
 10
9.206415
 20
44.213504
 30
0.0
 11
9.028614
 21
44.391305
 31
0.0
  0
LINE
  5
40d
100
AcDbEntity
  8
text_and_logo
 62
7
100
AcDbLine
 10
9.028614
 20
44.391305
 30
0.0
 11
8.760503
 21
44.481616
 31
0.0
  0
LINE
  5
40e
100
AcDbEntity
  8
text_and_logo
 62
7
100
AcDbLine
 10
8.760503
 20
44.481616
 30
0.0
 11
8.404902
 21
44.481616
 31
0.0
  0
LINE
  5
40f
100
AcDbEntity
  8
text_and_logo
 62
7
100
AcDbLine
 10
8.404902
 20
44.481616
 30
0.0
 11
8.139612
 21
44.391305
 31
0.0
  0
LINE
  5
410
100
AcDbEntity
  8
text_and_logo
 62
7
100
AcDbLine
 10
8.139612
 20
44.391305
 30
0.0
 11
7.961811
 21
44.213504
 31
0.0
  0
LINE
  5
411
100
AcDbEntity
  8
text_and_logo
 62
7
100
AcDbLine
 10
7.961811
 20
44.213504
 30
0.0
 11
7.961811
 21
44.035704
 31
0.0
  0
LINE
  5
412
100
AcDbEntity
  8
text_and_logo
 62
7
100
AcDbLine
 10
7.961811
 20
44.035704
 30
0.0
 11
8.049301
 21
43.857903
 31
0.0
  0
LINE
  5
413
100
AcDbEntity
  8
text_and_logo
 62
7
100
AcDbLine
 10
8.049301
 20
43.857903
 30
0.0
 11
8.139612
 21
43.770414
 31
0.0
  0
LINE
  5
414
100
AcDbEntity
  8
text_and_logo
 62
7
100
AcDbLine
 10
8.139612
 20
43.770414
 30
0.0
 11
8.317412
 21
43.680103
 31
0.0
  0
LINE
  5
415
100
AcDbEntity
  8
text_and_logo
 62
7
100
AcDbLine
 10
8.317412
 20
43.680103
 30
0.0
 11
8.850814
 21
43.502302
 31
0.0
  0
LINE
  5
416
100
AcDbEntity
  8
text_and_logo
 62
7
100
AcDbLine
 10
8.850814
 20
43.502302
 30
0.0
 11
9.028614
 21
43.414813
 31
0.0
  0
LINE
  5
417
100
AcDbEntity
  8
text_and_logo
 62
7
100
AcDbLine
 10
9.028614
 20
43.414813
 30
0.0
 11
9.116104
 21
43.324502
 31
0.0
  0
LINE
  5
418
100
AcDbEntity
  8
text_and_logo
 62
7
100
AcDbLine
 10
9.116104
 20
43.324502
 30
0.0
 11
9.206415
 21
43.146701
 31
0.0
  0
LINE
  5
419
100
AcDbEntity
  8
text_and_logo
 62
7
100
AcDbLine
 10
9.206415
 20
43.146701
 30
0.0
 11
9.206415
 21
42.880001
 31
0.0
  0
LINE
  5
41a
100
AcDbEntity
  8
text_and_logo
 62
7
100
AcDbLine
 10
9.206415
 20
42.880001
 30
0.0
 11
9.028614
 21
42.702200
 31
0.0
  0
LINE
  5
41b
100
AcDbEntity
  8
text_and_logo
 62
7
100
AcDbLine
 10
9.028614
 20
42.702200
 30
0.0
 11
8.760503
 21
42.613300
 31
0.0
  0
LINE
  5
41c
100
AcDbEntity
  8
text_and_logo
 62
7
100
AcDbLine
 10
8.760503
 20
42.613300
 30
0.0
 11
8.404902
 21
42.613300
 31
0.0
  0
LINE
  5
41d
100
AcDbEntity
  8
text_and_logo
 62
7
100
AcDbLine
 10
8.404902
 20
42.613300
 30
0.0
 11
8.139612
 21
42.702200
 31
0.0
  0
LINE
  5
41e
100
AcDbEntity
  8
text_and_logo
 62
7
100
AcDbLine
 10
8.139612
 20
42.702200
 30
0.0
 11
7.961811
 21
42.880001
 31
0.0
  0
LINE
  5
41f
100
AcDbEntity
  8
text_and_logo
 62
7
100
AcDbLine
 10
9.827311
 20
44.481616
 30
0.0
 11
9.827311
 21
42.613300
 31
0.0
  0
LINE
  5
420
100
AcDbEntity
  8
text_and_logo
 62
7
100
AcDbLine
 10
9.827311
 20
44.481616
 30
0.0
 11
10.984425
 21
44.481616
 31
0.0
  0
LINE
  5
421
100
AcDbEntity
  8
text_and_logo
 62
7
100
AcDbLine
 10
9.827311
 20
43.589792
 30
0.0
 11
10.538513
 21
43.589792
 31
0.0
  0
LINE
  5
422
100
AcDbEntity
  8
text_and_logo
 62
7
100
AcDbLine
 10
9.827311
 20
42.613300
 30
0.0
 11
10.984425
 21
42.613300
 31
0.0
  0
LINE
  5
423
100
AcDbEntity
  8
text_and_logo
 62
7
100
AcDbLine
 10
11.870602
 20
44.481616
 30
0.0
 11
11.870602
 21
42.613300
 31
0.0
  0
LINE
  5
424
100
AcDbEntity
  8
text_and_logo
 62
7
100
AcDbLine
 10
11.249711
 20
44.481616
 30
0.0
 11
12.494314
 21
44.481616
 31
0.0
  0
LINE
  5
425
100
AcDbEntity
  8
text_and_logo
 62
7
100
AcDbLine
 10
23.302891
 20
44.481616
 30
0.0
 11
23.302891
 21
42.613300
 31
0.0
  0
LINE
  5
426
100
AcDbEntity
  8
text_and_logo
 62
7
100
AcDbLine
 10
23.302891
 20
44.481616
 30
0.0
 11
23.926603
 21
44.481616
 31
0.0
  0
LINE
  5
427
100
AcDbEntity
  8
text_and_logo
 62
7
100
AcDbLine
 10
23.926603
 20
44.481616
 30
0.0
 11
24.194715
 21
44.391305
 31
0.0
  0
LINE
  5
428
100
AcDbEntity
  8
text_and_logo
 62
7
100
AcDbLine
 10
24.194715
 20
44.391305
 30
0.0
 11
24.369694
 21
44.213504
 31
0.0
  0
LINE
  5
429
100
AcDbEntity
  8
text_and_logo
 62
7
100
AcDbLine
 10
24.369694
 20
44.213504
 30
0.0
 11
24.460005
 21
44.035704
 31
0.0
  0
LINE
  5
42a
100
AcDbEntity
  8
text_and_logo
 62
7
100
AcDbLine
 10
24.460005
 20
44.035704
 30
0.0
 11
24.550316
 21
43.770414
 31
0.0
  0
LINE
  5
42b
100
AcDbEntity
  8
text_and_logo
 62
7
100
AcDbLine
 10
24.550316
 20
43.770414
 30
0.0
 11
24.550316
 21
43.324502
 31
0.0
  0
LINE
  5
42c
100
AcDbEntity
  8
text_and_logo
 62
7
100
AcDbLine
 10
24.550316
 20
43.324502
 30
0.0
 11
24.460005
 21
43.059212
 31
0.0
  0
LINE
  5
42d
100
AcDbEntity
  8
text_and_logo
 62
7
100
AcDbLine
 10
24.460005
 20
43.059212
 30
0.0
 11
24.369694
 21
42.880001
 31
0.0
  0
LINE
  5
42e
100
AcDbEntity
  8
text_and_logo
 62
7
100
AcDbLine
 10
24.369694
 20
42.880001
 30
0.0
 11
24.194715
 21
42.702200
 31
0.0
  0
LINE
  5
42f
100
AcDbEntity
  8
text_and_logo
 62
7
100
AcDbLine
 10
24.194715
 20
42.702200
 30
0.0
 11
23.926603
 21
42.613300
 31
0.0
  0
LINE
  5
430
100
AcDbEntity
  8
text_and_logo
 62
7
100
AcDbLine
 10
23.926603
 20
42.613300
 30
0.0
 11
23.302891
 21
42.613300
 31
0.0
  0
LINE
  5
431
100
AcDbEntity
  8
text_and_logo
 62
7
100
AcDbLine
 10
25.171211
 20
44.481616
 30
0.0
 11
25.171211
 21
42.613300
 31
0.0
  0
LINE
  5
432
100
AcDbEntity
  8
text_and_logo
 62
7
100
AcDbLine
 10
25.171211
 20
44.481616
 30
0.0
 11
26.328325
 21
44.481616
 31
0.0
  0
LINE
  5
433
100
AcDbEntity
  8
text_and_logo
 62
7
100
AcDbLine
 10
25.171211
 20
43.589792
 30
0.0
 11
25.882413
 21
43.589792
 31
0.0
  0
LINE
  5
434
100
AcDbEntity
  8
text_and_logo
 62
7
100
AcDbLine
 10
25.171211
 20
42.613300
 30
0.0
 11
26.328325
 21
42.613300
 31
0.0
  0
LINE
  5
435
100
AcDbEntity
  8
text_and_logo
 62
7
100
AcDbLine
 10
26.858901
 20
44.481616
 30
0.0
 11
26.858901
 21
42.613300
 31
0.0
  0
LINE
  5
436
100
AcDbEntity
  8
text_and_logo
 62
7
100
AcDbLine
 10
26.858901
 20
44.481616
 30
0.0
 11
27.660414
 21
44.481616
 31
0.0
  0
LINE
  5
437
100
AcDbEntity
  8
text_and_logo
 62
7
100
AcDbLine
 10
27.660414
 20
44.481616
 30
0.0
 11
27.925704
 21
44.391305
 31
0.0
  0
LINE
  5
438
100
AcDbEntity
  8
text_and_logo
 62
7
100
AcDbLine
 10
27.925704
 20
44.391305
 30
0.0
 11
28.016015
 21
44.300994
 31
0.0
  0
LINE
  5
439
100
AcDbEntity
  8
text_and_logo
 62
7
100
AcDbLine
 10
28.016015
 20
44.300994
 30
0.0
 11
28.106326
 21
44.126015
 31
0.0
  0
LINE
  5
43a
100
AcDbEntity
  8
text_and_logo
 62
7
100
AcDbLine
 10
28.106326
 20
44.126015
 30
0.0
 11
28.106326
 21
43.857903
 31
0.0
  0
LINE
  5
43b
100
AcDbEntity
  8
text_and_logo
 62
7
100
AcDbLine
 10
28.106326
 20
43.857903
 30
0.0
 11
28.016015
 21
43.680103
 31
0.0
  0
LINE
  5
43c
100
AcDbEntity
  8
text_and_logo
 62
7
100
AcDbLine
 10
28.016015
 20
43.680103
 30
0.0
 11
27.925704
 21
43.589792
 31
0.0
  0
LINE
  5
43d
100
AcDbEntity
  8
text_and_logo
 62
7
100
AcDbLine
 10
27.925704
 20
43.589792
 30
0.0
 11
27.660414
 21
43.502302
 31
0.0
  0
LINE
  5
43e
100
AcDbEntity
  8
text_and_logo
 62
7
100
AcDbLine
 10
27.660414
 20
43.502302
 30
0.0
 11
26.858901
 21
43.502302
 31
0.0
  0
LINE
  5
43f
100
AcDbEntity
  8
text_and_logo
 62
7
100
AcDbLine
 10
29.082822
 20
44.481616
 30
0.0
 11
29.082822
 21
42.613300
 31
0.0
  0
LINE
  5
440
100
AcDbEntity
  8
text_and_logo
 62
7
100
AcDbLine
 10
28.461931
 20
44.481616
 30
0.0
 11
29.706534
 21
44.481616
 31
0.0
  0
LINE
  5
441
100
AcDbEntity
  8
text_and_logo
 62
7
100
AcDbLine
 10
30.149621
 20
44.481616
 30
0.0
 11
30.149621
 21
42.613300
 31
0.0
  0
LINE
  5
442
100
AcDbEntity
  8
text_and_logo
 62
7
100
AcDbLine
 10
31.397046
 20
44.481616
 30
0.0
 11
31.397046
 21
42.613300
 31
0.0
  0
LINE
  5
443
100
AcDbEntity
  8
text_and_logo
 62
7
100
AcDbLine
 10
30.149621
 20
43.589792
 30
0.0
 11
31.397046
 21
43.589792
 31
0.0
  0
LINE
  5
444
100
AcDbEntity
  8
waveforms
 62
7
100
AcDbLine
 10
7.363942
 20
46.479922
 30
0.0
 11
7.363942
 21
49.479921
 31
0.0
  0
LINE
  5
445
100
AcDbEntity
  8
waveforms
 62
7
100
AcDbLine
 10
7.363942
 20
49.479921
 30
0.0
 11
10.363942
 21
46.479922
 31
0.0
  0
LINE
  5
446
100
AcDbEntity
  8
waveforms
 62
7
100
AcDbLine
 10
10.363942
 20
46.479922
 30
0.0
 11
10.363942
 21
49.479921
 31
0.0
  0
LINE
  5
447
100
AcDbEntity
  8
waveforms
 62
7
100
AcDbLine
 10
10.363942
 20
49.479921
 30
0.0
 11
13.013940
 21
46.479922
 31
0.0
  0
LINE
  5
448
100
AcDbEntity
  8
waveforms
 62
7
100
AcDbLine
 10
3.354353
 20
54.000003
 30
0.0
 11
3.354353
 21
51.000003
 31
0.0
  0
LINE
  5
449
100
AcDbEntity
  8
waveforms
 62
7
100
AcDbLine
 10
3.354353
 20
51.000003
 30
0.0
 11
6.354353
 21
54.000003
 31
0.0
  0
LINE
  5
44a
100
AcDbEntity
  8
waveforms
 62
7
100
AcDbLine
 10
6.354353
 20
54.000003
 30
0.0
 11
6.354353
 21
51.000003
 31
0.0
  0
LINE
  5
44b
100
AcDbEntity
  8
waveforms
 62
7
100
AcDbLine
 10
6.354353
 20
51.000003
 30
0.0
 11
9.354352
 21
54.000003
 31
0.0
  0
LINE
  5
44c
100
AcDbEntity
  8
waveforms
 62
7
100
AcDbLine
 10
3.988540
 20
57.031438
 30
0.0
 11
3.988540
 21
60.031438
 31
0.0
  0
LINE
  5
44d
100
AcDbEntity
  8
waveforms
 62
7
100
AcDbLine
 10
3.988540
 20
60.031438
 30
0.0
 11
6.988540
 21
60.031439
 31
0.0
  0
LINE
  5
44e
100
AcDbEntity
  8
waveforms
 62
7
100
AcDbLine
 10
6.988540
 20
60.031439
 30
0.0
 11
6.988540
 21
57.031439
 31
0.0
  0
LINE
  5
44f
100
AcDbEntity
  8
waveforms
 62
7
100
AcDbLine
 10
6.988540
 20
57.031439
 30
0.0
 11
9.988540
 21
57.031439
 31
0.0
  0
LINE
  5
450
100
AcDbEntity
  8
waveforms
 62
7
100
AcDbLine
 10
9.988540
 20
57.031439
 30
0.0
 11
9.988540
 21
60.031438
 31
0.0
  0
LINE
  5
451
100
AcDbEntity
  8
waveforms
 62
7
100
AcDbLine
 10
9.769934
 20
63.942712
 30
0.0
 11
12.769934
 21
60.942713
 31
0.0
  0
LINE
  5
452
100
AcDbEntity
  8
waveforms
 62
7
100
AcDbLine
 10
12.769934
 20
60.942713
 30
0.0
 11
15.769934
 21
63.942712
 31
0.0
  0
SPLINE
  5
453
100
AcDbEntity
  8
waveforms
 62
7
100
AcDbSpline
 70
8
 71
3
 72
8
 73
4
 74
0
 40
0
 40
0
 40
0
 40
0
 40
1
 40
1
 40
1
 40
1
 10
19.096165
 20
62.247079
 30
0.0
 10
20.050710
 20
64.056046
 30
0.0
 10
21.204758
 20
64.257927
 30
0.0
 10
22.096165
 20
62.247079
 30
0.0
  0
SPLINE
  5
454
100
AcDbEntity
  8
waveforms
 62
7
100
AcDbSpline
 70
8
 71
3
 72
8
 73
4
 74
0
 40
0
 40
0
 40
0
 40
0
 40
1
 40
1
 40
1
 40
1
 10
22.096165
 20
62.247079
 30
0.0
 10
22.941970
 20
60.859322
 30
0.0
 10
23.813242
 20
59.700769
 30
0.0
 10
25.096165
 20
62.247079
 30
0.0
  0
SPLINE
  5
455
100
AcDbEntity
  8
waveforms
 62
7
100
AcDbSpline
 70
8
 71
3
 72
8
 73
4
 74
0
 40
0
 40
0
 40
0
 40
0
 40
1
 40
1
 40
1
 40
1
 10
24.349998
 20
59.534601
 30
0.0
 10
26.335124
 20
55.587111
 30
0.0
 10
28.334730
 20
55.482371
 30
0.0
 10
30.349998
 20
59.534601
 30
0.0
  0
LINE
  5
456
100
AcDbEntity
  8
waveforms
 62
7
100
AcDbLine
 10
25.349998
 20
50.943456
 30
0.0
 11
25.349998
 21
51.943456
 31
0.0
  0
LINE
  5
457
100
AcDbEntity
  8
waveforms
 62
7
100
AcDbLine
 10
25.349998
 20
51.943456
 30
0.0
 11
26.349998
 21
51.943456
 31
0.0
  0
LINE
  5
458
100
AcDbEntity
  8
waveforms
 62
7
100
AcDbLine
 10
26.349998
 20
51.943456
 30
0.0
 11
26.349998
 21
52.943454
 31
0.0
  0
LINE
  5
459
100
AcDbEntity
  8
waveforms
 62
7
100
AcDbLine
 10
26.349998
 20
52.943454
 30
0.0
 11
26.349998
 21
53.943455
 31
0.0
  0
LINE
  5
45a
100
AcDbEntity
  8
waveforms
 62
7
100
AcDbLine
 10
26.349998
 20
53.943455
 30
0.0
 11
27.349998
 21
53.943455
 31
0.0
  0
LINE
  5
45b
100
AcDbEntity
  8
waveforms
 62
7
100
AcDbLine
 10
27.349998
 20
53.943455
 30
0.0
 11
27.349998
 21
51.943456
 31
0.0
  0
LINE
  5
45c
100
AcDbEntity
  8
waveforms
 62
7
100
AcDbLine
 10
27.349998
 20
51.943456
 30
0.0
 11
28.349998
 21
51.943456
 31
0.0
  0
LINE
  5
45d
100
AcDbEntity
  8
waveforms
 62
7
100
AcDbLine
 10
28.349998
 20
51.943456
 30
0.0
 11
28.349998
 21
52.943455
 31
0.0
  0
LINE
  5
45e
100
AcDbEntity
  8
waveforms
 62
7
100
AcDbLine
 10
28.349998
 20
52.943455
 30
0.0
 11
29.349998
 21
52.943455
 31
0.0
  0
LINE
  5
45f
100
AcDbEntity
  8
waveforms
 62
7
100
AcDbLine
 10
29.349998
 20
52.943455
 30
0.0
 11
29.349998
 21
50.943456
 31
0.0
  0
LINE
  5
460
100
AcDbEntity
  8
waveforms
 62
7
100
AcDbLine
 10
29.349998
 20
50.943456
 30
0.0
 11
30.349998
 21
50.943456
 31
0.0
  0
LINE
  5
461
100
AcDbEntity
  8
waveforms
 62
7
100
AcDbLine
 10
30.349998
 20
50.943456
 30
0.0
 11
30.349998
 21
51.943456
 31
0.0
  0
LINE
  5
462
100
AcDbEntity
  8
waveforms
 62
7
100
AcDbLine
 10
30.349998
 20
51.943456
 30
0.0
 11
31.349998
 21
51.943456
 31
0.0
  0
LINE
  5
463
100
AcDbEntity
  8
waveforms
 62
7
100
AcDbLine
 10
31.349998
 20
51.943456
 30
0.0
 11
31.349998
 21
53.943455
 31
0.0
  0
LINE
  5
464
100
AcDbEntity
  8
waveforms
 62
7
100
AcDbLine
 10
22.020878
 20
46.419608
 30
0.0
 11
23.020878
 21
47.419608
 31
0.0
  0
LINE
  5
465
100
AcDbEntity
  8
waveforms
 62
7
100
AcDbLine
 10
23.020878
 20
47.419608
 30
0.0
 11
24.020878
 21
46.419608
 31
0.0
  0
LINE
  5
466
100
AcDbEntity
  8
waveforms
 62
7
100
AcDbLine
 10
24.020878
 20
46.419608
 30
0.0
 11
25.020878
 21
49.419607
 31
0.0
  0
LINE
  5
467
100
AcDbEntity
  8
waveforms
 62
7
100
AcDbLine
 10
25.020878
 20
49.419607
 30
0.0
 11
26.020878
 21
47.419608
 31
0.0
  0
LINE
  5
468
100
AcDbEntity
  8
waveforms
 62
7
100
AcDbLine
 10
26.020878
 20
47.419608
 30
0.0
 11
27.020878
 21
48.419606
 31
0.0
  0
LINE
  5
469
100
AcDbEntity
  8
waveforms
 62
7
100
AcDbLine
 10
27.020878
 20
48.419606
 30
0.0
 11
28.020878
 21
47.419608
 31
0.0
  0
LINE
  5
46a
100
AcDbEntity
  8
waveforms
 62
7
100
AcDbLine
 10
4.749501
 20
27.778156
 30
0.0
 11
4.550534
 21
27.710422
 31
0.0
  0
LINE
  5
46b
100
AcDbEntity
  8
waveforms
 62
7
100
AcDbLine
 10
4.550534
 20
27.710422
 30
0.0
 11
4.415067
 21
27.511455
 31
0.0
  0
LINE
  5
46c
100
AcDbEntity
  8
waveforms
 62
7
100
AcDbLine
 10
4.415067
 20
27.511455
 30
0.0
 11
4.349451
 21
27.177021
 31
0.0
  0
LINE
  5
46d
100
AcDbEntity
  8
waveforms
 62
7
100
AcDbLine
 10
4.349451
 20
27.177021
 30
0.0
 11
4.349451
 21
26.978054
 31
0.0
  0
LINE
  5
46e
100
AcDbEntity
  8
waveforms
 62
7
100
AcDbLine
 10
4.349451
 20
26.978054
 30
0.0
 11
4.415067
 21
26.643620
 31
0.0
  0
LINE
  5
46f
100
AcDbEntity
  8
waveforms
 62
7
100
AcDbLine
 10
4.415067
 20
26.643620
 30
0.0
 11
4.550534
 21
26.443595
 31
0.0
  0
LINE
  5
470
100
AcDbEntity
  8
waveforms
 62
7
100
AcDbLine
 10
4.550534
 20
26.443595
 30
0.0
 11
4.749501
 21
26.376920
 31
0.0
  0
LINE
  5
471
100
AcDbEntity
  8
waveforms
 62
7
100
AcDbLine
 10
4.749501
 20
26.376920
 30
0.0
 11
4.882851
 21
26.376920
 31
0.0
  0
LINE
  5
472
100
AcDbEntity
  8
waveforms
 62
7
100
AcDbLine
 10
4.882851
 20
26.376920
 30
0.0
 11
5.083935
 21
26.443595
 31
0.0
  0
LINE
  5
473
100
AcDbEntity
  8
waveforms
 62
7
100
AcDbLine
 10
5.083935
 20
26.443595
 30
0.0
 11
5.215169
 21
26.643620
 31
0.0
  0
LINE
  5
474
100
AcDbEntity
  8
waveforms
 62
7
100
AcDbLine
 10
5.215169
 20
26.643620
 30
0.0
 11
5.282902
 21
26.978054
 31
0.0
  0
LINE
  5
475
100
AcDbEntity
  8
waveforms
 62
7
100
AcDbLine
 10
5.282902
 20
26.978054
 30
0.0
 11
5.282902
 21
27.177021
 31
0.0
  0
LINE
  5
476
100
AcDbEntity
  8
waveforms
 62
7
100
AcDbLine
 10
5.282902
 20
27.177021
 30
0.0
 11
5.215169
 21
27.511455
 31
0.0
  0
LINE
  5
477
100
AcDbEntity
  8
waveforms
 62
7
100
AcDbLine
 10
5.215169
 20
27.511455
 30
0.0
 11
5.083935
 21
27.710422
 31
0.0
  0
LINE
  5
478
100
AcDbEntity
  8
waveforms
 62
7
100
AcDbLine
 10
5.083935
 20
27.710422
 30
0.0
 11
4.882851
 21
27.778156
 31
0.0
  0
LINE
  5
479
100
AcDbEntity
  8
waveforms
 62
7
100
AcDbLine
 10
4.882851
 20
27.778156
 30
0.0
 11
4.749501
 21
27.778156
 31
0.0
  0
LINE
  5
47a
100
AcDbEntity
  8
waveforms
 62
7
100
AcDbLine
 10
5.748567
 20
26.978054
 30
0.0
 11
6.950836
 21
26.978054
 31
0.0
  0
LINE
  5
47b
100
AcDbEntity
  8
waveforms
 62
7
100
AcDbLine
 10
7.617584
 20
27.511455
 30
0.0
 11
7.748818
 21
27.577072
 31
0.0
  0
LINE
  5
47c
100
AcDbEntity
  8
waveforms
 62
7
100
AcDbLine
 10
7.748818
 20
27.577072
 30
0.0
 11
7.949901
 21
27.778156
 31
0.0
  0
LINE
  5
47d
100
AcDbEntity
  8
waveforms
 62
7
100
AcDbLine
 10
7.949901
 20
27.778156
 30
0.0
 11
7.949901
 21
26.376920
 31
0.0
  0
LINE
  5
47e
100
AcDbEntity
  8
waveforms
 62
7
100
AcDbLine
 10
9.150061
 20
27.778156
 30
0.0
 11
8.951094
 21
27.710422
 31
0.0
  0
LINE
  5
47f
100
AcDbEntity
  8
waveforms
 62
7
100
AcDbLine
 10
8.951094
 20
27.710422
 30
0.0
 11
8.815627
 21
27.511455
 31
0.0
  0
LINE
  5
480
100
AcDbEntity
  8
waveforms
 62
7
100
AcDbLine
 10
8.815627
 20
27.511455
 30
0.0
 11
8.750011
 21
27.177021
 31
0.0
  0
LINE
  5
481
100
AcDbEntity
  8
waveforms
 62
7
100
AcDbLine
 10
8.750011
 20
27.177021
 30
0.0
 11
8.750011
 21
26.978054
 31
0.0
  0
LINE
  5
482
100
AcDbEntity
  8
waveforms
 62
7
100
AcDbLine
 10
8.750011
 20
26.978054
 30
0.0
 11
8.815627
 21
26.643620
 31
0.0
  0
LINE
  5
483
100
AcDbEntity
  8
waveforms
 62
7
100
AcDbLine
 10
8.815627
 20
26.643620
 30
0.0
 11
8.951094
 21
26.443595
 31
0.0
  0
LINE
  5
484
100
AcDbEntity
  8
waveforms
 62
7
100
AcDbLine
 10
8.951094
 20
26.443595
 30
0.0
 11
9.150061
 21
26.376920
 31
0.0
  0
LINE
  5
485
100
AcDbEntity
  8
waveforms
 62
7
100
AcDbLine
 10
9.150061
 20
26.376920
 30
0.0
 11
9.283411
 21
26.376920
 31
0.0
  0
LINE
  5
486
100
AcDbEntity
  8
waveforms
 62
7
100
AcDbLine
 10
9.283411
 20
26.376920
 30
0.0
 11
9.484495
 21
26.443595
 31
0.0
  0
LINE
  5
487
100
AcDbEntity
  8
waveforms
 62
7
100
AcDbLine
 10
9.484495
 20
26.443595
 30
0.0
 11
9.615729
 21
26.643620
 31
0.0
  0
LINE
  5
488
100
AcDbEntity
  8
waveforms
 62
7
100
AcDbLine
 10
9.615729
 20
26.643620
 30
0.0
 11
9.683462
 21
26.978054
 31
0.0
  0
LINE
  5
489
100
AcDbEntity
  8
waveforms
 62
7
100
AcDbLine
 10
9.683462
 20
26.978054
 30
0.0
 11
9.683462
 21
27.177021
 31
0.0
  0
LINE
  5
48a
100
AcDbEntity
  8
waveforms
 62
7
100
AcDbLine
 10
9.683462
 20
27.177021
 30
0.0
 11
9.615729
 21
27.511455
 31
0.0
  0
LINE
  5
48b
100
AcDbEntity
  8
waveforms
 62
7
100
AcDbLine
 10
9.615729
 20
27.511455
 30
0.0
 11
9.484495
 21
27.710422
 31
0.0
  0
LINE
  5
48c
100
AcDbEntity
  8
waveforms
 62
7
100
AcDbLine
 10
9.484495
 20
27.710422
 30
0.0
 11
9.283411
 21
27.778156
 31
0.0
  0
LINE
  5
48d
100
AcDbEntity
  8
waveforms
 62
7
100
AcDbLine
 10
9.283411
 20
27.778156
 30
0.0
 11
9.150061
 21
27.778156
 31
0.0
  0
LINE
  5
48e
100
AcDbEntity
  8
waveforms
 62
7
100
AcDbLine
 10
9.950160
 20
27.778156
 30
0.0
 11
10.483561
 21
26.376920
 31
0.0
  0
LINE
  5
48f
100
AcDbEntity
  8
waveforms
 62
7
100
AcDbLine
 10
11.016962
 20
27.778156
 30
0.0
 11
10.483561
 21
26.376920
 31
0.0
  0
LINE
  5
490
100
AcDbEntity
  8
waveforms
 62
7
100
AcDbLine
 10
22.949467
 20
26.978054
 30
0.0
 11
24.151736
 21
26.978054
 31
0.0
  0
LINE
  5
491
100
AcDbEntity
  8
waveforms
 62
7
100
AcDbLine
 10
24.818484
 20
27.511455
 30
0.0
 11
24.949718
 21
27.577072
 31
0.0
  0
LINE
  5
492
100
AcDbEntity
  8
waveforms
 62
7
100
AcDbLine
 10
24.949718
 20
27.577072
 30
0.0
 11
25.150801
 21
27.778156
 31
0.0
  0
LINE
  5
493
100
AcDbEntity
  8
waveforms
 62
7
100
AcDbLine
 10
25.150801
 20
27.778156
 30
0.0
 11
25.150801
 21
26.376920
 31
0.0
  0
LINE
  5
494
100
AcDbEntity
  8
waveforms
 62
7
100
AcDbLine
 10
26.350951
 20
27.778156
 30
0.0
 11
26.151984
 21
27.710422
 31
0.0
  0
LINE
  5
495
100
AcDbEntity
  8
waveforms
 62
7
100
AcDbLine
 10
26.151984
 20
27.710422
 30
0.0
 11
26.016517
 21
27.511455
 31
0.0
  0
LINE
  5
496
100
AcDbEntity
  8
waveforms
 62
7
100
AcDbLine
 10
26.016517
 20
27.511455
 30
0.0
 11
25.950901
 21
27.177021
 31
0.0
  0
LINE
  5
497
100
AcDbEntity
  8
waveforms
 62
7
100
AcDbLine
 10
25.950901
 20
27.177021
 30
0.0
 11
25.950901
 21
26.978054
 31
0.0
  0
LINE
  5
498
100
AcDbEntity
  8
waveforms
 62
7
100
AcDbLine
 10
25.950901
 20
26.978054
 30
0.0
 11
26.016517
 21
26.643620
 31
0.0
  0
LINE
  5
499
100
AcDbEntity
  8
waveforms
 62
7
100
AcDbLine
 10
26.016517
 20
26.643620
 30
0.0
 11
26.151984
 21
26.443595
 31
0.0
  0
LINE
  5
49a
100
AcDbEntity
  8
waveforms
 62
7
100
AcDbLine
 10
26.151984
 20
26.443595
 30
0.0
 11
26.350951
 21
26.376920
 31
0.0
  0
LINE
  5
49b
100
AcDbEntity
  8
waveforms
 62
7
100
AcDbLine
 10
26.350951
 20
26.376920
 30
0.0
 11
26.484301
 21
26.376920
 31
0.0
  0
LINE
  5
49c
100
AcDbEntity
  8
waveforms
 62
7
100
AcDbLine
 10
26.484301
 20
26.376920
 30
0.0
 11
26.685385
 21
26.443595
 31
0.0
  0
LINE
  5
49d
100
AcDbEntity
  8
waveforms
 62
7
100
AcDbLine
 10
26.685385
 20
26.443595
 30
0.0
 11
26.816619
 21
26.643620
 31
0.0
  0
LINE
  5
49e
100
AcDbEntity
  8
waveforms
 62
7
100
AcDbLine
 10
26.816619
 20
26.643620
 30
0.0
 11
26.884352
 21
26.978054
 31
0.0
  0
LINE
  5
49f
100
AcDbEntity
  8
waveforms
 62
7
100
AcDbLine
 10
26.884352
 20
26.978054
 30
0.0
 11
26.884352
 21
27.177021
 31
0.0
  0
LINE
  5
4a0
100
AcDbEntity
  8
waveforms
 62
7
100
AcDbLine
 10
26.884352
 20
27.177021
 30
0.0
 11
26.816619
 21
27.511455
 31
0.0
  0
LINE
  5
4a1
100
AcDbEntity
  8
waveforms
 62
7
100
AcDbLine
 10
26.816619
 20
27.511455
 30
0.0
 11
26.685385
 21
27.710422
 31
0.0
  0
LINE
  5
4a2
100
AcDbEntity
  8
waveforms
 62
7
100
AcDbLine
 10
26.685385
 20
27.710422
 30
0.0
 11
26.484301
 21
27.778156
 31
0.0
  0
LINE
  5
4a3
100
AcDbEntity
  8
waveforms
 62
7
100
AcDbLine
 10
26.484301
 20
27.778156
 30
0.0
 11
26.350951
 21
27.778156
 31
0.0
  0
LINE
  5
4a4
100
AcDbEntity
  8
waveforms
 62
7
100
AcDbLine
 10
27.350027
 20
26.978054
 30
0.0
 11
28.552296
 21
26.978054
 31
0.0
  0
LINE
  5
4a5
100
AcDbEntity
  8
waveforms
 62
7
100
AcDbLine
 10
29.418011
 20
27.778156
 30
0.0
 11
29.219044
 21
27.710422
 31
0.0
  0
LINE
  5
4a6
100
AcDbEntity
  8
waveforms
 62
7
100
AcDbLine
 10
29.219044
 20
27.710422
 30
0.0
 11
29.083577
 21
27.511455
 31
0.0
  0
LINE
  5
4a7
100
AcDbEntity
  8
waveforms
 62
7
100
AcDbLine
 10
29.083577
 20
27.511455
 30
0.0
 11
29.017961
 21
27.177021
 31
0.0
  0
LINE
  5
4a8
100
AcDbEntity
  8
waveforms
 62
7
100
AcDbLine
 10
29.017961
 20
27.177021
 30
0.0
 11
29.017961
 21
26.978054
 31
0.0
  0
LINE
  5
4a9
100
AcDbEntity
  8
waveforms
 62
7
100
AcDbLine
 10
29.017961
 20
26.978054
 30
0.0
 11
29.083577
 21
26.643620
 31
0.0
  0
LINE
  5
4aa
100
AcDbEntity
  8
waveforms
 62
7
100
AcDbLine
 10
29.083577
 20
26.643620
 30
0.0
 11
29.219044
 21
26.443595
 31
0.0
  0
LINE
  5
4ab
100
AcDbEntity
  8
waveforms
 62
7
100
AcDbLine
 10
29.219044
 20
26.443595
 30
0.0
 11
29.418011
 21
26.376920
 31
0.0
  0
LINE
  5
4ac
100
AcDbEntity
  8
waveforms
 62
7
100
AcDbLine
 10
29.418011
 20
26.376920
 30
0.0
 11
29.551361
 21
26.376920
 31
0.0
  0
LINE
  5
4ad
100
AcDbEntity
  8
waveforms
 62
7
100
AcDbLine
 10
29.551361
 20
26.376920
 30
0.0
 11
29.752445
 21
26.443595
 31
0.0
  0
LINE
  5
4ae
100
AcDbEntity
  8
waveforms
 62
7
100
AcDbLine
 10
29.752445
 20
26.443595
 30
0.0
 11
29.883679
 21
26.643620
 31
0.0
  0
LINE
  5
4af
100
AcDbEntity
  8
waveforms
 62
7
100
AcDbLine
 10
29.883679
 20
26.643620
 30
0.0
 11
29.951412
 21
26.978054
 31
0.0
  0
LINE
  5
4b0
100
AcDbEntity
  8
waveforms
 62
7
100
AcDbLine
 10
29.951412
 20
26.978054
 30
0.0
 11
29.951412
 21
27.177021
 31
0.0
  0
LINE
  5
4b1
100
AcDbEntity
  8
waveforms
 62
7
100
AcDbLine
 10
29.951412
 20
27.177021
 30
0.0
 11
29.883679
 21
27.511455
 31
0.0
  0
LINE
  5
4b2
100
AcDbEntity
  8
waveforms
 62
7
100
AcDbLine
 10
29.883679
 20
27.511455
 30
0.0
 11
29.752445
 21
27.710422
 31
0.0
  0
LINE
  5
4b3
100
AcDbEntity
  8
waveforms
 62
7
100
AcDbLine
 10
29.752445
 20
27.710422
 30
0.0
 11
29.551361
 21
27.778156
 31
0.0
  0
LINE
  5
4b4
100
AcDbEntity
  8
waveforms
 62
7
100
AcDbLine
 10
29.551361
 20
27.778156
 30
0.0
 11
29.418011
 21
27.778156
 31
0.0
  0
LINE
  5
4b5
100
AcDbEntity
  8
waveforms
 62
7
100
AcDbLine
 10
30.218110
 20
27.778156
 30
0.0
 11
30.751511
 21
26.376920
 31
0.0
  0
LINE
  5
4b6
100
AcDbEntity
  8
waveforms
 62
7
100
AcDbLine
 10
31.284912
 20
27.778156
 30
0.0
 11
30.751511
 21
26.376920
 31
0.0
  0
ENDSEC
  0
SECTION
  2
OBJECTS
  0
DICTIONARY
  5
C
330
0
100
AcDbDictionary
  3
ACAD_GROUP
350
D
  3
ACAD_MLINESTYLE
350
17
  0
DICTIONARY
  5
D
330
C
100
AcDbDictionary
  0
DICTIONARY
  5
1A
330
C
100
AcDbDictionary
  0
DICTIONARY
  5
17
330
C
100
AcDbDictionary
  3
STANDARD
350
18
  0
DICTIONARY
  5
19
330
C
100
AcDbDictionary
  0
ENDSEC
  0
EOF
