  0
SECTION
  2
HEADER
  9
$ACADVER
  1
AC1014
  9
$HANDSEED
  5
FFFF
  9
$MEASUREMENT
 70
     1
  0
ENDSEC
  0
SECTION
  2
TABLES
  0
TABLE
  2
VPORT
  5
8
330
0
100
AcDbSymbolTable
 70
     4
  0
VPORT
  5
2E
330
8
100
AcDbSymbolTableRecord
100
AcDbViewportTableRecord
  2
*ACTIVE
 70
     0
 10
0.0
 20
0.0
 11
1.0
 21
1.0
 12
210.0
 22
148.5
 13
0.0
 23
0.0
 14
10.0
 24
10.0
 15
10.0
 25
10.0
 16
0.0
 26
0.0
 36
1.0
 17
0.0
 27
0.0
 37
0.0
 40
341.0
 41
1.24
 42
50.0
 43
0.0
 44
0.0
 50
0.0
 51
0.0
 71
     0
 72
   100
 73
     1
 74
     3
 75
     0
 76
     0
 77
     0
 78
     0
  0
ENDTAB
  0
TABLE
  2
LTYPE
  5
5
330
0
100
AcDbSymbolTable
 70
     1
  0
LTYPE
  5
14
330
5
100
AcDbSymbolTableRecord
100
AcDbLinetypeTableRecord
  2
BYBLOCK
 70
     0
  3

 72
    65
 73
     0
 40
0.0
  0
LTYPE
  5
15
330
5
100
AcDbSymbolTableRecord
100
AcDbLinetypeTableRecord
  2
BYLAYER
 70
     0
  3

 72
    65
 73
     0
 40
0.0
  0
LTYPE
  5
16
330
5
100
AcDbSymbolTableRecord
100
AcDbLinetypeTableRecord
  2
CONTINUOUS
 70
     0
  3
Solid line
 72
    65
 73
     0
 40
0.0
  0
ENDTAB
  0
TABLE
  2
LAYER
  5
2
100
AcDbSymbolTable
 70
4
  0
LAYER
  5
50
100
AcDbSymbolTableRecord
100
AcDbLayerTableRecord
  2
0
 70
0
  6
CONTINUOUS
  0
LAYER
  5
51
100
AcDbSymbolTableRecord
100
AcDbLayerTableRecord
  2
Layer_1
 70
0
  6
CONTINUOUS
  0
LAYER
  5
52
100
AcDbSymbolTableRecord
100
AcDbLayerTableRecord
  2
text_and_logo
 70
0
  6
CONTINUOUS
  0
LAYER
  5
53
100
AcDbSymbolTableRecord
100
AcDbLayerTableRecord
  2
waveforms
 70
0
  6
CONTINUOUS
  0
ENDTAB
  0
TABLE
  2
STYLE
  5
3
330
0
100
AcDbSymbolTable
 70
     1
  0
STYLE
  5
11
330
3
100
AcDbSymbolTableRecord
100
AcDbTextStyleTableRecord
  2
STANDARD
 70
     0
 40
0.0
 41
1.0
 50
0.0
 71
     0
 42
2.5
  3
txt
  4

  0
ENDTAB
  0
TABLE
  2
VIEW
  5
6
330
0
100
AcDbSymbolTable
 70
     0
  0
ENDTAB
  0
TABLE
  2
UCS
  5
7
330
0
100
AcDbSymbolTable
 70
     0
  0
ENDTAB
  0
TABLE
  2
APPID
  5
9
330
0
100
AcDbSymbolTable
 70
     2
  0
APPID
  5
12
330
9
100
AcDbSymbolTableRecord
100
AcDbRegAppTableRecord
  2
ACAD
 70
     0
  0
ENDTAB
  0
TABLE
  2
DIMSTYLE
  5
A
330
0
100
AcDbSymbolTable
 70
     1
  0
DIMSTYLE
105
27
330
A
100
AcDbSymbolTableRecord
100
AcDbDimStyleTableRecord
  2
ISO-25
 70
     0
  3

  4

  5

  6

  7

 40
1.0
 41
2.5
 42
0.625
 43
3.75
 44
1.25
 45
0.0
 46
0.0
 47
0.0
 48
0.0
140
2.5
141
2.5
142
0.0
143
0.03937007874016
144
1.0
145
0.0
146
1.0
147
0.625
 71
     0
 72
     0
 73
     0
 74
     0
 75
     0
 76
     0
 77
     1
 78
     8
170
     0
171
     3
172
     1
173
     0
174
     0
175
     0
176
     0
177
     0
178
     0
270
     2
271
     2
272
     2
273
     2
274
     3
340
11
275
     0
280
     0
281
     0
282
     0
283
     0
284
     8
285
     0
286
     0
287
     3
288
     0
  0
ENDTAB
  0
TABLE
  2
BLOCK_RECORD
  5
1
330
0
100
AcDbSymbolTable
 70
     1
  0
BLOCK_RECORD
  5
1F
330
1
100
AcDbSymbolTableRecord
100
AcDbBlockTableRecord
  2
*MODEL_SPACE
  0
BLOCK_RECORD
  5
1B
330
1
100
AcDbSymbolTableRecord
100
AcDbBlockTableRecord
  2
*PAPER_SPACE
  0
ENDTAB
  0
ENDSEC
  0
SECTION
  2
BLOCKS
  0
BLOCK
  5
20
330
1F
100
AcDbEntity
  8
0
100
AcDbBlockBegin
  2
*MODEL_SPACE
 70
     0
 10
0.0
 20
0.0
 30
0.0
  3
*MODEL_SPACE
  1

  0
ENDBLK
  5
21
330
1F
100
AcDbEntity
  8
0
100
AcDbBlockEnd
  0
BLOCK
  5
1C
330
1B
100
AcDbEntity
 67
     1
  8
0
100
AcDbBlockBegin
  2
*PAPER_SPACE
  1

  0
ENDBLK
  5
1D
330
1B
100
AcDbEntity
 67
     1
  8
0
100
AcDbBlockEnd
  0
ENDSEC
  0
SECTION
  2
ENTITIES
  0
LWPOLYLINE
  5
100
100
AcDbEntity
  8
Layer_1
 62
7
100
AcDbPolyline
 90
2
 70
0
 10
-0.000165
 20
0.000322
 30
0.0
 10
34.999790
 20
0.000322
 30
0.0
  0
LWPOLYLINE
  5
101
100
AcDbEntity
  8
Layer_1
 62
7
100
AcDbPolyline
 90
2
 70
0
 10
-0.000165
 20
128.500160
 30
0.0
 10
-0.000165
 20
0.000322
 30
0.0
  0
SPLINE
  5
102
100
AcDbEntity
  8
Layer_1
 62
7
100
AcDbSpline
 70
8
 71
3
 72
8
 73
4
 74
0
 40
0
 40
0
 40
0
 40
0
 40
1
 40
1
 40
1
 40
1
 10
2.999830
 20
127.050163
 30
0.0
 10
2.446069
 20
127.050163
 30
0.0
 10
1.934373
 20
126.754735
 30
0.0
 10
1.657492
 20
126.275164
 30
0.0
  0
SPLINE
  5
103
100
AcDbEntity
  8
Layer_1
 62
7
100
AcDbSpline
 70
8
 71
3
 72
8
 73
4
 74
0
 40
0
 40
0
 40
0
 40
0
 40
1
 40
1
 40
1
 40
1
 10
1.657492
 20
126.275164
 30
0.0
 10
1.380612
 20
125.795592
 30
0.0
 10
1.380612
 20
125.204736
 30
0.0
 10
1.657492
 20
124.725165
 30
0.0
  0
SPLINE
  5
104
100
AcDbEntity
  8
Layer_1
 62
7
100
AcDbSpline
 70
8
 71
3
 72
8
 73
4
 74
0
 40
0
 40
0
 40
0
 40
0
 40
1
 40
1
 40
1
 40
1
 10
1.657492
 20
124.725165
 30
0.0
 10
1.934373
 20
124.245594
 30
0.0
 10
2.446069
 20
123.950166
 30
0.0
 10
2.999830
 20
123.950166
 30
0.0
  0
LWPOLYLINE
  5
105
100
AcDbEntity
  8
Layer_1
 62
7
100
AcDbPolyline
 90
3
 70
0
 10
34.999790
 20
0.000322
 30
0.0
 10
34.999790
 20
128.500160
 30
0.0
 10
-0.000165
 20
128.500160
 30
0.0
  0
SPLINE
  5
106
100
AcDbEntity
  8
Layer_1
 62
7
100
AcDbSpline
 70
8
 71
3
 72
8
 73
4
 74
0
 40
0
 40
0
 40
0
 40
0
 40
1
 40
1
 40
1
 40
1
 10
6.099828
 20
123.950166
 30
0.0
 10
6.653589
 20
123.950166
 30
0.0
 10
7.165285
 20
124.245594
 30
0.0
 10
7.442166
 20
124.725165
 30
0.0
  0
SPLINE
  5
107
100
AcDbEntity
  8
Layer_1
 62
7
100
AcDbSpline
 70
8
 71
3
 72
8
 73
4
 74
0
 40
0
 40
0
 40
0
 40
0
 40
1
 40
1
 40
1
 40
1
 10
7.442166
 20
124.725165
 30
0.0
 10
7.719047
 20
125.204736
 30
0.0
 10
7.719047
 20
125.795592
 30
0.0
 10
7.442166
 20
126.275164
 30
0.0
  0
SPLINE
  5
108
100
AcDbEntity
  8
Layer_1
 62
7
100
AcDbSpline
 70
8
 71
3
 72
8
 73
4
 74
0
 40
0
 40
0
 40
0
 40
0
 40
1
 40
1
 40
1
 40
1
 10
7.442166
 20
126.275164
 30
0.0
 10
7.165285
 20
126.754735
 30
0.0
 10
6.653589
 20
127.050163
 30
0.0
 10
6.099828
 20
127.050163
 30
0.0
  0
LWPOLYLINE
  5
109
100
AcDbEntity
  8
Layer_1
 62
7
100
AcDbPolyline
 90
2
 70
0
 10
2.999830
 20
123.950166
 30
0.0
 10
6.099828
 20
123.950166
 30
0.0
  0
SPLINE
  5
10a
100
AcDbEntity
  8
Layer_1
 62
7
100
AcDbSpline
 70
8
 71
3
 72
8
 73
4
 74
0
 40
0
 40
0
 40
0
 40
0
 40
1
 40
1
 40
1
 40
1
 10
11.849820
 20
104.250191
 30
0.0
 10
11.849820
 20
105.357713
 30
0.0
 10
11.258964
 20
106.381106
 30
0.0
 10
10.299822
 20
106.934866
 30
0.0
  0
SPLINE
  5
10b
100
AcDbEntity
  8
Layer_1
 62
7
100
AcDbSpline
 70
8
 71
3
 72
8
 73
4
 74
0
 40
0
 40
0
 40
0
 40
0
 40
1
 40
1
 40
1
 40
1
 10
10.299822
 20
106.934866
 30
0.0
 10
9.340679
 20
107.488627
 30
0.0
 10
8.158968
 20
107.488627
 30
0.0
 10
7.199826
 20
106.934866
 30
0.0
  0
SPLINE
  5
10c
100
AcDbEntity
  8
Layer_1
 62
7
100
AcDbSpline
 70
8
 71
3
 72
8
 73
4
 74
0
 40
0
 40
0
 40
0
 40
0
 40
1
 40
1
 40
1
 40
1
 10
7.199826
 20
106.934866
 30
0.0
 10
6.240683
 20
106.381106
 30
0.0
 10
5.649828
 20
105.357713
 30
0.0
 10
5.649828
 20
104.250191
 30
0.0
  0
SPLINE
  5
10d
100
AcDbEntity
  8
Layer_1
 62
7
100
AcDbSpline
 70
8
 71
3
 72
8
 73
4
 74
0
 40
0
 40
0
 40
0
 40
0
 40
1
 40
1
 40
1
 40
1
 10
5.649828
 20
104.250191
 30
0.0
 10
5.649370
 20
103.142364
 30
0.0
 10
6.240126
 20
102.118494
 30
0.0
 10
7.199456
 20
101.564448
 30
0.0
  0
SPLINE
  5
10e
100
AcDbEntity
  8
Layer_1
 62
7
100
AcDbSpline
 70
8
 71
3
 72
8
 73
4
 74
0
 40
0
 40
0
 40
0
 40
0
 40
1
 40
1
 40
1
 40
1
 10
7.199456
 20
101.564448
 30
0.0
 10
8.158786
 20
101.010403
 30
0.0
 10
9.340861
 20
101.010403
 30
0.0
 10
10.300191
 20
101.564448
 30
0.0
  0
SPLINE
  5
10f
100
AcDbEntity
  8
Layer_1
 62
7
100
AcDbSpline
 70
8
 71
3
 72
8
 73
4
 74
0
 40
0
 40
0
 40
0
 40
0
 40
1
 40
1
 40
1
 40
1
 10
10.300191
 20
101.564448
 30
0.0
 10
11.259521
 20
102.118494
 30
0.0
 10
11.850277
 20
103.142364
 30
0.0
 10
11.849820
 20
104.250191
 30
0.0
  0
LWPOLYLINE
  5
110
100
AcDbEntity
  8
Layer_1
 62
7
100
AcDbPolyline
 90
2
 70
0
 10
2.999830
 20
127.050163
 30
0.0
 10
6.099828
 20
127.050163
 30
0.0
  0
SPLINE
  5
111
100
AcDbEntity
  8
Layer_1
 62
7
100
AcDbSpline
 70
8
 71
3
 72
8
 73
4
 74
0
 40
0
 40
0
 40
0
 40
0
 40
1
 40
1
 40
1
 40
1
 10
21.249808
 20
79.250222
 30
0.0
 10
21.249808
 20
80.589967
 30
0.0
 10
20.535063
 20
81.827942
 30
0.0
 10
19.374810
 20
82.497814
 30
0.0
  0
SPLINE
  5
112
100
AcDbEntity
  8
Layer_1
 62
7
100
AcDbSpline
 70
8
 71
3
 72
8
 73
4
 74
0
 40
0
 40
0
 40
0
 40
0
 40
1
 40
1
 40
1
 40
1
 10
19.374810
 20
82.497814
 30
0.0
 10
18.214557
 20
83.167687
 30
0.0
 10
16.785067
 20
83.167687
 30
0.0
 10
15.624814
 20
82.497814
 30
0.0
  0
SPLINE
  5
113
100
AcDbEntity
  8
Layer_1
 62
7
100
AcDbSpline
 70
8
 71
3
 72
8
 73
4
 74
0
 40
0
 40
0
 40
0
 40
0
 40
1
 40
1
 40
1
 40
1
 10
15.624814
 20
82.497814
 30
0.0
 10
14.464562
 20
81.827942
 30
0.0
 10
13.749816
 20
80.589967
 30
0.0
 10
13.749817
 20
79.250222
 30
0.0
  0
SPLINE
  5
114
100
AcDbEntity
  8
Layer_1
 62
7
100
AcDbSpline
 70
8
 71
3
 72
8
 73
4
 74
0
 40
0
 40
0
 40
0
 40
0
 40
1
 40
1
 40
1
 40
1
 10
13.749817
 20
79.250222
 30
0.0
 10
13.749816
 20
77.910478
 30
0.0
 10
14.464562
 20
76.672503
 30
0.0
 10
15.624814
 20
76.002631
 30
0.0
  0
SPLINE
  5
115
100
AcDbEntity
  8
Layer_1
 62
7
100
AcDbSpline
 70
8
 71
3
 72
8
 73
4
 74
0
 40
0
 40
0
 40
0
 40
0
 40
1
 40
1
 40
1
 40
1
 10
15.624814
 20
76.002631
 30
0.0
 10
16.785067
 20
75.332758
 30
0.0
 10
18.214557
 20
75.332758
 30
0.0
 10
19.374810
 20
76.002631
 30
0.0
  0
SPLINE
  5
116
100
AcDbEntity
  8
Layer_1
 62
7
100
AcDbSpline
 70
8
 71
3
 72
8
 73
4
 74
0
 40
0
 40
0
 40
0
 40
0
 40
1
 40
1
 40
1
 40
1
 10
19.374810
 20
76.002631
 30
0.0
 10
20.535063
 20
76.672503
 30
0.0
 10
21.249808
 20
77.910478
 30
0.0
 10
21.249808
 20
79.250222
 30
0.0
  0
LWPOLYLINE
  5
117
100
AcDbEntity
  8
Layer_1
 62
7
100
AcDbPolyline
 90
1
 70
1
 10
11.849820
 20
104.250191
 30
0.0
  0
SPLINE
  5
118
100
AcDbEntity
  8
Layer_1
 62
7
100
AcDbSpline
 70
8
 71
3
 72
8
 73
4
 74
0
 40
0
 40
0
 40
0
 40
0
 40
1
 40
1
 40
1
 40
1
 10
11.399819
 20
35.250279
 30
0.0
 10
11.400692
 20
36.590604
 30
0.0
 10
10.686137
 20
37.829488
 30
0.0
 10
9.525527
 20
38.499903
 30
0.0
  0
SPLINE
  5
119
100
AcDbEntity
  8
Layer_1
 62
7
100
AcDbSpline
 70
8
 71
3
 72
8
 73
4
 74
0
 40
0
 40
0
 40
0
 40
0
 40
1
 40
1
 40
1
 40
1
 10
9.525527
 20
38.499903
 30
0.0
 10
8.364916
 20
39.170317
 30
0.0
 10
6.934734
 20
39.170317
 30
0.0
 10
5.774123
 20
38.499903
 30
0.0
  0
SPLINE
  5
11a
100
AcDbEntity
  8
Layer_1
 62
7
100
AcDbSpline
 70
8
 71
3
 72
8
 73
4
 74
0
 40
0
 40
0
 40
0
 40
0
 40
1
 40
1
 40
1
 40
1
 10
5.774123
 20
38.499903
 30
0.0
 10
4.613513
 20
37.829488
 30
0.0
 10
3.898959
 20
36.590604
 30
0.0
 10
3.899831
 20
35.250279
 30
0.0
  0
SPLINE
  5
11b
100
AcDbEntity
  8
Layer_1
 62
7
100
AcDbSpline
 70
8
 71
3
 72
8
 73
4
 74
0
 40
0
 40
0
 40
0
 40
0
 40
1
 40
1
 40
1
 40
1
 10
3.899831
 20
35.250279
 30
0.0
 10
3.898959
 20
33.909953
 30
0.0
 10
4.613513
 20
32.671069
 30
0.0
 10
5.774123
 20
32.000654
 30
0.0
  0
SPLINE
  5
11c
100
AcDbEntity
  8
Layer_1
 62
7
100
AcDbSpline
 70
8
 71
3
 72
8
 73
4
 74
0
 40
0
 40
0
 40
0
 40
0
 40
1
 40
1
 40
1
 40
1
 10
5.774123
 20
32.000654
 30
0.0
 10
6.934734
 20
31.330240
 30
0.0
 10
8.364916
 20
31.330240
 30
0.0
 10
9.525527
 20
32.000654
 30
0.0
  0
SPLINE
  5
11d
100
AcDbEntity
  8
Layer_1
 62
7
100
AcDbSpline
 70
8
 71
3
 72
8
 73
4
 74
0
 40
0
 40
0
 40
0
 40
0
 40
1
 40
1
 40
1
 40
1
 10
9.525527
 20
32.000654
 30
0.0
 10
10.686137
 20
32.671069
 30
0.0
 10
11.400692
 20
33.909953
 30
0.0
 10
11.399819
 20
35.250279
 30
0.0
  0
LWPOLYLINE
  5
11e
100
AcDbEntity
  8
Layer_1
 62
7
100
AcDbPolyline
 90
1
 70
1
 10
21.249808
 20
79.250222
 30
0.0
  0
SPLINE
  5
11f
100
AcDbEntity
  8
Layer_1
 62
7
100
AcDbSpline
 70
8
 71
3
 72
8
 73
4
 74
0
 40
0
 40
0
 40
0
 40
0
 40
1
 40
1
 40
1
 40
1
 10
2.999830
 20
4.550316
 30
0.0
 10
2.144403
 20
4.549450
 30
0.0
 10
1.451401
 20
3.855747
 30
0.0
 10
1.451401
 20
3.000319
 30
0.0
  0
SPLINE
  5
120
100
AcDbEntity
  8
Layer_1
 62
7
100
AcDbSpline
 70
8
 71
3
 72
8
 73
4
 74
0
 40
0
 40
0
 40
0
 40
0
 40
1
 40
1
 40
1
 40
1
 10
1.451401
 20
3.000319
 30
0.0
 10
1.451401
 20
2.144891
 30
0.0
 10
2.144403
 20
1.451187
 30
0.0
 10
2.999830
 20
1.450322
 30
0.0
  0
LWPOLYLINE
  5
121
100
AcDbEntity
  8
Layer_1
 62
7
100
AcDbPolyline
 90
1
 70
1
 10
11.399819
 20
35.250279
 30
0.0
  0
SPLINE
  5
122
100
AcDbEntity
  8
Layer_1
 62
7
100
AcDbSpline
 70
8
 71
3
 72
8
 73
4
 74
0
 40
0
 40
0
 40
0
 40
0
 40
1
 40
1
 40
1
 40
1
 10
6.099828
 20
1.450322
 30
0.0
 10
6.955255
 20
1.451187
 30
0.0
 10
7.648257
 20
2.144891
 30
0.0
 10
7.648257
 20
3.000319
 30
0.0
  0
SPLINE
  5
123
100
AcDbEntity
  8
Layer_1
 62
7
100
AcDbSpline
 70
8
 71
3
 72
8
 73
4
 74
0
 40
0
 40
0
 40
0
 40
0
 40
1
 40
1
 40
1
 40
1
 10
7.648257
 20
3.000319
 30
0.0
 10
7.648257
 20
3.855747
 30
0.0
 10
6.955255
 20
4.549450
 30
0.0
 10
6.099828
 20
4.550316
 30
0.0
  0
LWPOLYLINE
  5
124
100
AcDbEntity
  8
Layer_1
 62
7
100
AcDbPolyline
 90
2
 70
0
 10
2.999830
 20
1.450322
 30
0.0
 10
6.099828
 20
1.450322
 30
0.0
  0
SPLINE
  5
125
100
AcDbEntity
  8
Layer_1
 62
7
100
AcDbSpline
 70
8
 71
3
 72
8
 73
4
 74
0
 40
0
 40
0
 40
0
 40
0
 40
1
 40
1
 40
1
 40
1
 10
10.789821
 20
22.067296
 30
0.0
 10
10.790278
 20
23.175123
 30
0.0
 10
10.199523
 20
24.198993
 30
0.0
 10
9.240193
 20
24.753038
 30
0.0
  0
SPLINE
  5
126
100
AcDbEntity
  8
Layer_1
 62
7
100
AcDbSpline
 70
8
 71
3
 72
8
 73
4
 74
0
 40
0
 40
0
 40
0
 40
0
 40
1
 40
1
 40
1
 40
1
 10
9.240193
 20
24.753038
 30
0.0
 10
8.280862
 20
25.307084
 30
0.0
 10
7.098787
 20
25.307084
 30
0.0
 10
6.139457
 20
24.753038
 30
0.0
  0
SPLINE
  5
127
100
AcDbEntity
  8
Layer_1
 62
7
100
AcDbSpline
 70
8
 71
3
 72
8
 73
4
 74
0
 40
0
 40
0
 40
0
 40
0
 40
1
 40
1
 40
1
 40
1
 10
6.139457
 20
24.753038
 30
0.0
 10
5.180127
 20
24.198993
 30
0.0
 10
4.589371
 20
23.175123
 30
0.0
 10
4.589829
 20
22.067296
 30
0.0
  0
SPLINE
  5
128
100
AcDbEntity
  8
Layer_1
 62
7
100
AcDbSpline
 70
8
 71
3
 72
8
 73
4
 74
0
 40
0
 40
0
 40
0
 40
0
 40
1
 40
1
 40
1
 40
1
 10
4.589829
 20
22.067296
 30
0.0
 10
4.589829
 20
20.959774
 30
0.0
 10
5.180685
 20
19.936381
 30
0.0
 10
6.139827
 20
19.382620
 30
0.0
  0
SPLINE
  5
129
100
AcDbEntity
  8
Layer_1
 62
7
100
AcDbSpline
 70
8
 71
3
 72
8
 73
4
 74
0
 40
0
 40
0
 40
0
 40
0
 40
1
 40
1
 40
1
 40
1
 10
6.139827
 20
19.382620
 30
0.0
 10
7.098969
 20
18.828859
 30
0.0
 10
8.280681
 20
18.828859
 30
0.0
 10
9.239823
 20
19.382620
 30
0.0
  0
SPLINE
  5
12a
100
AcDbEntity
  8
Layer_1
 62
7
100
AcDbSpline
 70
8
 71
3
 72
8
 73
4
 74
0
 40
0
 40
0
 40
0
 40
0
 40
1
 40
1
 40
1
 40
1
 10
9.239823
 20
19.382620
 30
0.0
 10
10.198965
 20
19.936381
 30
0.0
 10
10.789821
 20
20.959774
 30
0.0
 10
10.789821
 20
22.067296
 30
0.0
  0
LWPOLYLINE
  5
12b
100
AcDbEntity
  8
Layer_1
 62
7
100
AcDbPolyline
 90
2
 70
0
 10
2.999830
 20
4.550316
 30
0.0
 10
6.099828
 20
4.550316
 30
0.0
  0
SPLINE
  5
12c
100
AcDbEntity
  8
Layer_1
 62
7
100
AcDbSpline
 70
8
 71
3
 72
8
 73
4
 74
0
 40
0
 40
0
 40
0
 40
0
 40
1
 40
1
 40
1
 40
1
 10
21.249808
 20
54.250254
 30
0.0
 10
21.249808
 20
55.589998
 30
0.0
 10
20.535063
 20
56.827973
 30
0.0
 10
19.374810
 20
57.497845
 30
0.0
  0
SPLINE
  5
12d
100
AcDbEntity
  8
Layer_1
 62
7
100
AcDbSpline
 70
8
 71
3
 72
8
 73
4
 74
0
 40
0
 40
0
 40
0
 40
0
 40
1
 40
1
 40
1
 40
1
 10
19.374810
 20
57.497845
 30
0.0
 10
18.214557
 20
58.167718
 30
0.0
 10
16.785067
 20
58.167718
 30
0.0
 10
15.624814
 20
57.497845
 30
0.0
  0
SPLINE
  5
12e
100
AcDbEntity
  8
Layer_1
 62
7
100
AcDbSpline
 70
8
 71
3
 72
8
 73
4
 74
0
 40
0
 40
0
 40
0
 40
0
 40
1
 40
1
 40
1
 40
1
 10
15.624814
 20
57.497845
 30
0.0
 10
14.464562
 20
56.827973
 30
0.0
 10
13.749816
 20
55.589998
 30
0.0
 10
13.749817
 20
54.250254
 30
0.0
  0
SPLINE
  5
12f
100
AcDbEntity
  8
Layer_1
 62
7
100
AcDbSpline
 70
8
 71
3
 72
8
 73
4
 74
0
 40
0
 40
0
 40
0
 40
0
 40
1
 40
1
 40
1
 40
1
 10
13.749817
 20
54.250254
 30
0.0
 10
13.749816
 20
52.910509
 30
0.0
 10
14.464562
 20
51.672534
 30
0.0
 10
15.624814
 20
51.002662
 30
0.0
  0
SPLINE
  5
130
100
AcDbEntity
  8
Layer_1
 62
7
100
AcDbSpline
 70
8
 71
3
 72
8
 73
4
 74
0
 40
0
 40
0
 40
0
 40
0
 40
1
 40
1
 40
1
 40
1
 10
15.624814
 20
51.002662
 30
0.0
 10
16.785067
 20
50.332790
 30
0.0
 10
18.214557
 20
50.332790
 30
0.0
 10
19.374810
 20
51.002662
 30
0.0
  0
SPLINE
  5
131
100
AcDbEntity
  8
Layer_1
 62
7
100
AcDbSpline
 70
8
 71
3
 72
8
 73
4
 74
0
 40
0
 40
0
 40
0
 40
0
 40
1
 40
1
 40
1
 40
1
 10
19.374810
 20
51.002662
 30
0.0
 10
20.535063
 20
51.672534
 30
0.0
 10
21.249808
 20
52.910509
 30
0.0
 10
21.249808
 20
54.250254
 30
0.0
  0
LWPOLYLINE
  5
132
100
AcDbEntity
  8
Layer_1
 62
7
100
AcDbPolyline
 90
1
 70
1
 10
10.789821
 20
22.067296
 30
0.0
  0
SPLINE
  5
133
100
AcDbEntity
  8
Layer_1
 62
7
100
AcDbSpline
 70
8
 71
3
 72
8
 73
4
 74
0
 40
0
 40
0
 40
0
 40
0
 40
1
 40
1
 40
1
 40
1
 10
19.049811
 20
22.250294
 30
0.0
 10
19.049811
 20
22.804056
 30
0.0
 10
18.754383
 20
23.315752
 30
0.0
 10
18.274812
 20
23.592633
 30
0.0
  0
SPLINE
  5
134
100
AcDbEntity
  8
Layer_1
 62
7
100
AcDbSpline
 70
8
 71
3
 72
8
 73
4
 74
0
 40
0
 40
0
 40
0
 40
0
 40
1
 40
1
 40
1
 40
1
 10
18.274812
 20
23.592633
 30
0.0
 10
17.795240
 20
23.869513
 30
0.0
 10
17.204384
 20
23.869513
 30
0.0
 10
16.724813
 20
23.592633
 30
0.0
  0
SPLINE
  5
135
100
AcDbEntity
  8
Layer_1
 62
7
100
AcDbSpline
 70
8
 71
3
 72
8
 73
4
 74
0
 40
0
 40
0
 40
0
 40
0
 40
1
 40
1
 40
1
 40
1
 10
16.724813
 20
23.592633
 30
0.0
 10
16.245242
 20
23.315752
 30
0.0
 10
15.949814
 20
22.804056
 30
0.0
 10
15.949814
 20
22.250294
 30
0.0
  0
SPLINE
  5
136
100
AcDbEntity
  8
Layer_1
 62
7
100
AcDbSpline
 70
8
 71
3
 72
8
 73
4
 74
0
 40
0
 40
0
 40
0
 40
0
 40
1
 40
1
 40
1
 40
1
 10
15.949814
 20
22.250294
 30
0.0
 10
15.949814
 20
21.696533
 30
0.0
 10
16.245242
 20
21.184837
 30
0.0
 10
16.724813
 20
20.907956
 30
0.0
  0
SPLINE
  5
137
100
AcDbEntity
  8
Layer_1
 62
7
100
AcDbSpline
 70
8
 71
3
 72
8
 73
4
 74
0
 40
0
 40
0
 40
0
 40
0
 40
1
 40
1
 40
1
 40
1
 10
16.724813
 20
20.907956
 30
0.0
 10
17.204384
 20
20.631075
 30
0.0
 10
17.795240
 20
20.631075
 30
0.0
 10
18.274812
 20
20.907956
 30
0.0
  0
SPLINE
  5
138
100
AcDbEntity
  8
Layer_1
 62
7
100
AcDbSpline
 70
8
 71
3
 72
8
 73
4
 74
0
 40
0
 40
0
 40
0
 40
0
 40
1
 40
1
 40
1
 40
1
 10
18.274812
 20
20.907956
 30
0.0
 10
18.754383
 20
21.184837
 30
0.0
 10
19.049811
 20
21.696533
 30
0.0
 10
19.049811
 20
22.250294
 30
0.0
  0
LWPOLYLINE
  5
139
100
AcDbEntity
  8
Layer_1
 62
7
100
AcDbPolyline
 90
1
 70
1
 10
21.249808
 20
54.250254
 30
0.0
  0
SPLINE
  5
13a
100
AcDbEntity
  8
Layer_1
 62
7
100
AcDbSpline
 70
8
 71
3
 72
8
 73
4
 74
0
 40
0
 40
0
 40
0
 40
0
 40
1
 40
1
 40
1
 40
1
 10
32.249793
 20
104.250191
 30
0.0
 10
32.250280
 20
105.500943
 30
0.0
 10
31.583291
 20
106.656894
 30
0.0
 10
30.500189
 20
107.282410
 30
0.0
  0
SPLINE
  5
13b
100
AcDbEntity
  8
Layer_1
 62
7
100
AcDbSpline
 70
8
 71
3
 72
8
 73
4
 74
0
 40
0
 40
0
 40
0
 40
0
 40
1
 40
1
 40
1
 40
1
 10
30.500189
 20
107.282410
 30
0.0
 10
29.417087
 20
107.907927
 30
0.0
 10
28.082510
 20
107.907927
 30
0.0
 10
26.999407
 20
107.282410
 30
0.0
  0
SPLINE
  5
13c
100
AcDbEntity
  8
Layer_1
 62
7
100
AcDbSpline
 70
8
 71
3
 72
8
 73
4
 74
0
 40
0
 40
0
 40
0
 40
0
 40
1
 40
1
 40
1
 40
1
 10
26.999407
 20
107.282410
 30
0.0
 10
25.916305
 20
106.656894
 30
0.0
 10
25.249317
 20
105.500943
 30
0.0
 10
25.249803
 20
104.250191
 30
0.0
  0
SPLINE
  5
13d
100
AcDbEntity
  8
Layer_1
 62
7
100
AcDbSpline
 70
8
 71
3
 72
8
 73
4
 74
0
 40
0
 40
0
 40
0
 40
0
 40
1
 40
1
 40
1
 40
1
 10
25.249803
 20
104.250191
 30
0.0
 10
25.249115
 20
102.999305
 30
0.0
 10
25.916060
 20
101.843144
 30
0.0
 10
26.999245
 20
101.217502
 30
0.0
  0
SPLINE
  5
13e
100
AcDbEntity
  8
Layer_1
 62
7
100
AcDbSpline
 70
8
 71
3
 72
8
 73
4
 74
0
 40
0
 40
0
 40
0
 40
0
 40
1
 40
1
 40
1
 40
1
 10
26.999245
 20
101.217502
 30
0.0
 10
28.082429
 20
100.591860
 30
0.0
 10
29.417167
 20
100.591860
 30
0.0
 10
30.500351
 20
101.217502
 30
0.0
  0
SPLINE
  5
13f
100
AcDbEntity
  8
Layer_1
 62
7
100
AcDbSpline
 70
8
 71
3
 72
8
 73
4
 74
0
 40
0
 40
0
 40
0
 40
0
 40
1
 40
1
 40
1
 40
1
 10
30.500351
 20
101.217502
 30
0.0
 10
31.583536
 20
101.843144
 30
0.0
 10
32.250481
 20
102.999305
 30
0.0
 10
32.249793
 20
104.250191
 30
0.0
  0
LWPOLYLINE
  5
140
100
AcDbEntity
  8
Layer_1
 62
7
100
AcDbPolyline
 90
1
 70
1
 10
19.049811
 20
22.250294
 30
0.0
  0
SPLINE
  5
141
100
AcDbEntity
  8
Layer_1
 62
7
100
AcDbSpline
 70
8
 71
3
 72
8
 73
4
 74
0
 40
0
 40
0
 40
0
 40
0
 40
1
 40
1
 40
1
 40
1
 10
28.899799
 20
127.050163
 30
0.0
 10
28.346038
 20
127.050163
 30
0.0
 10
27.834342
 20
126.754735
 30
0.0
 10
27.557461
 20
126.275164
 30
0.0
  0
SPLINE
  5
142
100
AcDbEntity
  8
Layer_1
 62
7
100
AcDbSpline
 70
8
 71
3
 72
8
 73
4
 74
0
 40
0
 40
0
 40
0
 40
0
 40
1
 40
1
 40
1
 40
1
 10
27.557461
 20
126.275164
 30
0.0
 10
27.280581
 20
125.795592
 30
0.0
 10
27.280581
 20
125.204736
 30
0.0
 10
27.557461
 20
124.725165
 30
0.0
  0
SPLINE
  5
143
100
AcDbEntity
  8
Layer_1
 62
7
100
AcDbSpline
 70
8
 71
3
 72
8
 73
4
 74
0
 40
0
 40
0
 40
0
 40
0
 40
1
 40
1
 40
1
 40
1
 10
27.557461
 20
124.725165
 30
0.0
 10
27.834342
 20
124.245594
 30
0.0
 10
28.346038
 20
123.950166
 30
0.0
 10
28.899799
 20
123.950166
 30
0.0
  0
LWPOLYLINE
  5
144
100
AcDbEntity
  8
Layer_1
 62
7
100
AcDbPolyline
 90
1
 70
1
 10
32.249793
 20
104.250191
 30
0.0
  0
SPLINE
  5
145
100
AcDbEntity
  8
Layer_1
 62
7
100
AcDbSpline
 70
8
 71
3
 72
8
 73
4
 74
0
 40
0
 40
0
 40
0
 40
0
 40
1
 40
1
 40
1
 40
1
 10
31.999794
 20
123.950166
 30
0.0
 10
32.553555
 20
123.950166
 30
0.0
 10
33.065252
 20
124.245594
 30
0.0
 10
33.342132
 20
124.725165
 30
0.0
  0
SPLINE
  5
146
100
AcDbEntity
  8
Layer_1
 62
7
100
AcDbSpline
 70
8
 71
3
 72
8
 73
4
 74
0
 40
0
 40
0
 40
0
 40
0
 40
1
 40
1
 40
1
 40
1
 10
33.342132
 20
124.725165
 30
0.0
 10
33.619013
 20
125.204736
 30
0.0
 10
33.619013
 20
125.795592
 30
0.0
 10
33.342132
 20
126.275164
 30
0.0
  0
SPLINE
  5
147
100
AcDbEntity
  8
Layer_1
 62
7
100
AcDbSpline
 70
8
 71
3
 72
8
 73
4
 74
0
 40
0
 40
0
 40
0
 40
0
 40
1
 40
1
 40
1
 40
1
 10
33.342132
 20
126.275164
 30
0.0
 10
33.065252
 20
126.754735
 30
0.0
 10
32.553555
 20
127.050163
 30
0.0
 10
31.999794
 20
127.050163
 30
0.0
  0
LWPOLYLINE
  5
148
100
AcDbEntity
  8
Layer_1
 62
7
100
AcDbPolyline
 90
2
 70
0
 10
28.899799
 20
123.950166
 30
0.0
 10
31.999794
 20
123.950166
 30
0.0
  0
SPLINE
  5
149
100
AcDbEntity
  8
Layer_1
 62
7
100
AcDbSpline
 70
8
 71
3
 72
8
 73
4
 74
0
 40
0
 40
0
 40
0
 40
0
 40
1
 40
1
 40
1
 40
1
 10
31.099796
 20
35.250279
 30
0.0
 10
31.099796
 20
36.590023
 30
0.0
 10
30.385051
 20
37.827998
 30
0.0
 10
29.224799
 20
38.497870
 30
0.0
  0
SPLINE
  5
14a
100
AcDbEntity
  8
Layer_1
 62
7
100
AcDbSpline
 70
8
 71
3
 72
8
 73
4
 74
0
 40
0
 40
0
 40
0
 40
0
 40
1
 40
1
 40
1
 40
1
 10
29.224799
 20
38.497870
 30
0.0
 10
28.064546
 20
39.167742
 30
0.0
 10
26.635056
 20
39.167742
 30
0.0
 10
25.474803
 20
38.497870
 30
0.0
  0
SPLINE
  5
14b
100
AcDbEntity
  8
Layer_1
 62
7
100
AcDbSpline
 70
8
 71
3
 72
8
 73
4
 74
0
 40
0
 40
0
 40
0
 40
0
 40
1
 40
1
 40
1
 40
1
 10
25.474803
 20
38.497870
 30
0.0
 10
24.314550
 20
37.827998
 30
0.0
 10
23.599805
 20
36.590023
 30
0.0
 10
23.599805
 20
35.250279
 30
0.0
  0
SPLINE
  5
14c
100
AcDbEntity
  8
Layer_1
 62
7
100
AcDbSpline
 70
8
 71
3
 72
8
 73
4
 74
0
 40
0
 40
0
 40
0
 40
0
 40
1
 40
1
 40
1
 40
1
 10
23.599805
 20
35.250279
 30
0.0
 10
23.599805
 20
33.910534
 30
0.0
 10
24.314550
 20
32.672559
 30
0.0
 10
25.474803
 20
32.002687
 30
0.0
  0
SPLINE
  5
14d
100
AcDbEntity
  8
Layer_1
 62
7
100
AcDbSpline
 70
8
 71
3
 72
8
 73
4
 74
0
 40
0
 40
0
 40
0
 40
0
 40
1
 40
1
 40
1
 40
1
 10
25.474803
 20
32.002687
 30
0.0
 10
26.635056
 20
31.332815
 30
0.0
 10
28.064546
 20
31.332815
 30
0.0
 10
29.224799
 20
32.002687
 30
0.0
  0
SPLINE
  5
14e
100
AcDbEntity
  8
Layer_1
 62
7
100
AcDbSpline
 70
8
 71
3
 72
8
 73
4
 74
0
 40
0
 40
0
 40
0
 40
0
 40
1
 40
1
 40
1
 40
1
 10
29.224799
 20
32.002687
 30
0.0
 10
30.385051
 20
32.672559
 30
0.0
 10
31.099796
 20
33.910534
 30
0.0
 10
31.099796
 20
35.250279
 30
0.0
  0
LWPOLYLINE
  5
14f
100
AcDbEntity
  8
Layer_1
 62
7
100
AcDbPolyline
 90
2
 70
0
 10
28.899799
 20
127.050163
 30
0.0
 10
31.999794
 20
127.050163
 30
0.0
  0
SPLINE
  5
150
100
AcDbEntity
  8
Layer_1
 62
7
100
AcDbSpline
 70
8
 71
3
 72
8
 73
4
 74
0
 40
0
 40
0
 40
0
 40
0
 40
1
 40
1
 40
1
 40
1
 10
30.489798
 20
22.067296
 30
0.0
 10
30.489798
 20
23.174818
 30
0.0
 10
29.898942
 20
24.198211
 30
0.0
 10
28.939799
 20
24.751972
 30
0.0
  0
SPLINE
  5
151
100
AcDbEntity
  8
Layer_1
 62
7
100
AcDbSpline
 70
8
 71
3
 72
8
 73
4
 74
0
 40
0
 40
0
 40
0
 40
0
 40
1
 40
1
 40
1
 40
1
 10
28.939799
 20
24.751972
 30
0.0
 10
27.980657
 20
25.305733
 30
0.0
 10
26.798944
 20
25.305733
 30
0.0
 10
25.839802
 20
24.751972
 30
0.0
  0
SPLINE
  5
152
100
AcDbEntity
  8
Layer_1
 62
7
100
AcDbSpline
 70
8
 71
3
 72
8
 73
4
 74
0
 40
0
 40
0
 40
0
 40
0
 40
1
 40
1
 40
1
 40
1
 10
25.839802
 20
24.751972
 30
0.0
 10
24.880659
 20
24.198211
 30
0.0
 10
24.289803
 20
23.174818
 30
0.0
 10
24.289803
 20
22.067296
 30
0.0
  0
SPLINE
  5
153
100
AcDbEntity
  8
Layer_1
 62
7
100
AcDbSpline
 70
8
 71
3
 72
8
 73
4
 74
0
 40
0
 40
0
 40
0
 40
0
 40
1
 40
1
 40
1
 40
1
 10
24.289803
 20
22.067296
 30
0.0
 10
24.289803
 20
20.959773
 30
0.0
 10
24.880659
 20
19.936380
 30
0.0
 10
25.839802
 20
19.382619
 30
0.0
  0
SPLINE
  5
154
100
AcDbEntity
  8
Layer_1
 62
7
100
AcDbSpline
 70
8
 71
3
 72
8
 73
4
 74
0
 40
0
 40
0
 40
0
 40
0
 40
1
 40
1
 40
1
 40
1
 10
25.839802
 20
19.382619
 30
0.0
 10
26.798944
 20
18.828858
 30
0.0
 10
27.980657
 20
18.828858
 30
0.0
 10
28.939799
 20
19.382619
 30
0.0
  0
SPLINE
  5
155
100
AcDbEntity
  8
Layer_1
 62
7
100
AcDbSpline
 70
8
 71
3
 72
8
 73
4
 74
0
 40
0
 40
0
 40
0
 40
0
 40
1
 40
1
 40
1
 40
1
 10
28.939799
 20
19.382619
 30
0.0
 10
29.898942
 20
19.936380
 30
0.0
 10
30.489798
 20
20.959773
 30
0.0
 10
30.489798
 20
22.067296
 30
0.0
  0
LWPOLYLINE
  5
156
100
AcDbEntity
  8
Layer_1
 62
7
100
AcDbPolyline
 90
1
 70
1
 10
31.099796
 20
35.250279
 30
0.0
  0
SPLINE
  5
157
100
AcDbEntity
  8
Layer_1
 62
7
100
AcDbSpline
 70
8
 71
3
 72
8
 73
4
 74
0
 40
0
 40
0
 40
0
 40
0
 40
1
 40
1
 40
1
 40
1
 10
28.899799
 20
4.550316
 30
0.0
 10
28.044372
 20
4.549450
 30
0.0
 10
27.351370
 20
3.855747
 30
0.0
 10
27.351370
 20
3.000319
 30
0.0
  0
SPLINE
  5
158
100
AcDbEntity
  8
Layer_1
 62
7
100
AcDbSpline
 70
8
 71
3
 72
8
 73
4
 74
0
 40
0
 40
0
 40
0
 40
0
 40
1
 40
1
 40
1
 40
1
 10
27.351370
 20
3.000319
 30
0.0
 10
27.351370
 20
2.144891
 30
0.0
 10
28.044372
 20
1.451187
 30
0.0
 10
28.899799
 20
1.450322
 30
0.0
  0
LWPOLYLINE
  5
159
100
AcDbEntity
  8
Layer_1
 62
7
100
AcDbPolyline
 90
1
 70
1
 10
30.489798
 20
22.067296
 30
0.0
  0
SPLINE
  5
15a
100
AcDbEntity
  8
Layer_1
 62
7
100
AcDbSpline
 70
8
 71
3
 72
8
 73
4
 74
0
 40
0
 40
0
 40
0
 40
0
 40
1
 40
1
 40
1
 40
1
 10
31.999794
 20
1.450322
 30
0.0
 10
32.855221
 20
1.451187
 30
0.0
 10
33.548224
 20
2.144891
 30
0.0
 10
33.548224
 20
3.000319
 30
0.0
  0
SPLINE
  5
15b
100
AcDbEntity
  8
Layer_1
 62
7
100
AcDbSpline
 70
8
 71
3
 72
8
 73
4
 74
0
 40
0
 40
0
 40
0
 40
0
 40
1
 40
1
 40
1
 40
1
 10
33.548224
 20
3.000319
 30
0.0
 10
33.548224
 20
3.855747
 30
0.0
 10
32.855221
 20
4.549450
 30
0.0
 10
31.999794
 20
4.550316
 30
0.0
  0
LWPOLYLINE
  5
15c
100
AcDbEntity
  8
Layer_1
 62
7
100
AcDbPolyline
 90
2
 70
0
 10
28.899799
 20
1.450322
 30
0.0
 10
31.999794
 20
1.450322
 30
0.0
  0
LWPOLYLINE
  5
15d
100
AcDbEntity
  8
Layer_1
 62
7
100
AcDbPolyline
 90
2
 70
0
 10
28.899799
 20
4.550316
 30
0.0
 10
31.999794
 20
4.550316
 30
0.0
  0
LWPOLYLINE
  5
15e
100
AcDbEntity
  8
text_and_logo
 62
7
100
AcDbPolyline
 90
19
 70
0
 10
14.853201
 20
11.048070
 30
0.0
 10
15.074174
 20
10.937586
 30
0.0
 10
15.147831
 20
10.827101
 30
0.0
 10
15.221489
 20
10.606133
 30
0.0
 10
15.221489
 20
10.274680
 30
0.0
 10
15.147831
 20
10.053711
 30
0.0
 10
15.074174
 20
9.943228
 30
0.0
 10
14.926858
 20
9.832743
 30
0.0
 10
14.337613
 20
9.832743
 30
0.0
 10
14.337613
 20
12.152913
 30
0.0
 10
14.853201
 20
12.152913
 30
0.0
 10
15.000516
 20
12.042428
 30
0.0
 10
15.074174
 20
11.931945
 30
0.0
 10
15.147831
 20
11.710976
 30
0.0
 10
15.147831
 20
11.490008
 30
0.0
 10
15.074174
 20
11.269038
 30
0.0
 10
15.000516
 20
11.158555
 30
0.0
 10
14.853201
 20
11.048070
 30
0.0
 10
14.337613
 20
11.048070
 30
0.0
  0
LWPOLYLINE
  5
15f
100
AcDbEntity
  8
text_and_logo
 62
7
100
AcDbPolyline
 90
3
 70
0
 10
16.620954
 20
9.832743
 30
0.0
 10
15.884393
 20
9.832743
 30
0.0
 10
15.884393
 20
12.152913
 30
0.0
  0
LWPOLYLINE
  5
160
100
AcDbEntity
  8
text_and_logo
 62
7
100
AcDbPolyline
 90
2
 70
0
 10
17.136557
 20
11.048070
 30
0.0
 10
17.652145
 20
11.048070
 30
0.0
  0
LWPOLYLINE
  5
161
100
AcDbEntity
  8
text_and_logo
 62
7
100
AcDbPolyline
 90
4
 70
0
 10
17.873118
 20
9.832743
 30
0.0
 10
17.136557
 20
9.832743
 30
0.0
 10
17.136557
 20
12.152913
 30
0.0
 10
17.873118
 20
12.152913
 30
0.0
  0
LWPOLYLINE
  5
162
100
AcDbEntity
  8
text_and_logo
 62
7
100
AcDbPolyline
 90
2
 70
0
 10
18.536022
 20
11.048070
 30
0.0
 10
19.051610
 20
11.048070
 30
0.0
  0
LWPOLYLINE
  5
163
100
AcDbEntity
  8
text_and_logo
 62
7
100
AcDbPolyline
 90
4
 70
0
 10
19.272583
 20
9.832743
 30
0.0
 10
18.536022
 20
9.832743
 30
0.0
 10
18.536022
 20
12.152913
 30
0.0
 10
19.272583
 20
12.152913
 30
0.0
  0
LWPOLYLINE
  5
164
100
AcDbEntity
  8
text_and_logo
 62
7
100
AcDbPolyline
 90
11
 70
0
 10
19.935487
 20
9.832743
 30
0.0
 10
19.935487
 20
12.152913
 30
0.0
 10
20.524733
 20
12.152913
 30
0.0
 10
20.672048
 20
12.042428
 30
0.0
 10
20.745705
 20
11.931945
 30
0.0
 10
20.819363
 20
11.710976
 30
0.0
 10
20.819363
 20
11.379523
 30
0.0
 10
20.745705
 20
11.158555
 30
0.0
 10
20.672048
 20
11.048070
 30
0.0
 10
20.524733
 20
10.937586
 30
0.0
 10
19.935487
 20
10.937586
 30
0.0
  0
LWPOLYLINE
  5
165
100
AcDbEntity
  8
text_and_logo
 62
7
100
AcDbPolyline
 90
19
 70
0
 10
14.632243
 20
8.109188
 30
0.0
 10
14.853201
 20
7.998704
 30
0.0
 10
14.926858
 20
7.888219
 30
0.0
 10
15.000516
 20
7.667251
 30
0.0
 10
15.000516
 20
7.335798
 30
0.0
 10
14.926858
 20
7.114829
 30
0.0
 10
14.853201
 20
7.004346
 30
0.0
 10
14.705901
 20
6.893861
 30
0.0
 10
14.116640
 20
6.893861
 30
0.0
 10
14.116640
 20
9.214031
 30
0.0
 10
14.632243
 20
9.214031
 30
0.0
 10
14.779558
 20
9.103546
 30
0.0
 10
14.853201
 20
8.993063
 30
0.0
 10
14.926858
 20
8.772094
 30
0.0
 10
14.926858
 20
8.551126
 30
0.0
 10
14.853201
 20
8.330156
 30
0.0
 10
14.779558
 20
8.219673
 30
0.0
 10
14.632243
 20
8.109188
 30
0.0
 10
14.116640
 20
8.109188
 30
0.0
  0
LWPOLYLINE
  5
166
100
AcDbEntity
  8
text_and_logo
 62
7
100
AcDbPolyline
 90
3
 70
0
 10
16.399981
 20
6.893861
 30
0.0
 10
15.663420
 20
6.893861
 30
0.0
 10
15.663420
 20
9.214031
 30
0.0
  0
LWPOLYLINE
  5
167
100
AcDbEntity
  8
text_and_logo
 62
7
100
AcDbPolyline
 90
16
 70
1
 10
17.210200
 20
9.214031
 30
0.0
 10
17.504830
 20
9.214031
 30
0.0
 10
17.652145
 20
9.103546
 30
0.0
 10
17.799461
 20
8.882578
 30
0.0
 10
17.873118
 20
8.440641
 30
0.0
 10
17.873118
 20
7.667251
 30
0.0
 10
17.799461
 20
7.225314
 30
0.0
 10
17.652145
 20
7.004346
 30
0.0
 10
17.504830
 20
6.893861
 30
0.0
 10
17.210200
 20
6.893861
 30
0.0
 10
17.062900
 20
7.004346
 30
0.0
 10
16.915584
 20
7.225314
 30
0.0
 10
16.841927
 20
7.667251
 30
0.0
 10
16.841927
 20
8.440641
 30
0.0
 10
16.915584
 20
8.882578
 30
0.0
 10
17.062900
 20
9.103546
 30
0.0
  0
LWPOLYLINE
  5
168
100
AcDbEntity
  8
text_and_logo
 62
7
100
AcDbPolyline
 90
16
 70
1
 10
18.830637
 20
9.214031
 30
0.0
 10
19.125268
 20
9.214031
 30
0.0
 10
19.272583
 20
9.103546
 30
0.0
 10
19.419898
 20
8.882578
 30
0.0
 10
19.493541
 20
8.440641
 30
0.0
 10
19.493541
 20
7.667251
 30
0.0
 10
19.419898
 20
7.225314
 30
0.0
 10
19.272583
 20
7.004346
 30
0.0
 10
19.125268
 20
6.893861
 30
0.0
 10
18.830637
 20
6.893861
 30
0.0
 10
18.683337
 20
7.004346
 30
0.0
 10
18.536022
 20
7.225314
 30
0.0
 10
18.462364
 20
7.667251
 30
0.0
 10
18.462364
 20
8.440641
 30
0.0
 10
18.536022
 20
8.882578
 30
0.0
 10
18.683337
 20
9.103546
 30
0.0
  0
LWPOLYLINE
  5
169
100
AcDbEntity
  8
text_and_logo
 62
7
100
AcDbPolyline
 90
11
 70
0
 10
20.156460
 20
6.893861
 30
0.0
 10
20.156460
 20
9.214031
 30
0.0
 10
20.745705
 20
9.214031
 30
0.0
 10
20.893021
 20
9.103546
 30
0.0
 10
20.966678
 20
8.993063
 30
0.0
 10
21.040321
 20
8.772094
 30
0.0
 10
21.040321
 20
8.440641
 30
0.0
 10
20.966678
 20
8.219673
 30
0.0
 10
20.893021
 20
8.109188
 30
0.0
 10
20.745705
 20
7.998704
 30
0.0
 10
20.156460
 20
7.998704
 30
0.0
  0
LWPOLYLINE
  5
16a
100
AcDbEntity
  8
text_and_logo
 62
7
100
AcDbPolyline
 90
2
 70
0
 10
13.041612
 20
12.378373
 30
0.0
 10
13.558298
 20
12.710889
 30
0.0
  0
LWPOLYLINE
  5
16b
100
AcDbEntity
  8
text_and_logo
 62
7
100
AcDbPolyline
 90
2
 70
0
 10
12.628003
 20
7.399941
 30
0.0
 10
12.591437
 20
7.917528
 30
0.0
  0
LWPOLYLINE
  5
16c
100
AcDbEntity
  8
text_and_logo
 62
7
100
AcDbPolyline
 90
2
 70
0
 10
12.587477
 20
6.280532
 30
0.0
 10
12.883964
 20
6.918148
 30
0.0
  0
LWPOLYLINE
  5
16d
100
AcDbEntity
  8
text_and_logo
 62
7
100
AcDbPolyline
 90
2
 70
0
 10
22.295826
 20
7.247377
 30
0.0
 10
21.963300
 20
6.730697
 30
0.0
  0
LWPOLYLINE
  5
16e
100
AcDbEntity
  8
text_and_logo
 62
7
100
AcDbPolyline
 90
2
 70
0
 10
12.591437
 20
11.191543
 30
0.0
 10
12.709101
 20
11.861693
 30
0.0
  0
LWPOLYLINE
  5
16f
100
AcDbEntity
  8
text_and_logo
 62
7
100
AcDbPolyline
 90
2
 70
0
 10
21.963300
 20
12.378373
 30
0.0
 10
22.295826
 20
11.861693
 30
0.0
  0
LWPOLYLINE
  5
170
100
AcDbEntity
  8
text_and_logo
 62
7
100
AcDbPolyline
 90
2
 70
0
 10
21.446629
 20
12.710892
 30
0.0
 10
21.963300
 20
12.378373
 30
0.0
  0
LWPOLYLINE
  5
171
100
AcDbEntity
  8
text_and_logo
 62
7
100
AcDbPolyline
 90
2
 70
0
 10
22.413490
 20
11.191546
 30
0.0
 10
22.413475
 20
7.917528
 30
0.0
  0
LWPOLYLINE
  5
172
100
AcDbEntity
  8
text_and_logo
 62
7
100
AcDbPolyline
 90
2
 70
0
 10
12.709101
 20
11.861693
 30
0.0
 10
13.041612
 20
12.378373
 30
0.0
  0
LWPOLYLINE
  5
173
100
AcDbEntity
  8
text_and_logo
 62
7
100
AcDbPolyline
 90
3
 70
0
 10
13.716951
 20
6.315368
 30
0.0
 10
13.248911
 20
6.559316
 30
0.0
 10
12.587477
 20
6.280532
 30
0.0
  0
LWPOLYLINE
  5
174
100
AcDbEntity
  8
text_and_logo
 62
7
100
AcDbPolyline
 90
3
 70
0
 10
14.228441
 20
12.828549
 30
0.0
 10
20.776471
 20
12.828554
 30
0.0
 10
21.446629
 20
12.710892
 30
0.0
  0
LWPOLYLINE
  5
175
100
AcDbEntity
  8
text_and_logo
 62
7
100
AcDbPolyline
 90
2
 70
0
 10
21.446629
 20
6.398180
 30
0.0
 10
20.776471
 20
6.280519
 30
0.0
  0
LWPOLYLINE
  5
176
100
AcDbEntity
  8
text_and_logo
 62
7
100
AcDbPolyline
 90
2
 70
0
 10
22.413475
 20
7.917528
 30
0.0
 10
22.295826
 20
7.247377
 30
0.0
  0
LWPOLYLINE
  5
177
100
AcDbEntity
  8
text_and_logo
 62
7
100
AcDbPolyline
 90
3
 70
0
 10
20.776471
 20
6.280519
 30
0.0
 10
14.228441
 20
6.280519
 30
0.0
 10
13.716951
 20
6.315368
 30
0.0
  0
LWPOLYLINE
  5
178
100
AcDbEntity
  8
text_and_logo
 62
7
100
AcDbPolyline
 90
2
 70
0
 10
21.963300
 20
6.730697
 30
0.0
 10
21.446629
 20
6.398180
 30
0.0
  0
LWPOLYLINE
  5
179
100
AcDbEntity
  8
text_and_logo
 62
7
100
AcDbPolyline
 90
2
 70
0
 10
12.883964
 20
6.918148
 30
0.0
 10
12.628003
 20
7.399941
 30
0.0
  0
LWPOLYLINE
  5
17a
100
AcDbEntity
  8
text_and_logo
 62
7
100
AcDbPolyline
 90
2
 70
0
 10
13.558298
 20
12.710889
 30
0.0
 10
14.228441
 20
12.828549
 30
0.0
  0
LWPOLYLINE
  5
17b
100
AcDbEntity
  8
text_and_logo
 62
7
100
AcDbPolyline
 90
2
 70
0
 10
22.295826
 20
11.861693
 30
0.0
 10
22.413490
 20
11.191546
 30
0.0
  0
LWPOLYLINE
  5
17c
100
AcDbEntity
  8
text_and_logo
 62
7
100
AcDbPolyline
 90
2
 70
0
 10
12.591437
 20
7.917528
 30
0.0
 10
12.591437
 20
11.191543
 30
0.0
  0
LWPOLYLINE
  5
17d
100
AcDbEntity
  8
text_and_logo
 62
7
100
AcDbPolyline
 90
2
 70
0
 10
8.878091
 20
122.631116
 30
0.0
 10
8.878091
 20
120.762800
 30
0.0
  0
LWPOLYLINE
  5
17e
100
AcDbEntity
  8
text_and_logo
 62
7
100
AcDbPolyline
 90
10
 70
0
 10
8.878091
 20
122.631116
 30
0.0
 10
9.679604
 20
122.631116
 30
0.0
 10
9.944894
 20
122.540805
 30
0.0
 10
10.035205
 20
122.450494
 30
0.0
 10
10.125516
 20
122.275515
 30
0.0
 10
10.125516
 20
122.094893
 30
0.0
 10
10.035205
 20
121.919914
 30
0.0
 10
9.944894
 20
121.829603
 30
0.0
 10
9.679604
 20
121.739292
 30
0.0
 10
8.878091
 20
121.739292
 30
0.0
  0
LWPOLYLINE
  5
17f
100
AcDbEntity
  8
text_and_logo
 62
7
100
AcDbPolyline
 90
2
 70
0
 10
9.501803
 20
121.739292
 30
0.0
 10
10.125516
 20
120.762800
 30
0.0
  0
LWPOLYLINE
  5
180
100
AcDbEntity
  8
text_and_logo
 62
7
100
AcDbPolyline
 90
16
 70
1
 10
11.102012
 20
122.007403
 30
0.0
 10
10.927033
 20
121.919914
 30
0.0
 10
10.746411
 20
121.739292
 30
0.0
 10
10.658921
 20
121.474002
 30
0.0
 10
10.658921
 20
121.296201
 30
0.0
 10
10.746411
 20
121.029501
 30
0.0
 10
10.927033
 20
120.851700
 30
0.0
 10
11.102012
 20
120.762800
 30
0.0
 10
11.370123
 20
120.762800
 30
0.0
 10
11.547924
 20
120.851700
 30
0.0
 10
11.725724
 20
121.029501
 30
0.0
 10
11.813214
 20
121.296201
 30
0.0
 10
11.813214
 20
121.474002
 30
0.0
 10
11.725724
 20
121.739292
 30
0.0
 10
11.547924
 20
121.919914
 30
0.0
 10
11.370123
 20
122.007403
 30
0.0
  0
LWPOLYLINE
  5
181
100
AcDbEntity
  8
text_and_logo
 62
7
100
AcDbPolyline
 90
2
 70
0
 10
12.434101
 20
122.631116
 30
0.0
 10
12.434101
 20
120.762800
 30
0.0
  0
LWPOLYLINE
  5
182
100
AcDbEntity
  8
text_and_logo
 62
7
100
AcDbPolyline
 90
14
 70
0
 10
12.434101
 20
121.739292
 30
0.0
 10
12.614723
 20
121.919914
 30
0.0
 10
12.789702
 20
122.007403
 30
0.0
 10
13.057813
 20
122.007403
 30
0.0
 10
13.235614
 20
121.919914
 30
0.0
 10
13.413414
 20
121.739292
 30
0.0
 10
13.500904
 20
121.474002
 30
0.0
 10
13.500904
 20
121.296201
 30
0.0
 10
13.413414
 20
121.029501
 30
0.0
 10
13.235614
 20
120.851700
 30
0.0
 10
13.057813
 20
120.762800
 30
0.0
 10
12.789702
 20
120.762800
 30
0.0
 10
12.614723
 20
120.851700
 30
0.0
 10
12.434101
 20
121.029501
 30
0.0
  0
LWPOLYLINE
  5
183
100
AcDbEntity
  8
text_and_logo
 62
7
100
AcDbPolyline
 90
16
 70
1
 10
14.477392
 20
122.007403
 30
0.0
 10
14.302413
 20
121.919914
 30
0.0
 10
14.121791
 20
121.739292
 30
0.0
 10
14.034301
 20
121.474002
 30
0.0
 10
14.034301
 20
121.296201
 30
0.0
 10
14.121791
 20
121.029501
 30
0.0
 10
14.302413
 20
120.851700
 30
0.0
 10
14.477392
 20
120.762800
 30
0.0
 10
14.745503
 20
120.762800
 30
0.0
 10
14.923304
 20
120.851700
 30
0.0
 10
15.101104
 20
121.029501
 30
0.0
 10
15.188594
 20
121.296201
 30
0.0
 10
15.188594
 20
121.474002
 30
0.0
 10
15.101104
 20
121.739292
 30
0.0
 10
14.923304
 20
121.919914
 30
0.0
 10
14.745503
 20
122.007403
 30
0.0
  0
LWPOLYLINE
  5
184
100
AcDbEntity
  8
text_and_logo
 62
7
100
AcDbPolyline
 90
5
 70
0
 10
15.899802
 20
122.631116
 30
0.0
 10
15.899802
 20
121.118401
 30
0.0
 10
15.990113
 20
120.851700
 30
0.0
 10
16.165092
 20
120.762800
 30
0.0
 10
16.345714
 20
120.762800
 30
0.0
  0
LWPOLYLINE
  5
185
100
AcDbEntity
  8
text_and_logo
 62
7
100
AcDbPolyline
 90
2
 70
0
 10
15.634512
 20
122.007403
 30
0.0
 10
16.255403
 20
122.007403
 30
0.0
  0
LWPOLYLINE
  5
186
100
AcDbEntity
  8
text_and_logo
 62
7
100
AcDbPolyline
 90
2
 70
0
 10
16.876291
 20
122.631116
 30
0.0
 10
16.876291
 20
120.762800
 30
0.0
  0
LWPOLYLINE
  5
187
100
AcDbEntity
  8
text_and_logo
 62
7
100
AcDbPolyline
 90
12
 70
0
 10
16.876291
 20
122.631116
 30
0.0
 10
17.500003
 20
122.631116
 30
0.0
 10
17.768115
 20
122.540805
 30
0.0
 10
17.943094
 20
122.363004
 30
0.0
 10
18.033405
 20
122.185204
 30
0.0
 10
18.123716
 20
121.919914
 30
0.0
 10
18.123716
 20
121.474002
 30
0.0
 10
18.033405
 20
121.208712
 30
0.0
 10
17.943094
 20
121.029501
 30
0.0
 10
17.768115
 20
120.851700
 30
0.0
 10
17.500003
 20
120.762800
 30
0.0
 10
16.876291
 20
120.762800
 30
0.0
  0
LWPOLYLINE
  5
188
100
AcDbEntity
  8
text_and_logo
 62
7
100
AcDbPolyline
 90
4
 70
1
 10
18.657121
 20
122.631116
 30
0.0
 10
18.744611
 20
122.540805
 30
0.0
 10
18.834922
 20
122.631116
 30
0.0
 10
18.744611
 20
122.718605
 30
0.0
  0
LWPOLYLINE
  5
189
100
AcDbEntity
  8
text_and_logo
 62
7
100
AcDbPolyline
 90
2
 70
0
 10
18.744611
 20
122.007403
 30
0.0
 10
18.744611
 20
120.762800
 30
0.0
  0
LWPOLYLINE
  5
18a
100
AcDbEntity
  8
text_and_logo
 62
7
100
AcDbPolyline
 90
2
 70
0
 10
20.435104
 20
122.007403
 30
0.0
 10
20.435104
 20
120.762800
 30
0.0
  0
LWPOLYLINE
  5
18b
100
AcDbEntity
  8
text_and_logo
 62
7
100
AcDbPolyline
 90
14
 70
0
 10
20.435104
 20
121.739292
 30
0.0
 10
20.257304
 20
121.919914
 30
0.0
 10
20.079503
 20
122.007403
 30
0.0
 10
19.811392
 20
122.007403
 30
0.0
 10
19.636413
 20
121.919914
 30
0.0
 10
19.455791
 20
121.739292
 30
0.0
 10
19.368301
 20
121.474002
 30
0.0
 10
19.368301
 20
121.296201
 30
0.0
 10
19.455791
 20
121.029501
 30
0.0
 10
19.636413
 20
120.851700
 30
0.0
 10
19.811392
 20
120.762800
 30
0.0
 10
20.079503
 20
120.762800
 30
0.0
 10
20.257304
 20
120.851700
 30
0.0
 10
20.435104
 20
121.029501
 30
0.0
  0
LWPOLYLINE
  5
18c
100
AcDbEntity
  8
text_and_logo
 62
7
100
AcDbPolyline
 90
2
 70
0
 10
21.143491
 20
122.631116
 30
0.0
 10
21.143491
 20
120.762800
 30
0.0
  0
LWPOLYLINE
  5
18d
100
AcDbEntity
  8
text_and_logo
 62
7
100
AcDbPolyline
 90
16
 70
1
 10
22.210292
 20
122.007403
 30
0.0
 10
22.035313
 20
121.919914
 30
0.0
 10
21.854691
 20
121.739292
 30
0.0
 10
21.767201
 20
121.474002
 30
0.0
 10
21.767201
 20
121.296201
 30
0.0
 10
21.854691
 20
121.029501
 30
0.0
 10
22.035313
 20
120.851700
 30
0.0
 10
22.210292
 20
120.762800
 30
0.0
 10
22.478403
 20
120.762800
 30
0.0
 10
22.656204
 20
120.851700
 30
0.0
 10
22.834004
 20
121.029501
 30
0.0
 10
22.921494
 20
121.296201
 30
0.0
 10
22.921494
 20
121.474002
 30
0.0
 10
22.834004
 20
121.739292
 30
0.0
 10
22.656204
 20
121.919914
 30
0.0
 10
22.478403
 20
122.007403
 30
0.0
  0
LWPOLYLINE
  5
18e
100
AcDbEntity
  8
text_and_logo
 62
7
100
AcDbPolyline
 90
7
 70
0
 10
24.521704
 20
122.007403
 30
0.0
 10
24.521704
 20
120.585000
 30
0.0
 10
24.434215
 20
120.316888
 30
0.0
 10
24.343904
 20
120.229399
 30
0.0
 10
24.166103
 20
120.141909
 30
0.0
 10
23.897992
 20
120.141909
 30
0.0
 10
23.723013
 20
120.229399
 30
0.0
  0
LWPOLYLINE
  5
18f
100
AcDbEntity
  8
text_and_logo
 62
7
100
AcDbPolyline
 90
14
 70
0
 10
24.521704
 20
121.739292
 30
0.0
 10
24.343904
 20
121.919914
 30
0.0
 10
24.166103
 20
122.007403
 30
0.0
 10
23.897992
 20
122.007403
 30
0.0
 10
23.723013
 20
121.919914
 30
0.0
 10
23.542391
 20
121.739292
 30
0.0
 10
23.454901
 20
121.474002
 30
0.0
 10
23.454901
 20
121.296201
 30
0.0
 10
23.542391
 20
121.029501
 30
0.0
 10
23.723013
 20
120.851700
 30
0.0
 10
23.897992
 20
120.762800
 30
0.0
 10
24.166103
 20
120.762800
 30
0.0
 10
24.343904
 20
120.851700
 30
0.0
 10
24.521704
 20
121.029501
 30
0.0
  0
LWPOLYLINE
  5
190
100
AcDbEntity
  8
text_and_logo
 62
7
100
AcDbPolyline
 90
17
 70
0
 10
26.121915
 20
121.739292
 30
0.0
 10
26.031604
 20
121.919914
 30
0.0
 10
25.766314
 20
122.007403
 30
0.0
 10
25.498202
 20
122.007403
 30
0.0
 10
25.230091
 20
121.919914
 30
0.0
 10
25.142601
 20
121.739292
 30
0.0
 10
25.230091
 20
121.564313
 30
0.0
 10
25.410713
 20
121.474002
 30
0.0
 10
25.853803
 20
121.383691
 30
0.0
 10
26.031604
 20
121.296201
 30
0.0
 10
26.121915
 20
121.118401
 30
0.0
 10
26.121915
 20
121.029501
 30
0.0
 10
26.031604
 20
120.851700
 30
0.0
 10
25.766314
 20
120.762800
 30
0.0
 10
25.498202
 20
120.762800
 30
0.0
 10
25.230091
 20
120.851700
 30
0.0
 10
25.142601
 20
121.029501
 30
0.0
  0
LWPOLYLINE
  5
191
100
AcDbEntity
  8
text_and_logo
 62
7
100
AcDbPolyline
 90
3
 70
0
 10
10.207391
 20
119.135016
 30
0.0
 10
10.207391
 20
117.266700
 30
0.0
 10
11.274194
 20
117.266700
 30
0.0
  0
LWPOLYLINE
  5
192
100
AcDbEntity
  8
text_and_logo
 62
7
100
AcDbPolyline
 90
2
 70
0
 10
11.720111
 20
119.135016
 30
0.0
 10
11.720111
 20
117.266700
 30
0.0
  0
LWPOLYLINE
  5
193
100
AcDbEntity
  8
text_and_logo
 62
7
100
AcDbPolyline
 90
2
 70
0
 10
11.720111
 20
119.135016
 30
0.0
 10
12.877225
 20
119.135016
 30
0.0
  0
LWPOLYLINE
  5
194
100
AcDbEntity
  8
text_and_logo
 62
7
100
AcDbPolyline
 90
2
 70
0
 10
11.720111
 20
118.243192
 30
0.0
 10
12.431313
 20
118.243192
 30
0.0
  0
LWPOLYLINE
  5
195
100
AcDbEntity
  8
text_and_logo
 62
7
100
AcDbPolyline
 90
20
 70
1
 10
13.766223
 20
119.135016
 30
0.0
 10
13.588422
 20
119.044705
 30
0.0
 10
13.410622
 20
118.866904
 30
0.0
 10
13.320311
 20
118.689104
 30
0.0
 10
13.232821
 20
118.423814
 30
0.0
 10
13.232821
 20
117.977902
 30
0.0
 10
13.320311
 20
117.712612
 30
0.0
 10
13.410622
 20
117.533401
 30
0.0
 10
13.588422
 20
117.355600
 30
0.0
 10
13.766223
 20
117.266700
 30
0.0
 10
14.121824
 20
117.266700
 30
0.0
 10
14.299624
 20
117.355600
 30
0.0
 10
14.477425
 20
117.533401
 30
0.0
 10
14.567736
 20
117.712612
 30
0.0
 10
14.655225
 20
117.977902
 30
0.0
 10
14.655225
 20
118.423814
 30
0.0
 10
14.567736
 20
118.689104
 30
0.0
 10
14.477425
 20
118.866904
 30
0.0
 10
14.299624
 20
119.044705
 30
0.0
 10
14.121824
 20
119.135016
 30
0.0
  0
LWPOLYLINE
  5
196
100
AcDbEntity
  8
text_and_logo
 62
7
100
AcDbPolyline
 90
20
 70
0
 10
17.500035
 20
118.866904
 30
0.0
 10
17.322234
 20
119.044705
 30
0.0
 10
17.054123
 20
119.135016
 30
0.0
 10
16.698522
 20
119.135016
 30
0.0
 10
16.433232
 20
119.044705
 30
0.0
 10
16.255431
 20
118.866904
 30
0.0
 10
16.255431
 20
118.689104
 30
0.0
 10
16.342921
 20
118.511303
 30
0.0
 10
16.433232
 20
118.423814
 30
0.0
 10
16.611032
 20
118.333503
 30
0.0
 10
17.144434
 20
118.155702
 30
0.0
 10
17.322234
 20
118.068213
 30
0.0
 10
17.409724
 20
117.977902
 30
0.0
 10
17.500035
 20
117.800101
 30
0.0
 10
17.500035
 20
117.533401
 30
0.0
 10
17.322234
 20
117.355600
 30
0.0
 10
17.054123
 20
117.266700
 30
0.0
 10
16.698522
 20
117.266700
 30
0.0
 10
16.433232
 20
117.355600
 30
0.0
 10
16.255431
 20
117.533401
 30
0.0
  0
LWPOLYLINE
  5
197
100
AcDbEntity
  8
text_and_logo
 62
7
100
AcDbPolyline
 90
2
 70
0
 10
18.476522
 20
119.135016
 30
0.0
 10
18.476522
 20
117.266700
 30
0.0
  0
LWPOLYLINE
  5
198
100
AcDbEntity
  8
text_and_logo
 62
7
100
AcDbPolyline
 90
2
 70
0
 10
17.855631
 20
119.135016
 30
0.0
 10
19.100234
 20
119.135016
 30
0.0
  0
LWPOLYLINE
  5
199
100
AcDbEntity
  8
text_and_logo
 62
7
100
AcDbPolyline
 90
20
 70
1
 10
19.989243
 20
119.135016
 30
0.0
 10
19.811442
 20
119.044705
 30
0.0
 10
19.633642
 20
118.866904
 30
0.0
 10
19.543331
 20
118.689104
 30
0.0
 10
19.455841
 20
118.423814
 30
0.0
 10
19.455841
 20
117.977902
 30
0.0
 10
19.543331
 20
117.712612
 30
0.0
 10
19.633642
 20
117.533401
 30
0.0
 10
19.811442
 20
117.355600
 30
0.0
 10
19.989243
 20
117.266700
 30
0.0
 10
20.344844
 20
117.266700
 30
0.0
 10
20.522644
 20
117.355600
 30
0.0
 10
20.700445
 20
117.533401
 30
0.0
 10
20.790756
 20
117.712612
 30
0.0
 10
20.878245
 20
117.977902
 30
0.0
 10
20.878245
 20
118.423814
 30
0.0
 10
20.790756
 20
118.689104
 30
0.0
 10
20.700445
 20
118.866904
 30
0.0
 10
20.522644
 20
119.044705
 30
0.0
 10
20.344844
 20
119.135016
 30
0.0
  0
LWPOLYLINE
  5
19a
100
AcDbEntity
  8
text_and_logo
 62
7
100
AcDbPolyline
 90
2
 70
0
 10
21.499091
 20
119.135016
 30
0.0
 10
21.499091
 20
117.266700
 30
0.0
  0
LWPOLYLINE
  5
19b
100
AcDbEntity
  8
text_and_logo
 62
7
100
AcDbPolyline
 90
2
 70
0
 10
21.499091
 20
119.135016
 30
0.0
 10
22.210293
 20
117.266700
 30
0.0
  0
LWPOLYLINE
  5
19c
100
AcDbEntity
  8
text_and_logo
 62
7
100
AcDbPolyline
 90
2
 70
0
 10
22.921495
 20
119.135016
 30
0.0
 10
22.210293
 20
117.266700
 30
0.0
  0
LWPOLYLINE
  5
19d
100
AcDbEntity
  8
text_and_logo
 62
7
100
AcDbPolyline
 90
2
 70
0
 10
22.921495
 20
119.135016
 30
0.0
 10
22.921495
 20
117.266700
 30
0.0
  0
LWPOLYLINE
  5
19e
100
AcDbEntity
  8
text_and_logo
 62
7
100
AcDbPolyline
 90
2
 70
0
 10
23.632691
 20
119.135016
 30
0.0
 10
23.632691
 20
117.266700
 30
0.0
  0
LWPOLYLINE
  5
19f
100
AcDbEntity
  8
text_and_logo
 62
7
100
AcDbPolyline
 90
10
 70
0
 10
23.632691
 20
119.135016
 30
0.0
 10
24.434204
 20
119.135016
 30
0.0
 10
24.699494
 20
119.044705
 30
0.0
 10
24.789805
 20
118.954394
 30
0.0
 10
24.880116
 20
118.779415
 30
0.0
 10
24.880116
 20
118.511303
 30
0.0
 10
24.789805
 20
118.333503
 30
0.0
 10
24.699494
 20
118.243192
 30
0.0
 10
24.434204
 20
118.155702
 30
0.0
 10
23.632691
 20
118.155702
 30
0.0
  0
LWPOLYLINE
  5
1a0
100
AcDbEntity
  8
text_and_logo
 62
7
100
AcDbPolyline
 90
3
 70
0
 10
5.426091
 20
16.493716
 30
0.0
 10
5.426091
 20
14.625400
 30
0.0
 10
6.492894
 20
14.625400
 30
0.0
  0
LWPOLYLINE
  5
1a1
100
AcDbEntity
  8
text_and_logo
 62
7
100
AcDbPolyline
 90
2
 70
0
 10
6.938811
 20
16.493716
 30
0.0
 10
6.938811
 20
14.625400
 30
0.0
  0
LWPOLYLINE
  5
1a2
100
AcDbEntity
  8
text_and_logo
 62
7
100
AcDbPolyline
 90
2
 70
0
 10
6.938811
 20
16.493716
 30
0.0
 10
8.095925
 20
16.493716
 30
0.0
  0
LWPOLYLINE
  5
1a3
100
AcDbEntity
  8
text_and_logo
 62
7
100
AcDbPolyline
 90
2
 70
0
 10
6.938811
 20
15.601892
 30
0.0
 10
7.650013
 20
15.601892
 30
0.0
  0
LWPOLYLINE
  5
1a4
100
AcDbEntity
  8
text_and_logo
 62
7
100
AcDbPolyline
 90
20
 70
1
 10
8.984923
 20
16.493716
 30
0.0
 10
8.807122
 20
16.403405
 30
0.0
 10
8.629322
 20
16.225604
 30
0.0
 10
8.539011
 20
16.047804
 30
0.0
 10
8.451521
 20
15.782514
 30
0.0
 10
8.451521
 20
15.336602
 30
0.0
 10
8.539011
 20
15.071312
 30
0.0
 10
8.629322
 20
14.892101
 30
0.0
 10
8.807122
 20
14.714300
 30
0.0
 10
8.984923
 20
14.625400
 30
0.0
 10
9.340524
 20
14.625400
 30
0.0
 10
9.518324
 20
14.714300
 30
0.0
 10
9.696125
 20
14.892101
 30
0.0
 10
9.786436
 20
15.071312
 30
0.0
 10
9.873925
 20
15.336602
 30
0.0
 10
9.873925
 20
15.782514
 30
0.0
 10
9.786436
 20
16.047804
 30
0.0
 10
9.696125
 20
16.225604
 30
0.0
 10
9.518324
 20
16.403405
 30
0.0
 10
9.340524
 20
16.493716
 30
0.0
  0
LWPOLYLINE
  5
1a5
100
AcDbEntity
  8
text_and_logo
 62
7
100
AcDbPolyline
 90
2
 70
0
 10
21.259591
 20
17.931016
 30
0.0
 10
21.259591
 20
16.062700
 30
0.0
  0
LWPOLYLINE
  5
1a6
100
AcDbEntity
  8
text_and_logo
 62
7
100
AcDbPolyline
 90
2
 70
0
 10
21.970793
 20
17.931016
 30
0.0
 10
21.970793
 20
16.062700
 30
0.0
  0
LWPOLYLINE
  5
1a7
100
AcDbEntity
  8
text_and_logo
 62
7
100
AcDbPolyline
 90
2
 70
0
 10
21.970793
 20
17.931016
 30
0.0
 10
23.218218
 20
16.062700
 30
0.0
  0
LWPOLYLINE
  5
1a8
100
AcDbEntity
  8
text_and_logo
 62
7
100
AcDbPolyline
 90
2
 70
0
 10
23.218218
 20
17.931016
 30
0.0
 10
23.218218
 20
16.062700
 30
0.0
  0
LWPOLYLINE
  5
1a9
100
AcDbEntity
  8
text_and_logo
 62
7
100
AcDbPolyline
 90
2
 70
0
 10
23.661311
 20
17.931016
 30
0.0
 10
24.372513
 20
16.062700
 30
0.0
  0
LWPOLYLINE
  5
1aa
100
AcDbEntity
  8
text_and_logo
 62
7
100
AcDbPolyline
 90
2
 70
0
 10
25.083715
 20
17.931016
 30
0.0
 10
24.372513
 20
16.062700
 30
0.0
  0
LWPOLYLINE
  5
1ab
100
AcDbEntity
  8
text_and_logo
 62
7
100
AcDbPolyline
 90
2
 70
0
 10
25.526801
 20
17.931016
 30
0.0
 10
25.526801
 20
16.062700
 30
0.0
  0
LWPOLYLINE
  5
1ac
100
AcDbEntity
  8
text_and_logo
 62
7
100
AcDbPolyline
 90
2
 70
0
 10
25.526801
 20
17.931016
 30
0.0
 10
26.683915
 20
17.931016
 30
0.0
  0
LWPOLYLINE
  5
1ad
100
AcDbEntity
  8
text_and_logo
 62
7
100
AcDbPolyline
 90
2
 70
0
 10
25.526801
 20
17.039192
 30
0.0
 10
26.238003
 20
17.039192
 30
0.0
  0
LWPOLYLINE
  5
1ae
100
AcDbEntity
  8
text_and_logo
 62
7
100
AcDbPolyline
 90
2
 70
0
 10
25.526801
 20
16.062700
 30
0.0
 10
26.683915
 20
16.062700
 30
0.0
  0
LWPOLYLINE
  5
1af
100
AcDbEntity
  8
text_and_logo
 62
7
100
AcDbPolyline
 90
2
 70
0
 10
27.214501
 20
17.931016
 30
0.0
 10
27.214501
 20
16.062700
 30
0.0
  0
LWPOLYLINE
  5
1b0
100
AcDbEntity
  8
text_and_logo
 62
7
100
AcDbPolyline
 90
10
 70
0
 10
27.214501
 20
17.931016
 30
0.0
 10
28.016014
 20
17.931016
 30
0.0
 10
28.281304
 20
17.840705
 30
0.0
 10
28.371615
 20
17.750394
 30
0.0
 10
28.461926
 20
17.575415
 30
0.0
 10
28.461926
 20
17.394793
 30
0.0
 10
28.371615
 20
17.219814
 30
0.0
 10
28.281304
 20
17.129503
 30
0.0
 10
28.016014
 20
17.039192
 30
0.0
 10
27.214501
 20
17.039192
 30
0.0
  0
LWPOLYLINE
  5
1b1
100
AcDbEntity
  8
text_and_logo
 62
7
100
AcDbPolyline
 90
2
 70
0
 10
27.838213
 20
17.039192
 30
0.0
 10
28.461926
 20
16.062700
 30
0.0
  0
LWPOLYLINE
  5
1b2
100
AcDbEntity
  8
text_and_logo
 62
7
100
AcDbPolyline
 90
2
 70
0
 10
29.438412
 20
17.931016
 30
0.0
 10
29.438412
 20
16.062700
 30
0.0
  0
LWPOLYLINE
  5
1b3
100
AcDbEntity
  8
text_and_logo
 62
7
100
AcDbPolyline
 90
2
 70
0
 10
28.817521
 20
17.931016
 30
0.0
 10
30.062124
 20
17.931016
 30
0.0
  0
LWPOLYLINE
  5
1b4
100
AcDbEntity
  8
text_and_logo
 62
7
100
AcDbPolyline
 90
2
 70
0
 10
30.505221
 20
17.931016
 30
0.0
 10
30.505221
 20
16.062700
 30
0.0
  0
LWPOLYLINE
  5
1b5
100
AcDbEntity
  8
text_and_logo
 62
7
100
AcDbPolyline
 90
2
 70
0
 10
30.505221
 20
17.931016
 30
0.0
 10
31.662335
 20
17.931016
 30
0.0
  0
LWPOLYLINE
  5
1b6
100
AcDbEntity
  8
text_and_logo
 62
7
100
AcDbPolyline
 90
2
 70
0
 10
30.505221
 20
17.039192
 30
0.0
 10
31.216423
 20
17.039192
 30
0.0
  0
LWPOLYLINE
  5
1b7
100
AcDbEntity
  8
text_and_logo
 62
7
100
AcDbPolyline
 90
2
 70
0
 10
30.505221
 20
16.062700
 30
0.0
 10
31.662335
 20
16.062700
 30
0.0
  0
LWPOLYLINE
  5
1b8
100
AcDbEntity
  8
text_and_logo
 62
7
100
AcDbPolyline
 90
2
 70
0
 10
32.192891
 20
17.931016
 30
0.0
 10
32.192891
 20
16.062700
 30
0.0
  0
LWPOLYLINE
  5
1b9
100
AcDbEntity
  8
text_and_logo
 62
7
100
AcDbPolyline
 90
12
 70
0
 10
32.192891
 20
17.931016
 30
0.0
 10
32.816603
 20
17.931016
 30
0.0
 10
33.084715
 20
17.840705
 30
0.0
 10
33.259694
 20
17.662904
 30
0.0
 10
33.350005
 20
17.485104
 30
0.0
 10
33.440316
 20
17.219814
 30
0.0
 10
33.440316
 20
16.773902
 30
0.0
 10
33.350005
 20
16.508612
 30
0.0
 10
33.259694
 20
16.329401
 30
0.0
 10
33.084715
 20
16.151600
 30
0.0
 10
32.816603
 20
16.062700
 30
0.0
 10
32.192891
 20
16.062700
 30
0.0
  0
LWPOLYLINE
  5
1ba
100
AcDbEntity
  8
text_and_logo
 62
7
100
AcDbPolyline
 90
3
 70
0
 10
25.126091
 20
15.141016
 30
0.0
 10
25.126091
 20
13.272700
 30
0.0
 10
26.192894
 20
13.272700
 30
0.0
  0
LWPOLYLINE
  5
1bb
100
AcDbEntity
  8
text_and_logo
 62
7
100
AcDbPolyline
 90
2
 70
0
 10
26.638811
 20
15.141016
 30
0.0
 10
26.638811
 20
13.272700
 30
0.0
  0
LWPOLYLINE
  5
1bc
100
AcDbEntity
  8
text_and_logo
 62
7
100
AcDbPolyline
 90
2
 70
0
 10
26.638811
 20
15.141016
 30
0.0
 10
27.795925
 20
15.141016
 30
0.0
  0
LWPOLYLINE
  5
1bd
100
AcDbEntity
  8
text_and_logo
 62
7
100
AcDbPolyline
 90
2
 70
0
 10
26.638811
 20
14.249192
 30
0.0
 10
27.350013
 20
14.249192
 30
0.0
  0
LWPOLYLINE
  5
1be
100
AcDbEntity
  8
text_and_logo
 62
7
100
AcDbPolyline
 90
20
 70
1
 10
28.684923
 20
15.141016
 30
0.0
 10
28.507122
 20
15.050705
 30
0.0
 10
28.329322
 20
14.872904
 30
0.0
 10
28.239011
 20
14.695104
 30
0.0
 10
28.151521
 20
14.429814
 30
0.0
 10
28.151521
 20
13.983902
 30
0.0
 10
28.239011
 20
13.718612
 30
0.0
 10
28.329322
 20
13.539401
 30
0.0
 10
28.507122
 20
13.361600
 30
0.0
 10
28.684923
 20
13.272700
 30
0.0
 10
29.040524
 20
13.272700
 30
0.0
 10
29.218324
 20
13.361600
 30
0.0
 10
29.396125
 20
13.539401
 30
0.0
 10
29.486436
 20
13.718612
 30
0.0
 10
29.573925
 20
13.983902
 30
0.0
 10
29.573925
 20
14.429814
 30
0.0
 10
29.486436
 20
14.695104
 30
0.0
 10
29.396125
 20
14.872904
 30
0.0
 10
29.218324
 20
15.050705
 30
0.0
 10
29.040524
 20
15.141016
 30
0.0
  0
LWPOLYLINE
  5
1bf
100
AcDbEntity
  8
text_and_logo
 62
7
100
AcDbPolyline
 90
2
 70
0
 10
10.478312
 20
68.586016
 30
0.0
 10
10.921402
 20
66.717700
 30
0.0
  0
LWPOLYLINE
  5
1c0
100
AcDbEntity
  8
text_and_logo
 62
7
100
AcDbPolyline
 90
2
 70
0
 10
11.364493
 20
68.586016
 30
0.0
 10
10.921402
 20
66.717700
 30
0.0
  0
LWPOLYLINE
  5
1c1
100
AcDbEntity
  8
text_and_logo
 62
7
100
AcDbPolyline
 90
2
 70
0
 10
11.364493
 20
68.586016
 30
0.0
 10
11.810405
 20
66.717700
 30
0.0
  0
LWPOLYLINE
  5
1c2
100
AcDbEntity
  8
text_and_logo
 62
7
100
AcDbPolyline
 90
2
 70
0
 10
12.256317
 20
68.586016
 30
0.0
 10
11.810405
 20
66.717700
 30
0.0
  0
LWPOLYLINE
  5
1c3
100
AcDbEntity
  8
text_and_logo
 62
7
100
AcDbPolyline
 90
2
 70
0
 10
13.232813
 20
68.586016
 30
0.0
 10
12.521611
 20
66.717700
 30
0.0
  0
LWPOLYLINE
  5
1c4
100
AcDbEntity
  8
text_and_logo
 62
7
100
AcDbPolyline
 90
2
 70
0
 10
13.232813
 20
68.586016
 30
0.0
 10
13.944015
 20
66.717700
 30
0.0
  0
LWPOLYLINE
  5
1c5
100
AcDbEntity
  8
text_and_logo
 62
7
100
AcDbPolyline
 90
2
 70
0
 10
12.786901
 20
67.338591
 30
0.0
 10
13.678725
 20
67.338591
 30
0.0
  0
LWPOLYLINE
  5
1c6
100
AcDbEntity
  8
text_and_logo
 62
7
100
AcDbPolyline
 90
2
 70
0
 10
14.121811
 20
68.586016
 30
0.0
 10
14.833013
 20
66.717700
 30
0.0
  0
LWPOLYLINE
  5
1c7
100
AcDbEntity
  8
text_and_logo
 62
7
100
AcDbPolyline
 90
2
 70
0
 10
15.544215
 20
68.586016
 30
0.0
 10
14.833013
 20
66.717700
 30
0.0
  0
LWPOLYLINE
  5
1c8
100
AcDbEntity
  8
text_and_logo
 62
7
100
AcDbPolyline
 90
2
 70
0
 10
15.987301
 20
68.586016
 30
0.0
 10
15.987301
 20
66.717700
 30
0.0
  0
LWPOLYLINE
  5
1c9
100
AcDbEntity
  8
text_and_logo
 62
7
100
AcDbPolyline
 90
2
 70
0
 10
15.987301
 20
68.586016
 30
0.0
 10
17.144415
 20
68.586016
 30
0.0
  0
LWPOLYLINE
  5
1ca
100
AcDbEntity
  8
text_and_logo
 62
7
100
AcDbPolyline
 90
2
 70
0
 10
15.987301
 20
67.694192
 30
0.0
 10
16.698503
 20
67.694192
 30
0.0
  0
LWPOLYLINE
  5
1cb
100
AcDbEntity
  8
text_and_logo
 62
7
100
AcDbPolyline
 90
2
 70
0
 10
15.987301
 20
66.717700
 30
0.0
 10
17.144415
 20
66.717700
 30
0.0
  0
LWPOLYLINE
  5
1cc
100
AcDbEntity
  8
text_and_logo
 62
7
100
AcDbPolyline
 90
2
 70
0
 10
17.675001
 20
68.586016
 30
0.0
 10
17.675001
 20
66.717700
 30
0.0
  0
LWPOLYLINE
  5
1cd
100
AcDbEntity
  8
text_and_logo
 62
7
100
AcDbPolyline
 90
2
 70
0
 10
17.675001
 20
68.586016
 30
0.0
 10
18.832115
 20
68.586016
 30
0.0
  0
LWPOLYLINE
  5
1ce
100
AcDbEntity
  8
text_and_logo
 62
7
100
AcDbPolyline
 90
2
 70
0
 10
17.675001
 20
67.694192
 30
0.0
 10
18.386203
 20
67.694192
 30
0.0
  0
LWPOLYLINE
  5
1cf
100
AcDbEntity
  8
text_and_logo
 62
7
100
AcDbPolyline
 90
20
 70
1
 10
19.721113
 20
68.586016
 30
0.0
 10
19.543312
 20
68.495705
 30
0.0
 10
19.365512
 20
68.317904
 30
0.0
 10
19.275201
 20
68.140104
 30
0.0
 10
19.187711
 20
67.874814
 30
0.0
 10
19.187711
 20
67.428902
 30
0.0
 10
19.275201
 20
67.163612
 30
0.0
 10
19.365512
 20
66.984401
 30
0.0
 10
19.543312
 20
66.806600
 30
0.0
 10
19.721113
 20
66.717700
 30
0.0
 10
20.076714
 20
66.717700
 30
0.0
 10
20.254514
 20
66.806600
 30
0.0
 10
20.432315
 20
66.984401
 30
0.0
 10
20.522626
 20
67.163612
 30
0.0
 10
20.610115
 20
67.428902
 30
0.0
 10
20.610115
 20
67.874814
 30
0.0
 10
20.522626
 20
68.140104
 30
0.0
 10
20.432315
 20
68.317904
 30
0.0
 10
20.254514
 20
68.495705
 30
0.0
 10
20.076714
 20
68.586016
 30
0.0
  0
LWPOLYLINE
  5
1d0
100
AcDbEntity
  8
text_and_logo
 62
7
100
AcDbPolyline
 90
2
 70
0
 10
21.230991
 20
68.586016
 30
0.0
 10
21.230991
 20
66.717700
 30
0.0
  0
LWPOLYLINE
  5
1d1
100
AcDbEntity
  8
text_and_logo
 62
7
100
AcDbPolyline
 90
10
 70
0
 10
21.230991
 20
68.586016
 30
0.0
 10
22.032504
 20
68.586016
 30
0.0
 10
22.297794
 20
68.495705
 30
0.0
 10
22.388105
 20
68.405394
 30
0.0
 10
22.478416
 20
68.230415
 30
0.0
 10
22.478416
 20
68.049793
 30
0.0
 10
22.388105
 20
67.874814
 30
0.0
 10
22.297794
 20
67.784503
 30
0.0
 10
22.032504
 20
67.694192
 30
0.0
 10
21.230991
 20
67.694192
 30
0.0
  0
LWPOLYLINE
  5
1d2
100
AcDbEntity
  8
text_and_logo
 62
7
100
AcDbPolyline
 90
2
 70
0
 10
21.854703
 20
67.694192
 30
0.0
 10
22.478416
 20
66.717700
 30
0.0
  0
LWPOLYLINE
  5
1d3
100
AcDbEntity
  8
text_and_logo
 62
7
100
AcDbPolyline
 90
2
 70
0
 10
23.099291
 20
68.586016
 30
0.0
 10
23.099291
 20
66.717700
 30
0.0
  0
LWPOLYLINE
  5
1d4
100
AcDbEntity
  8
text_and_logo
 62
7
100
AcDbPolyline
 90
2
 70
0
 10
23.099291
 20
68.586016
 30
0.0
 10
23.810493
 20
66.717700
 30
0.0
  0
LWPOLYLINE
  5
1d5
100
AcDbEntity
  8
text_and_logo
 62
7
100
AcDbPolyline
 90
2
 70
0
 10
24.521695
 20
68.586016
 30
0.0
 10
23.810493
 20
66.717700
 30
0.0
  0
LWPOLYLINE
  5
1d6
100
AcDbEntity
  8
text_and_logo
 62
7
100
AcDbPolyline
 90
2
 70
0
 10
24.521695
 20
68.586016
 30
0.0
 10
24.521695
 20
66.717700
 30
0.0
  0
LWPOLYLINE
  5
1d7
100
AcDbEntity
  8
text_and_logo
 62
7
100
AcDbPolyline
 90
2
 70
0
 10
9.631691
 20
90.155016
 30
0.0
 10
9.631691
 20
88.286700
 30
0.0
  0
LWPOLYLINE
  5
1d8
100
AcDbEntity
  8
text_and_logo
 62
7
100
AcDbPolyline
 90
2
 70
0
 10
9.631691
 20
90.155016
 30
0.0
 10
10.788805
 20
90.155016
 30
0.0
  0
LWPOLYLINE
  5
1d9
100
AcDbEntity
  8
text_and_logo
 62
7
100
AcDbPolyline
 90
2
 70
0
 10
9.631691
 20
89.263192
 30
0.0
 10
10.342893
 20
89.263192
 30
0.0
  0
LWPOLYLINE
  5
1da
100
AcDbEntity
  8
text_and_logo
 62
7
100
AcDbPolyline
 90
2
 70
0
 10
11.231891
 20
90.155016
 30
0.0
 10
11.231891
 20
88.286700
 30
0.0
  0
LWPOLYLINE
  5
1db
100
AcDbEntity
  8
text_and_logo
 62
7
100
AcDbPolyline
 90
10
 70
0
 10
11.231891
 20
90.155016
 30
0.0
 10
12.033404
 20
90.155016
 30
0.0
 10
12.298694
 20
90.064705
 30
0.0
 10
12.389005
 20
89.974394
 30
0.0
 10
12.479316
 20
89.799415
 30
0.0
 10
12.479316
 20
89.618793
 30
0.0
 10
12.389005
 20
89.443814
 30
0.0
 10
12.298694
 20
89.353503
 30
0.0
 10
12.033404
 20
89.263192
 30
0.0
 10
11.231891
 20
89.263192
 30
0.0
  0
LWPOLYLINE
  5
1dc
100
AcDbEntity
  8
text_and_logo
 62
7
100
AcDbPolyline
 90
2
 70
0
 10
11.855603
 20
89.263192
 30
0.0
 10
12.479316
 20
88.286700
 30
0.0
  0
LWPOLYLINE
  5
1dd
100
AcDbEntity
  8
text_and_logo
 62
7
100
AcDbPolyline
 90
2
 70
0
 10
13.100211
 20
90.155016
 30
0.0
 10
13.100211
 20
88.286700
 30
0.0
  0
LWPOLYLINE
  5
1de
100
AcDbEntity
  8
text_and_logo
 62
7
100
AcDbPolyline
 90
2
 70
0
 10
13.100211
 20
90.155016
 30
0.0
 10
14.257325
 20
90.155016
 30
0.0
  0
LWPOLYLINE
  5
1df
100
AcDbEntity
  8
text_and_logo
 62
7
100
AcDbPolyline
 90
2
 70
0
 10
13.100211
 20
89.263192
 30
0.0
 10
13.811413
 20
89.263192
 30
0.0
  0
LWPOLYLINE
  5
1e0
100
AcDbEntity
  8
text_and_logo
 62
7
100
AcDbPolyline
 90
2
 70
0
 10
13.100211
 20
88.286700
 30
0.0
 10
14.257325
 20
88.286700
 30
0.0
  0
LWPOLYLINE
  5
1e1
100
AcDbEntity
  8
text_and_logo
 62
7
100
AcDbPolyline
 90
20
 70
1
 10
15.233813
 20
90.155016
 30
0.0
 10
15.056012
 20
90.064705
 30
0.0
 10
14.878212
 20
89.886904
 30
0.0
 10
14.787901
 20
89.709104
 30
0.0
 10
14.700411
 20
89.443814
 30
0.0
 10
14.700411
 20
88.997902
 30
0.0
 10
14.787901
 20
88.732612
 30
0.0
 10
14.878212
 20
88.553401
 30
0.0
 10
15.056012
 20
88.375600
 30
0.0
 10
15.233813
 20
88.286700
 30
0.0
 10
15.589414
 20
88.286700
 30
0.0
 10
15.767214
 20
88.375600
 30
0.0
 10
15.945015
 20
88.553401
 30
0.0
 10
16.035326
 20
88.732612
 30
0.0
 10
16.122815
 20
88.997902
 30
0.0
 10
16.122815
 20
89.443814
 30
0.0
 10
16.035326
 20
89.709104
 30
0.0
 10
15.945015
 20
89.886904
 30
0.0
 10
15.767214
 20
90.064705
 30
0.0
 10
15.589414
 20
90.155016
 30
0.0
  0
LWPOLYLINE
  5
1e2
100
AcDbEntity
  8
text_and_logo
 62
7
100
AcDbPolyline
 90
2
 70
0
 10
15.499103
 20
88.642301
 30
0.0
 10
16.035326
 20
88.108900
 30
0.0
  0
LWPOLYLINE
  5
1e3
100
AcDbEntity
  8
text_and_logo
 62
7
100
AcDbPolyline
 90
10
 70
0
 10
16.743711
 20
90.155016
 30
0.0
 10
16.743711
 20
88.820101
 30
0.0
 10
16.834022
 20
88.553401
 30
0.0
 10
17.011822
 20
88.375600
 30
0.0
 10
17.279934
 20
88.286700
 30
0.0
 10
17.454913
 20
88.286700
 30
0.0
 10
17.723024
 20
88.375600
 30
0.0
 10
17.900825
 20
88.553401
 30
0.0
 10
17.991136
 20
88.820101
 30
0.0
 10
17.991136
 20
90.155016
 30
0.0
  0
LWPOLYLINE
  5
1e4
100
AcDbEntity
  8
text_and_logo
 62
7
100
AcDbPolyline
 90
2
 70
0
 10
18.699511
 20
90.155016
 30
0.0
 10
18.699511
 20
88.286700
 30
0.0
  0
LWPOLYLINE
  5
1e5
100
AcDbEntity
  8
text_and_logo
 62
7
100
AcDbPolyline
 90
2
 70
0
 10
18.699511
 20
90.155016
 30
0.0
 10
19.856625
 20
90.155016
 30
0.0
  0
LWPOLYLINE
  5
1e6
100
AcDbEntity
  8
text_and_logo
 62
7
100
AcDbPolyline
 90
2
 70
0
 10
18.699511
 20
89.263192
 30
0.0
 10
19.410713
 20
89.263192
 30
0.0
  0
LWPOLYLINE
  5
1e7
100
AcDbEntity
  8
text_and_logo
 62
7
100
AcDbPolyline
 90
2
 70
0
 10
18.699511
 20
88.286700
 30
0.0
 10
19.856625
 20
88.286700
 30
0.0
  0
LWPOLYLINE
  5
1e8
100
AcDbEntity
  8
text_and_logo
 62
7
100
AcDbPolyline
 90
2
 70
0
 10
20.387191
 20
90.155016
 30
0.0
 10
20.387191
 20
88.286700
 30
0.0
  0
LWPOLYLINE
  5
1e9
100
AcDbEntity
  8
text_and_logo
 62
7
100
AcDbPolyline
 90
2
 70
0
 10
20.387191
 20
90.155016
 30
0.0
 10
21.634616
 20
88.286700
 30
0.0
  0
LWPOLYLINE
  5
1ea
100
AcDbEntity
  8
text_and_logo
 62
7
100
AcDbPolyline
 90
2
 70
0
 10
21.634616
 20
90.155016
 30
0.0
 10
21.634616
 20
88.286700
 30
0.0
  0
LWPOLYLINE
  5
1eb
100
AcDbEntity
  8
text_and_logo
 62
7
100
AcDbPolyline
 90
18
 70
0
 10
23.590416
 20
89.709104
 30
0.0
 10
23.500105
 20
89.886904
 30
0.0
 10
23.322304
 20
90.064705
 30
0.0
 10
23.144504
 20
90.155016
 30
0.0
 10
22.788903
 20
90.155016
 30
0.0
 10
22.611102
 20
90.064705
 30
0.0
 10
22.433302
 20
89.886904
 30
0.0
 10
22.342991
 20
89.709104
 30
0.0
 10
22.255501
 20
89.443814
 30
0.0
 10
22.255501
 20
88.997902
 30
0.0
 10
22.342991
 20
88.732612
 30
0.0
 10
22.433302
 20
88.553401
 30
0.0
 10
22.611102
 20
88.375600
 30
0.0
 10
22.788903
 20
88.286700
 30
0.0
 10
23.144504
 20
88.286700
 30
0.0
 10
23.322304
 20
88.375600
 30
0.0
 10
23.500105
 20
88.553401
 30
0.0
 10
23.590416
 20
88.732612
 30
0.0
  0
LWPOLYLINE
  5
1ec
100
AcDbEntity
  8
text_and_logo
 62
7
100
AcDbPolyline
 90
3
 70
0
 10
23.946001
 20
90.155016
 30
0.0
 10
24.657203
 20
89.263192
 30
0.0
 10
24.657203
 20
88.286700
 30
0.0
  0
LWPOLYLINE
  5
1ed
100
AcDbEntity
  8
text_and_logo
 62
7
100
AcDbPolyline
 90
2
 70
0
 10
25.368405
 20
90.155016
 30
0.0
 10
24.657203
 20
89.263192
 30
0.0
  0
LWPOLYLINE
  5
1ee
100
AcDbEntity
  8
text_and_logo
 62
7
100
AcDbPolyline
 90
20
 70
0
 10
6.673605
 20
112.518304
 30
0.0
 10
6.495804
 20
112.696105
 30
0.0
 10
6.227693
 20
112.786416
 30
0.0
 10
5.872092
 20
112.786416
 30
0.0
 10
5.606802
 20
112.696105
 30
0.0
 10
5.429001
 20
112.518304
 30
0.0
 10
5.429001
 20
112.340504
 30
0.0
 10
5.516491
 20
112.162703
 30
0.0
 10
5.606802
 20
112.075214
 30
0.0
 10
5.784602
 20
111.984903
 30
0.0
 10
6.318004
 20
111.807102
 30
0.0
 10
6.495804
 20
111.719613
 30
0.0
 10
6.583294
 20
111.629302
 30
0.0
 10
6.673605
 20
111.451501
 30
0.0
 10
6.673605
 20
111.184801
 30
0.0
 10
6.495804
 20
111.007000
 30
0.0
 10
6.227693
 20
110.918100
 30
0.0
 10
5.872092
 20
110.918100
 30
0.0
 10
5.606802
 20
111.007000
 30
0.0
 10
5.429001
 20
111.184801
 30
0.0
  0
LWPOLYLINE
  5
1ef
100
AcDbEntity
  8
text_and_logo
 62
7
100
AcDbPolyline
 90
3
 70
0
 10
7.029201
 20
112.786416
 30
0.0
 10
7.740403
 20
111.894592
 30
0.0
 10
7.740403
 20
110.918100
 30
0.0
  0
LWPOLYLINE
  5
1f0
100
AcDbEntity
  8
text_and_logo
 62
7
100
AcDbPolyline
 90
2
 70
0
 10
8.451605
 20
112.786416
 30
0.0
 10
7.740403
 20
111.894592
 30
0.0
  0
LWPOLYLINE
  5
1f1
100
AcDbEntity
  8
text_and_logo
 62
7
100
AcDbPolyline
 90
2
 70
0
 10
8.894701
 20
112.786416
 30
0.0
 10
8.894701
 20
110.918100
 30
0.0
  0
LWPOLYLINE
  5
1f2
100
AcDbEntity
  8
text_and_logo
 62
7
100
AcDbPolyline
 90
2
 70
0
 10
8.894701
 20
112.786416
 30
0.0
 10
10.142126
 20
110.918100
 30
0.0
  0
LWPOLYLINE
  5
1f3
100
AcDbEntity
  8
text_and_logo
 62
7
100
AcDbPolyline
 90
2
 70
0
 10
10.142126
 20
112.786416
 30
0.0
 10
10.142126
 20
110.918100
 30
0.0
  0
LWPOLYLINE
  5
1f4
100
AcDbEntity
  8
text_and_logo
 62
7
100
AcDbPolyline
 90
18
 70
0
 10
12.097926
 20
112.340504
 30
0.0
 10
12.007615
 20
112.518304
 30
0.0
 10
11.829814
 20
112.696105
 30
0.0
 10
11.652014
 20
112.786416
 30
0.0
 10
11.296413
 20
112.786416
 30
0.0
 10
11.118612
 20
112.696105
 30
0.0
 10
10.940812
 20
112.518304
 30
0.0
 10
10.850501
 20
112.340504
 30
0.0
 10
10.763011
 20
112.075214
 30
0.0
 10
10.763011
 20
111.629302
 30
0.0
 10
10.850501
 20
111.364012
 30
0.0
 10
10.940812
 20
111.184801
 30
0.0
 10
11.118612
 20
111.007000
 30
0.0
 10
11.296413
 20
110.918100
 30
0.0
 10
11.652014
 20
110.918100
 30
0.0
 10
11.829814
 20
111.007000
 30
0.0
 10
12.007615
 20
111.184801
 30
0.0
 10
12.097926
 20
111.364012
 30
0.0
  0
LWPOLYLINE
  5
1f5
100
AcDbEntity
  8
text_and_logo
 62
7
100
AcDbPolyline
 90
2
 70
0
 10
27.237282
 20
115.534136
 30
0.0
 10
27.237282
 20
113.665820
 30
0.0
  0
LWPOLYLINE
  5
1f6
100
AcDbEntity
  8
text_and_logo
 62
7
100
AcDbPolyline
 90
2
 70
0
 10
26.616391
 20
115.534136
 30
0.0
 10
27.860994
 20
115.534136
 30
0.0
  0
LWPOLYLINE
  5
1f7
100
AcDbEntity
  8
text_and_logo
 62
7
100
AcDbPolyline
 90
2
 70
0
 10
28.749993
 20
115.534136
 30
0.0
 10
28.038791
 20
113.665820
 30
0.0
  0
LWPOLYLINE
  5
1f8
100
AcDbEntity
  8
text_and_logo
 62
7
100
AcDbPolyline
 90
2
 70
0
 10
28.749993
 20
115.534136
 30
0.0
 10
29.461195
 20
113.665820
 30
0.0
  0
LWPOLYLINE
  5
1f9
100
AcDbEntity
  8
text_and_logo
 62
7
100
AcDbPolyline
 90
2
 70
0
 10
28.304081
 20
114.286711
 30
0.0
 10
29.195905
 20
114.286711
 30
0.0
  0
LWPOLYLINE
  5
1fa
100
AcDbEntity
  8
text_and_logo
 62
7
100
AcDbPolyline
 90
2
 70
0
 10
29.904291
 20
115.534136
 30
0.0
 10
29.904291
 20
113.665820
 30
0.0
  0
LWPOLYLINE
  5
1fb
100
AcDbEntity
  8
text_and_logo
 62
7
100
AcDbPolyline
 90
10
 70
0
 10
29.904291
 20
115.534136
 30
0.0
 10
30.705804
 20
115.534136
 30
0.0
 10
30.971094
 20
115.443825
 30
0.0
 10
31.061405
 20
115.353514
 30
0.0
 10
31.151716
 20
115.178535
 30
0.0
 10
31.151716
 20
114.910423
 30
0.0
 10
31.061405
 20
114.732623
 30
0.0
 10
30.971094
 20
114.642312
 30
0.0
 10
30.705804
 20
114.554822
 30
0.0
 10
29.904291
 20
114.554822
 30
0.0
  0
LWPOLYLINE
  5
1fc
100
AcDbEntity
  8
text_and_logo
 62
7
100
AcDbPolyline
 90
2
 70
0
 10
25.148882
 20
112.744136
 30
0.0
 10
25.148882
 20
110.875820
 30
0.0
  0
LWPOLYLINE
  5
1fd
100
AcDbEntity
  8
text_and_logo
 62
7
100
AcDbPolyline
 90
2
 70
0
 10
24.527991
 20
112.744136
 30
0.0
 10
25.772594
 20
112.744136
 30
0.0
  0
LWPOLYLINE
  5
1fe
100
AcDbEntity
  8
text_and_logo
 62
7
100
AcDbPolyline
 90
2
 70
0
 10
26.215681
 20
112.744136
 30
0.0
 10
26.215681
 20
110.875820
 30
0.0
  0
LWPOLYLINE
  5
1ff
100
AcDbEntity
  8
text_and_logo
 62
7
100
AcDbPolyline
 90
2
 70
0
 10
26.215681
 20
112.744136
 30
0.0
 10
27.372795
 20
112.744136
 30
0.0
  0
LWPOLYLINE
  5
200
100
AcDbEntity
  8
text_and_logo
 62
7
100
AcDbPolyline
 90
2
 70
0
 10
26.215681
 20
111.852312
 30
0.0
 10
26.926883
 20
111.852312
 30
0.0
  0
LWPOLYLINE
  5
201
100
AcDbEntity
  8
text_and_logo
 62
7
100
AcDbPolyline
 90
2
 70
0
 10
26.215681
 20
110.875820
 30
0.0
 10
27.372795
 20
110.875820
 30
0.0
  0
LWPOLYLINE
  5
202
100
AcDbEntity
  8
text_and_logo
 62
7
100
AcDbPolyline
 90
2
 70
0
 10
27.903381
 20
112.744136
 30
0.0
 10
27.903381
 20
110.875820
 30
0.0
  0
LWPOLYLINE
  5
203
100
AcDbEntity
  8
text_and_logo
 62
7
100
AcDbPolyline
 90
2
 70
0
 10
27.903381
 20
112.744136
 30
0.0
 10
28.614583
 20
110.875820
 30
0.0
  0
LWPOLYLINE
  5
204
100
AcDbEntity
  8
text_and_logo
 62
7
100
AcDbPolyline
 90
2
 70
0
 10
29.325785
 20
112.744136
 30
0.0
 10
28.614583
 20
110.875820
 30
0.0
  0
LWPOLYLINE
  5
205
100
AcDbEntity
  8
text_and_logo
 62
7
100
AcDbPolyline
 90
2
 70
0
 10
29.325785
 20
112.744136
 30
0.0
 10
29.325785
 20
110.875820
 30
0.0
  0
LWPOLYLINE
  5
206
100
AcDbEntity
  8
text_and_logo
 62
7
100
AcDbPolyline
 90
2
 70
0
 10
30.036981
 20
112.744136
 30
0.0
 10
30.036981
 20
110.875820
 30
0.0
  0
LWPOLYLINE
  5
207
100
AcDbEntity
  8
text_and_logo
 62
7
100
AcDbPolyline
 90
10
 70
0
 10
30.036981
 20
112.744136
 30
0.0
 10
30.838494
 20
112.744136
 30
0.0
 10
31.103784
 20
112.653825
 30
0.0
 10
31.194095
 20
112.563514
 30
0.0
 10
31.284406
 20
112.388535
 30
0.0
 10
31.284406
 20
112.120423
 30
0.0
 10
31.194095
 20
111.942623
 30
0.0
 10
31.103784
 20
111.852312
 30
0.0
 10
30.838494
 20
111.764822
 30
0.0
 10
30.036981
 20
111.764822
 30
0.0
  0
LWPOLYLINE
  5
208
100
AcDbEntity
  8
text_and_logo
 62
7
100
AcDbPolyline
 90
20
 70
1
 10
32.351213
 20
112.744136
 30
0.0
 10
32.173412
 20
112.653825
 30
0.0
 10
31.995612
 20
112.476024
 30
0.0
 10
31.905301
 20
112.298224
 30
0.0
 10
31.817811
 20
112.032934
 30
0.0
 10
31.817811
 20
111.587022
 30
0.0
 10
31.905301
 20
111.321732
 30
0.0
 10
31.995612
 20
111.142521
 30
0.0
 10
32.173412
 20
110.964720
 30
0.0
 10
32.351213
 20
110.875820
 30
0.0
 10
32.706814
 20
110.875820
 30
0.0
 10
32.884614
 20
110.964720
 30
0.0
 10
33.062415
 20
111.142521
 30
0.0
 10
33.152726
 20
111.321732
 30
0.0
 10
33.240215
 20
111.587022
 30
0.0
 10
33.240215
 20
112.032934
 30
0.0
 10
33.152726
 20
112.298224
 30
0.0
 10
33.062415
 20
112.476024
 30
0.0
 10
32.884614
 20
112.653825
 30
0.0
 10
32.706814
 20
112.744136
 30
0.0
  0
LWPOLYLINE
  5
209
100
AcDbEntity
  8
text_and_logo
 62
7
100
AcDbPolyline
 90
20
 70
1
 10
3.339003
 20
44.481616
 30
0.0
 10
3.161202
 20
44.391305
 30
0.0
 10
2.983402
 20
44.213504
 30
0.0
 10
2.893091
 20
44.035704
 30
0.0
 10
2.805601
 20
43.770414
 30
0.0
 10
2.805601
 20
43.324502
 30
0.0
 10
2.893091
 20
43.059212
 30
0.0
 10
2.983402
 20
42.880001
 30
0.0
 10
3.161202
 20
42.702200
 30
0.0
 10
3.339003
 20
42.613300
 30
0.0
 10
3.694604
 20
42.613300
 30
0.0
 10
3.872404
 20
42.702200
 30
0.0
 10
4.050205
 20
42.880001
 30
0.0
 10
4.140516
 20
43.059212
 30
0.0
 10
4.228005
 20
43.324502
 30
0.0
 10
4.228005
 20
43.770414
 30
0.0
 10
4.140516
 20
44.035704
 30
0.0
 10
4.050205
 20
44.213504
 30
0.0
 10
3.872404
 20
44.391305
 30
0.0
 10
3.694604
 20
44.481616
 30
0.0
  0
LWPOLYLINE
  5
20a
100
AcDbEntity
  8
text_and_logo
 62
7
100
AcDbPolyline
 90
2
 70
0
 10
4.848901
 20
44.481616
 30
0.0
 10
4.848901
 20
42.613300
 30
0.0
  0
LWPOLYLINE
  5
20b
100
AcDbEntity
  8
text_and_logo
 62
7
100
AcDbPolyline
 90
2
 70
0
 10
4.848901
 20
44.481616
 30
0.0
 10
6.006015
 20
44.481616
 30
0.0
  0
LWPOLYLINE
  5
20c
100
AcDbEntity
  8
text_and_logo
 62
7
100
AcDbPolyline
 90
2
 70
0
 10
4.848901
 20
43.589792
 30
0.0
 10
5.560103
 20
43.589792
 30
0.0
  0
LWPOLYLINE
  5
20d
100
AcDbEntity
  8
text_and_logo
 62
7
100
AcDbPolyline
 90
2
 70
0
 10
6.449101
 20
44.481616
 30
0.0
 10
6.449101
 20
42.613300
 30
0.0
  0
LWPOLYLINE
  5
20e
100
AcDbEntity
  8
text_and_logo
 62
7
100
AcDbPolyline
 90
2
 70
0
 10
6.449101
 20
44.481616
 30
0.0
 10
7.606215
 20
44.481616
 30
0.0
  0
LWPOLYLINE
  5
20f
100
AcDbEntity
  8
text_and_logo
 62
7
100
AcDbPolyline
 90
2
 70
0
 10
6.449101
 20
43.589792
 30
0.0
 10
7.160303
 20
43.589792
 30
0.0
  0
LWPOLYLINE
  5
210
100
AcDbEntity
  8
text_and_logo
 62
7
100
AcDbPolyline
 90
20
 70
0
 10
9.206415
 20
44.213504
 30
0.0
 10
9.028614
 20
44.391305
 30
0.0
 10
8.760503
 20
44.481616
 30
0.0
 10
8.404902
 20
44.481616
 30
0.0
 10
8.139612
 20
44.391305
 30
0.0
 10
7.961811
 20
44.213504
 30
0.0
 10
7.961811
 20
44.035704
 30
0.0
 10
8.049301
 20
43.857903
 30
0.0
 10
8.139612
 20
43.770414
 30
0.0
 10
8.317412
 20
43.680103
 30
0.0
 10
8.850814
 20
43.502302
 30
0.0
 10
9.028614
 20
43.414813
 30
0.0
 10
9.116104
 20
43.324502
 30
0.0
 10
9.206415
 20
43.146701
 30
0.0
 10
9.206415
 20
42.880001
 30
0.0
 10
9.028614
 20
42.702200
 30
0.0
 10
8.760503
 20
42.613300
 30
0.0
 10
8.404902
 20
42.613300
 30
0.0
 10
8.139612
 20
42.702200
 30
0.0
 10
7.961811
 20
42.880001
 30
0.0
  0
LWPOLYLINE
  5
211
100
AcDbEntity
  8
text_and_logo
 62
7
100
AcDbPolyline
 90
2
 70
0
 10
9.827311
 20
44.481616
 30
0.0
 10
9.827311
 20
42.613300
 30
0.0
  0
LWPOLYLINE
  5
212
100
AcDbEntity
  8
text_and_logo
 62
7
100
AcDbPolyline
 90
2
 70
0
 10
9.827311
 20
44.481616
 30
0.0
 10
10.984425
 20
44.481616
 30
0.0
  0
LWPOLYLINE
  5
213
100
AcDbEntity
  8
text_and_logo
 62
7
100
AcDbPolyline
 90
2
 70
0
 10
9.827311
 20
43.589792
 30
0.0
 10
10.538513
 20
43.589792
 30
0.0
  0
LWPOLYLINE
  5
214
100
AcDbEntity
  8
text_and_logo
 62
7
100
AcDbPolyline
 90
2
 70
0
 10
9.827311
 20
42.613300
 30
0.0
 10
10.984425
 20
42.613300
 30
0.0
  0
LWPOLYLINE
  5
215
100
AcDbEntity
  8
text_and_logo
 62
7
100
AcDbPolyline
 90
2
 70
0
 10
11.870602
 20
44.481616
 30
0.0
 10
11.870602
 20
42.613300
 30
0.0
  0
LWPOLYLINE
  5
216
100
AcDbEntity
  8
text_and_logo
 62
7
100
AcDbPolyline
 90
2
 70
0
 10
11.249711
 20
44.481616
 30
0.0
 10
12.494314
 20
44.481616
 30
0.0
  0
LWPOLYLINE
  5
217
100
AcDbEntity
  8
text_and_logo
 62
7
100
AcDbPolyline
 90
2
 70
0
 10
23.302891
 20
44.481616
 30
0.0
 10
23.302891
 20
42.613300
 30
0.0
  0
LWPOLYLINE
  5
218
100
AcDbEntity
  8
text_and_logo
 62
7
100
AcDbPolyline
 90
12
 70
0
 10
23.302891
 20
44.481616
 30
0.0
 10
23.926603
 20
44.481616
 30
0.0
 10
24.194715
 20
44.391305
 30
0.0
 10
24.369694
 20
44.213504
 30
0.0
 10
24.460005
 20
44.035704
 30
0.0
 10
24.550316
 20
43.770414
 30
0.0
 10
24.550316
 20
43.324502
 30
0.0
 10
24.460005
 20
43.059212
 30
0.0
 10
24.369694
 20
42.880001
 30
0.0
 10
24.194715
 20
42.702200
 30
0.0
 10
23.926603
 20
42.613300
 30
0.0
 10
23.302891
 20
42.613300
 30
0.0
  0
LWPOLYLINE
  5
219
100
AcDbEntity
  8
text_and_logo
 62
7
100
AcDbPolyline
 90
2
 70
0
 10
25.171211
 20
44.481616
 30
0.0
 10
25.171211
 20
42.613300
 30
0.0
  0
LWPOLYLINE
  5
21a
100
AcDbEntity
  8
text_and_logo
 62
7
100
AcDbPolyline
 90
2
 70
0
 10
25.171211
 20
44.481616
 30
0.0
 10
26.328325
 20
44.481616
 30
0.0
  0
LWPOLYLINE
  5
21b
100
AcDbEntity
  8
text_and_logo
 62
7
100
AcDbPolyline
 90
2
 70
0
 10
25.171211
 20
43.589792
 30
0.0
 10
25.882413
 20
43.589792
 30
0.0
  0
LWPOLYLINE
  5
21c
100
AcDbEntity
  8
text_and_logo
 62
7
100
AcDbPolyline
 90
2
 70
0
 10
25.171211
 20
42.613300
 30
0.0
 10
26.328325
 20
42.613300
 30
0.0
  0
LWPOLYLINE
  5
21d
100
AcDbEntity
  8
text_and_logo
 62
7
100
AcDbPolyline
 90
2
 70
0
 10
26.858901
 20
44.481616
 30
0.0
 10
26.858901
 20
42.613300
 30
0.0
  0
LWPOLYLINE
  5
21e
100
AcDbEntity
  8
text_and_logo
 62
7
100
AcDbPolyline
 90
10
 70
0
 10
26.858901
 20
44.481616
 30
0.0
 10
27.660414
 20
44.481616
 30
0.0
 10
27.925704
 20
44.391305
 30
0.0
 10
28.016015
 20
44.300994
 30
0.0
 10
28.106326
 20
44.126015
 30
0.0
 10
28.106326
 20
43.857903
 30
0.0
 10
28.016015
 20
43.680103
 30
0.0
 10
27.925704
 20
43.589792
 30
0.0
 10
27.660414
 20
43.502302
 30
0.0
 10
26.858901
 20
43.502302
 30
0.0
  0
LWPOLYLINE
  5
21f
100
AcDbEntity
  8
text_and_logo
 62
7
100
AcDbPolyline
 90
2
 70
0
 10
29.082822
 20
44.481616
 30
0.0
 10
29.082822
 20
42.613300
 30
0.0
  0
LWPOLYLINE
  5
220
100
AcDbEntity
  8
text_and_logo
 62
7
100
AcDbPolyline
 90
2
 70
0
 10
28.461931
 20
44.481616
 30
0.0
 10
29.706534
 20
44.481616
 30
0.0
  0
LWPOLYLINE
  5
221
100
AcDbEntity
  8
text_and_logo
 62
7
100
AcDbPolyline
 90
2
 70
0
 10
30.149621
 20
44.481616
 30
0.0
 10
30.149621
 20
42.613300
 30
0.0
  0
LWPOLYLINE
  5
222
100
AcDbEntity
  8
text_and_logo
 62
7
100
AcDbPolyline
 90
2
 70
0
 10
31.397046
 20
44.481616
 30
0.0
 10
31.397046
 20
42.613300
 30
0.0
  0
LWPOLYLINE
  5
223
100
AcDbEntity
  8
text_and_logo
 62
7
100
AcDbPolyline
 90
2
 70
0
 10
30.149621
 20
43.589792
 30
0.0
 10
31.397046
 20
43.589792
 30
0.0
  0
LWPOLYLINE
  5
224
100
AcDbEntity
  8
waveforms
 62
7
100
AcDbPolyline
 90
5
 70
0
 10
7.363942
 20
46.479922
 30
0.0
 10
7.363942
 20
49.479921
 30
0.0
 10
10.363942
 20
46.479922
 30
0.0
 10
10.363942
 20
49.479921
 30
0.0
 10
13.013940
 20
46.479922
 30
0.0
  0
LWPOLYLINE
  5
225
100
AcDbEntity
  8
waveforms
 62
7
100
AcDbPolyline
 90
5
 70
0
 10
3.354353
 20
54.000003
 30
0.0
 10
3.354353
 20
51.000003
 30
0.0
 10
6.354353
 20
54.000003
 30
0.0
 10
6.354353
 20
51.000003
 30
0.0
 10
9.354352
 20
54.000003
 30
0.0
  0
LWPOLYLINE
  5
226
100
AcDbEntity
  8
waveforms
 62
7
100
AcDbPolyline
 90
6
 70
0
 10
3.988540
 20
57.031438
 30
0.0
 10
3.988540
 20
60.031438
 30
0.0
 10
6.988540
 20
60.031439
 30
0.0
 10
6.988540
 20
57.031439
 30
0.0
 10
9.988540
 20
57.031439
 30
0.0
 10
9.988540
 20
60.031438
 30
0.0
  0
SPLINE
  5
227
100
AcDbEntity
  8
waveforms
 62
7
100
AcDbSpline
 70
8
 71
3
 72
8
 73
4
 74
0
 40
0
 40
0
 40
0
 40
0
 40
1
 40
1
 40
1
 40
1
 10
19.096165
 20
62.247079
 30
0.0
 10
20.050710
 20
64.056046
 30
0.0
 10
21.204758
 20
64.257927
 30
0.0
 10
22.096165
 20
62.247079
 30
0.0
  0
SPLINE
  5
228
100
AcDbEntity
  8
waveforms
 62
7
100
AcDbSpline
 70
8
 71
3
 72
8
 73
4
 74
0
 40
0
 40
0
 40
0
 40
0
 40
1
 40
1
 40
1
 40
1
 10
22.096165
 20
62.247079
 30
0.0
 10
22.941970
 20
60.859322
 30
0.0
 10
23.813242
 20
59.700769
 30
0.0
 10
25.096165
 20
62.247079
 30
0.0
  0
SPLINE
  5
229
100
AcDbEntity
  8
waveforms
 62
7
100
AcDbSpline
 70
8
 71
3
 72
8
 73
4
 74
0
 40
0
 40
0
 40
0
 40
0
 40
1
 40
1
 40
1
 40
1
 10
24.349998
 20
59.534601
 30
0.0
 10
26.335124
 20
55.587111
 30
0.0
 10
28.334730
 20
55.482371
 30
0.0
 10
30.349998
 20
59.534601
 30
0.0
  0
LWPOLYLINE
  5
22a
100
AcDbEntity
  8
waveforms
 62
7
100
AcDbPolyline
 90
3
 70
0
 10
9.769934
 20
63.942712
 30
0.0
 10
12.769934
 20
60.942713
 30
0.0
 10
15.769934
 20
63.942712
 30
0.0
  0
LWPOLYLINE
  5
22b
100
AcDbEntity
  8
waveforms
 62
7
100
AcDbPolyline
 90
15
 70
0
 10
25.349998
 20
50.943456
 30
0.0
 10
25.349998
 20
51.943456
 30
0.0
 10
26.349998
 20
51.943456
 30
0.0
 10
26.349998
 20
52.943454
 30
0.0
 10
26.349998
 20
53.943455
 30
0.0
 10
27.349998
 20
53.943455
 30
0.0
 10
27.349998
 20
51.943456
 30
0.0
 10
28.349998
 20
51.943456
 30
0.0
 10
28.349998
 20
52.943455
 30
0.0
 10
29.349998
 20
52.943455
 30
0.0
 10
29.349998
 20
50.943456
 30
0.0
 10
30.349998
 20
50.943456
 30
0.0
 10
30.349998
 20
51.943456
 30
0.0
 10
31.349998
 20
51.943456
 30
0.0
 10
31.349998
 20
53.943455
 30
0.0
  0
LWPOLYLINE
  5
22c
100
AcDbEntity
  8
waveforms
 62
7
100
AcDbPolyline
 90
7
 70
0
 10
22.020878
 20
46.419608
 30
0.0
 10
23.020878
 20
47.419608
 30
0.0
 10
24.020878
 20
46.419608
 30
0.0
 10
25.020878
 20
49.419607
 30
0.0
 10
26.020878
 20
47.419608
 30
0.0
 10
27.020878
 20
48.419606
 30
0.0
 10
28.020878
 20
47.419608
 30
0.0
  0
LWPOLYLINE
  5
22d
100
AcDbEntity
  8
waveforms
 62
7
100
AcDbPolyline
 90
16
 70
1
 10
-45.189299
 20
24.930236
 30
0.0
 10
-45.388266
 20
24.862502
 30
0.0
 10
-45.523733
 20
24.663535
 30
0.0
 10
-45.589349
 20
24.329101
 30
0.0
 10
-45.589349
 20
24.130134
 30
0.0
 10
-45.523733
 20
23.795700
 30
0.0
 10
-45.388266
 20
23.595675
 30
0.0
 10
-45.189299
 20
23.529000
 30
0.0
 10
-45.055949
 20
23.529000
 30
0.0
 10
-44.854865
 20
23.595675
 30
0.0
 10
-44.723631
 20
23.795700
 30
0.0
 10
-44.655898
 20
24.130134
 30
0.0
 10
-44.655898
 20
24.329101
 30
0.0
 10
-44.723631
 20
24.663535
 30
0.0
 10
-44.854865
 20
24.862502
 30
0.0
 10
-45.055949
 20
24.930236
 30
0.0
  0
LWPOLYLINE
  5
22e
100
AcDbEntity
  8
waveforms
 62
7
100
AcDbPolyline
 90
2
 70
0
 10
-44.190233
 20
24.130134
 30
0.0
 10
-42.987964
 20
24.130134
 30
0.0
  0
LWPOLYLINE
  5
22f
100
AcDbEntity
  8
waveforms
 62
7
100
AcDbPolyline
 90
4
 70
0
 10
-42.321216
 20
24.663535
 30
0.0
 10
-42.189982
 20
24.729152
 30
0.0
 10
-41.988899
 20
24.930236
 30
0.0
 10
-41.988899
 20
23.529000
 30
0.0
  0
LWPOLYLINE
  5
230
100
AcDbEntity
  8
waveforms
 62
7
100
AcDbPolyline
 90
16
 70
1
 10
-40.788739
 20
24.930236
 30
0.0
 10
-40.987706
 20
24.862502
 30
0.0
 10
-41.123173
 20
24.663535
 30
0.0
 10
-41.188789
 20
24.329101
 30
0.0
 10
-41.188789
 20
24.130134
 30
0.0
 10
-41.123173
 20
23.795700
 30
0.0
 10
-40.987706
 20
23.595675
 30
0.0
 10
-40.788739
 20
23.529000
 30
0.0
 10
-40.655389
 20
23.529000
 30
0.0
 10
-40.454305
 20
23.595675
 30
0.0
 10
-40.323071
 20
23.795700
 30
0.0
 10
-40.255338
 20
24.130134
 30
0.0
 10
-40.255338
 20
24.329101
 30
0.0
 10
-40.323071
 20
24.663535
 30
0.0
 10
-40.454305
 20
24.862502
 30
0.0
 10
-40.655389
 20
24.930236
 30
0.0
  0
LWPOLYLINE
  5
231
100
AcDbEntity
  8
waveforms
 62
7
100
AcDbPolyline
 90
2
 70
0
 10
-39.988640
 20
24.930236
 30
0.0
 10
-39.455239
 20
23.529000
 30
0.0
  0
LWPOLYLINE
  5
232
100
AcDbEntity
  8
waveforms
 62
7
100
AcDbPolyline
 90
2
 70
0
 10
-38.921838
 20
24.930236
 30
0.0
 10
-39.455239
 20
23.529000
 30
0.0
  0
LWPOLYLINE
  5
233
100
AcDbEntity
  8
waveforms
 62
7
100
AcDbPolyline
 90
16
 70
1
 10
4.749501
 20
27.778156
 30
0.0
 10
4.550534
 20
27.710422
 30
0.0
 10
4.415067
 20
27.511455
 30
0.0
 10
4.349451
 20
27.177021
 30
0.0
 10
4.349451
 20
26.978054
 30
0.0
 10
4.415067
 20
26.643620
 30
0.0
 10
4.550534
 20
26.443595
 30
0.0
 10
4.749501
 20
26.376920
 30
0.0
 10
4.882851
 20
26.376920
 30
0.0
 10
5.083935
 20
26.443595
 30
0.0
 10
5.215169
 20
26.643620
 30
0.0
 10
5.282902
 20
26.978054
 30
0.0
 10
5.282902
 20
27.177021
 30
0.0
 10
5.215169
 20
27.511455
 30
0.0
 10
5.083935
 20
27.710422
 30
0.0
 10
4.882851
 20
27.778156
 30
0.0
  0
LWPOLYLINE
  5
234
100
AcDbEntity
  8
waveforms
 62
7
100
AcDbPolyline
 90
2
 70
0
 10
5.748567
 20
26.978054
 30
0.0
 10
6.950836
 20
26.978054
 30
0.0
  0
LWPOLYLINE
  5
235
100
AcDbEntity
  8
waveforms
 62
7
100
AcDbPolyline
 90
4
 70
0
 10
7.617584
 20
27.511455
 30
0.0
 10
7.748818
 20
27.577072
 30
0.0
 10
7.949901
 20
27.778156
 30
0.0
 10
7.949901
 20
26.376920
 30
0.0
  0
LWPOLYLINE
  5
236
100
AcDbEntity
  8
waveforms
 62
7
100
AcDbPolyline
 90
16
 70
1
 10
9.150061
 20
27.778156
 30
0.0
 10
8.951094
 20
27.710422
 30
0.0
 10
8.815627
 20
27.511455
 30
0.0
 10
8.750011
 20
27.177021
 30
0.0
 10
8.750011
 20
26.978054
 30
0.0
 10
8.815627
 20
26.643620
 30
0.0
 10
8.951094
 20
26.443595
 30
0.0
 10
9.150061
 20
26.376920
 30
0.0
 10
9.283411
 20
26.376920
 30
0.0
 10
9.484495
 20
26.443595
 30
0.0
 10
9.615729
 20
26.643620
 30
0.0
 10
9.683462
 20
26.978054
 30
0.0
 10
9.683462
 20
27.177021
 30
0.0
 10
9.615729
 20
27.511455
 30
0.0
 10
9.484495
 20
27.710422
 30
0.0
 10
9.283411
 20
27.778156
 30
0.0
  0
LWPOLYLINE
  5
237
100
AcDbEntity
  8
waveforms
 62
7
100
AcDbPolyline
 90
2
 70
0
 10
9.950160
 20
27.778156
 30
0.0
 10
10.483561
 20
26.376920
 30
0.0
  0
LWPOLYLINE
  5
238
100
AcDbEntity
  8
waveforms
 62
7
100
AcDbPolyline
 90
2
 70
0
 10
11.016962
 20
27.778156
 30
0.0
 10
10.483561
 20
26.376920
 30
0.0
  0
LWPOLYLINE
  5
239
100
AcDbEntity
  8
waveforms
 62
7
100
AcDbPolyline
 90
2
 70
0
 10
22.949467
 20
26.978054
 30
0.0
 10
24.151736
 20
26.978054
 30
0.0
  0
LWPOLYLINE
  5
23a
100
AcDbEntity
  8
waveforms
 62
7
100
AcDbPolyline
 90
4
 70
0
 10
24.818484
 20
27.511455
 30
0.0
 10
24.949718
 20
27.577072
 30
0.0
 10
25.150801
 20
27.778156
 30
0.0
 10
25.150801
 20
26.376920
 30
0.0
  0
LWPOLYLINE
  5
23b
100
AcDbEntity
  8
waveforms
 62
7
100
AcDbPolyline
 90
16
 70
1
 10
26.350951
 20
27.778156
 30
0.0
 10
26.151984
 20
27.710422
 30
0.0
 10
26.016517
 20
27.511455
 30
0.0
 10
25.950901
 20
27.177021
 30
0.0
 10
25.950901
 20
26.978054
 30
0.0
 10
26.016517
 20
26.643620
 30
0.0
 10
26.151984
 20
26.443595
 30
0.0
 10
26.350951
 20
26.376920
 30
0.0
 10
26.484301
 20
26.376920
 30
0.0
 10
26.685385
 20
26.443595
 30
0.0
 10
26.816619
 20
26.643620
 30
0.0
 10
26.884352
 20
26.978054
 30
0.0
 10
26.884352
 20
27.177021
 30
0.0
 10
26.816619
 20
27.511455
 30
0.0
 10
26.685385
 20
27.710422
 30
0.0
 10
26.484301
 20
27.778156
 30
0.0
  0
LWPOLYLINE
  5
23c
100
AcDbEntity
  8
waveforms
 62
7
100
AcDbPolyline
 90
2
 70
0
 10
27.350027
 20
26.978054
 30
0.0
 10
28.552296
 20
26.978054
 30
0.0
  0
LWPOLYLINE
  5
23d
100
AcDbEntity
  8
waveforms
 62
7
100
AcDbPolyline
 90
16
 70
1
 10
29.418011
 20
27.778156
 30
0.0
 10
29.219044
 20
27.710422
 30
0.0
 10
29.083577
 20
27.511455
 30
0.0
 10
29.017961
 20
27.177021
 30
0.0
 10
29.017961
 20
26.978054
 30
0.0
 10
29.083577
 20
26.643620
 30
0.0
 10
29.219044
 20
26.443595
 30
0.0
 10
29.418011
 20
26.376920
 30
0.0
 10
29.551361
 20
26.376920
 30
0.0
 10
29.752445
 20
26.443595
 30
0.0
 10
29.883679
 20
26.643620
 30
0.0
 10
29.951412
 20
26.978054
 30
0.0
 10
29.951412
 20
27.177021
 30
0.0
 10
29.883679
 20
27.511455
 30
0.0
 10
29.752445
 20
27.710422
 30
0.0
 10
29.551361
 20
27.778156
 30
0.0
  0
LWPOLYLINE
  5
23e
100
AcDbEntity
  8
waveforms
 62
7
100
AcDbPolyline
 90
2
 70
0
 10
30.218110
 20
27.778156
 30
0.0
 10
30.751511
 20
26.376920
 30
0.0
  0
LWPOLYLINE
  5
23f
100
AcDbEntity
  8
waveforms
 62
7
100
AcDbPolyline
 90
2
 70
0
 10
31.284912
 20
27.778156
 30
0.0
 10
30.751511
 20
26.376920
 30
0.0
  0
ENDSEC
  0
SECTION
  2
OBJECTS
  0
DICTIONARY
  5
C
330
0
100
AcDbDictionary
  3
ACAD_GROUP
350
D
  3
ACAD_MLINESTYLE
350
17
  0
DICTIONARY
  5
D
330
C
100
AcDbDictionary
  0
DICTIONARY
  5
1A
330
C
100
AcDbDictionary
  0
DICTIONARY
  5
17
330
C
100
AcDbDictionary
  3
STANDARD
350
18
  0
DICTIONARY
  5
19
330
C
100
AcDbDictionary
  0
ENDSEC
  0
EOF
